<?xml version="1.0" encoding="UTF-8" standalone="no"?>
<svg
   xmlns:dc="http://purl.org/dc/elements/1.1/"
   xmlns:cc="http://creativecommons.org/ns#"
   xmlns:rdf="http://www.w3.org/1999/02/22-rdf-syntax-ns#"
   xmlns:svg="http://www.w3.org/2000/svg"
   xmlns="http://www.w3.org/2000/svg"
   viewBox="0 0 682.66669 586.47333"
   height="586.47333"
   width="682.66669"
   xml:space="preserve"
   id="svg2"
   version="1.1"><metadata
     id="metadata8"><rdf:RDF><cc:Work
         rdf:about=""><dc:format>image/svg+xml</dc:format><dc:type
           rdf:resource="http://purl.org/dc/dcmitype/StillImage" /></cc:Work></rdf:RDF></metadata><defs
     id="defs6"><clipPath
       id="clipPath18"
       clipPathUnits="userSpaceOnUse"><path
         id="path16"
         d="M 0,439.855 H 512 V 0 H 0 Z" /></clipPath></defs><g
     transform="matrix(1.3333333,0,0,-1.3333333,0,586.47333)"
     id="g10"><g
       id="g12"><g
         clip-path="url(#clipPath18)"
         id="g14"><g
           transform="translate(497,215.9202)"
           id="g20"><path
             id="path22"
             style="fill:#000000;fill-opacity:1;fill-rule:nonzero;stroke:none"
             d="m 0,0 c 0,-31.227 -25.404,-56.629 -56.629,-56.629 h -0.516 v 16.548 c 0,8.556 -6.96,15.517 -15.516,15.517 h -0.516 V 136.79 h 48.612 c 13.545,0 24.564,-11.02 24.564,-24.564 L -0.001,0 Z m -32.581,-200.92 h -40.597 v 105.242 h 0.517 c 8.556,0 15.516,6.961 15.516,15.517 v 8.532 h 0.516 c 15.064,0 29.049,4.685 40.597,12.66 v -125.402 c 0,-9.125 -7.424,-16.549 -16.549,-16.549 m -433.387,16.549 v 125.402 c 11.548,-7.975 25.532,-12.66 40.597,-12.66 h 0.516 v -8.532 c 0,-8.556 6.96,-15.517 15.516,-15.517 h 32.58 V -200.92 h -17.064 v 80.678 c 0,4.142 -3.358,7.5 -7.5,7.5 -4.142,0 -7.5,-3.358 -7.5,-7.5 v -80.678 h -40.596 c -9.125,0 -16.549,7.424 -16.549,16.549 M -482,112.226 c 0,13.545 11.02,24.564 24.564,24.564 h 48.613 V -24.564 h -0.516 c -8.556,0 -15.516,-6.961 -15.516,-15.517 v -16.548 h -0.516 C -456.596,-56.629 -482,-31.226 -482,0 Z m 188.023,83.751 c 1.696,7.63 8.339,12.959 16.155,12.959 h 73.644 c 7.816,0 14.459,-5.329 16.155,-12.959 l 9.819,-44.187 h -125.592 z m 188.736,-59.187 h 17.064 V -24.564 h -17.064 z M -376.758,-24.564 h -17.064 V 136.79 h 17.064 z M -120.241,136.79 V -24.564 h -0.516 c -8.555,0 -15.516,-6.961 -15.516,-15.517 v -16.548 h -209.453 v 16.548 c 0,8.556 -6.96,15.517 -15.516,15.517 h -0.517 V 136.79 Z M -409.855,-40.081 c 0,0.285 0.231,0.517 0.516,0.517 h 16.548 v -16.549 c 0,-4.143 3.358,-7.5 7.5,-7.5 4.142,0 7.5,3.357 7.5,7.5 v 16.549 h 16.549 c 0.285,0 0.516,-0.231 0.516,-0.517 v -40.08 c 0,-0.285 -0.231,-0.517 -0.516,-0.517 h -48.097 c -0.285,0 -0.516,0.231 -0.516,0.517 z m 297.113,-72.661 c -4.142,0 -7.5,-3.358 -7.5,-7.5 v -80.678 h -241.517 v 105.242 h 0.517 c 8.556,0 15.516,6.961 15.516,15.517 v 8.532 h 209.452 v -8.532 c 0,-8.556 6.96,-15.517 15.516,-15.517 h 32.58 V -200.92 h -17.064 v 80.678 c 0,4.142 -3.358,7.5 -7.5,7.5 m 40.597,32.581 c 0,-0.285 -0.231,-0.517 -0.516,-0.517 h -48.097 c -0.285,0 -0.516,0.231 -0.516,0.517 v 40.08 c 0,0.285 0.231,0.517 0.516,0.517 h 16.548 v -16.549 c 0,-4.143 3.358,-7.5 7.5,-7.5 4.142,0 7.5,3.357 7.5,7.5 v 16.549 h 16.548 c 0.285,0 0.516,-0.231 0.516,-0.517 v -40.08 z M 15,112.226 c 0,21.815 -17.749,39.564 -39.564,39.564 h -138.275 l -10.542,47.44 c -3.232,14.546 -15.897,24.705 -30.797,24.705 h -73.644 c -14.9,0 -27.565,-10.159 -30.797,-24.705 l -10.542,-47.44 H -457.436 C -479.251,151.79 -497,134.041 -497,112.226 V 0 c 0,-17.08 6.017,-32.775 16.032,-45.099 v -139.272 c 0,-17.397 14.152,-31.549 31.548,-31.549 h 416.839 c 17.396,0 31.548,14.151 31.548,31.549 V -45.098 C 8.983,-32.775 15,-17.079 15,0 Z" /></g><g
           transform="translate(223.936,176.3557)"
           id="g24"><path
             id="path26"
             style="fill:#000000;fill-opacity:1;fill-rule:nonzero;stroke:none"
             d="m 0,0 h 64.129 c 8.556,0 15.516,6.96 15.516,15.517 v 16.031 c 0,8.556 -6.96,15.517 -15.516,15.517 h -8.017 c -4.142,0 -7.5,-3.357 -7.5,-7.5 0,-4.143 3.358,-7.5 7.5,-7.5 h 8.017 c 0.285,0 0.516,-0.231 0.516,-0.517 V 15.517 C 64.645,15.232 64.414,15 64.129,15 H 0 c -0.285,0 -0.516,0.231 -0.516,0.517 v 16.031 c 0,0.285 0.231,0.517 0.516,0.517 h 24.051 c 4.142,0 7.5,3.357 7.5,7.5 0,4.143 -3.358,7.5 -7.5,7.5 H 0 c -8.556,0 -15.516,-6.961 -15.516,-15.517 V 15.517 C -15.517,6.96 -8.556,0 0,0" /></g></g></g></g></svg>