<?xml version="1.0" encoding="UTF-8" standalone="no"?>
<svg
   xmlns:dc="http://purl.org/dc/elements/1.1/"
   xmlns:cc="http://creativecommons.org/ns#"
   xmlns:rdf="http://www.w3.org/1999/02/22-rdf-syntax-ns#"
   xmlns:svg="http://www.w3.org/2000/svg"
   xmlns="http://www.w3.org/2000/svg"
   viewBox="0 0 60 60"
   height="60"
   width="60"
   xml:space="preserve"
   id="svg2"
   version="1.1"><metadata
     id="metadata8"><rdf:RDF><cc:Work
         rdf:about=""><dc:format>image/svg+xml</dc:format><dc:type
           rdf:resource="http://purl.org/dc/dcmitype/StillImage" /></cc:Work></rdf:RDF></metadata><defs
     id="defs6"><clipPath
       id="clipPath18"
       clipPathUnits="userSpaceOnUse"><path
         id="path16"
         d="M 0,45 H 45 V 0 H 0 Z" /></clipPath></defs><g
     transform="matrix(1.3333333,0,0,-1.3333333,0,60)"
     id="g10"><g
       id="g12"><g
         clip-path="url(#clipPath18)"
         id="g14"><path
           id="path20"
           style="fill:#000000;fill-opacity:1;fill-rule:nonzero;stroke:none"
           d="M 10.522,24.894 H 5.918 v 4.736 h 4.604 z m 0.705,6.186 H 5.214 c -0.389,0 -0.705,-0.325 -0.705,-0.725 v -6.187 c 0,-0.4 0.316,-0.725 0.705,-0.725 h 6.013 c 0.389,0 0.704,0.325 0.704,0.725 v 6.187 c 0,0.4 -0.315,0.725 -0.704,0.725" /><path
           id="path22"
           style="fill:#000000;fill-opacity:1;fill-rule:nonzero;stroke:none"
           d="m 14.938,29.63 h 4.603 v -4.736 h -4.603 z m -0.705,-6.187 h 6.012 c 0.39,0 0.705,0.325 0.705,0.725 v 6.187 c 0,0.4 -0.315,0.725 -0.705,0.725 h -6.012 c -0.389,0 -0.705,-0.325 -0.705,-0.725 v -6.187 c 0,-0.4 0.316,-0.725 0.705,-0.725" /><path
           id="path24"
           style="fill:#000000;fill-opacity:1;fill-rule:nonzero;stroke:none"
           d="M 10.522,15.614 H 5.918 v 4.736 h 4.604 z M 11.227,21.8 H 5.214 c -0.389,0 -0.705,-0.325 -0.705,-0.725 v -6.187 c 0,-0.4 0.316,-0.724 0.705,-0.724 h 6.013 c 0.389,0 0.704,0.324 0.704,0.724 v 6.187 c 0,0.4 -0.315,0.725 -0.704,0.725" /><g
           transform="translate(32.2705,1.4497)"
           id="g26"><path
             id="path28"
             style="fill:#000000;fill-opacity:1;fill-rule:nonzero;stroke:none"
             d="m 0,0 c -5.813,0 -10.652,4.479 -11.258,10.419 0,0 0,10e-4 0,0.002 -0.042,0.407 -0.063,0.82 -0.063,1.227 0,4.439 2.399,8.433 6.259,10.422 h 0.001 c 0.713,0.367 1.464,0.657 2.23,0.86 0.92,0.243 1.872,0.367 2.831,0.367 0.472,0 0.948,-0.03 1.416,-0.09 C 7.062,22.482 11.32,17.513 11.32,11.648 11.32,5.226 6.242,0 0,0 m -12.73,14.164 h -4.603 V 18.9 h 4.603 z m 7.193,9.28 h -2.777 v 4.736 h 4.603 v -4 C -4.335,23.984 -4.947,23.738 -5.537,23.444 M -30.861,37.46 h 2.348 v -3.915 c 0,-0.4 0.316,-0.725 0.705,-0.725 h 3.006 c 0.389,0 0.705,0.325 0.705,0.725 v 3.915 h 6.858 v -3.915 c 0,-0.4 0.315,-0.725 0.704,-0.725 h 3.007 c 0.389,0 0.704,0.325 0.704,0.725 v 3.915 h 6.858 v -3.915 c 0,-0.4 0.316,-0.725 0.705,-0.725 h 3.006 c 0.39,0 0.705,0.325 0.705,0.725 V 37.46 H 0.799 V 24.721 C 0.532,24.738 0.266,24.747 0,24.747 c -0.774,0 -1.545,-0.073 -2.302,-0.215 v 4.373 c 0,0.401 -0.315,0.725 -0.705,0.725 h -6.012 c -0.389,0 -0.705,-0.324 -0.705,-0.725 v -6.186 c 0,-0.401 0.316,-0.725 0.705,-0.725 h 1.212 c -1.166,-0.933 -2.172,-2.07 -2.968,-3.368 -0.197,-0.321 -0.377,-0.651 -0.546,-0.987 v 1.986 c 0,0.4 -0.315,0.725 -0.704,0.725 h -6.013 c -0.389,0 -0.704,-0.325 -0.704,-0.725 v -6.187 c 0,-0.4 0.315,-0.724 0.704,-0.724 h 5.351 c -0.027,-0.354 -0.043,-0.709 -0.043,-1.066 0,-0.191 0.005,-0.384 0.014,-0.578 h -18.145 z m 3.757,4.64 h 1.598 v -3.914 -3.915 h -1.598 v 3.915 z m 11.274,0 h 1.597 v -3.914 -3.915 h -1.597 v 3.915 z m 11.273,0 h 1.598 v -3.914 -3.915 h -1.598 v 3.915 z M 2.208,24.55 v 13.636 c 0,0.4 -0.315,0.724 -0.705,0.724 H -1.55 v 3.915 c 0,0.401 -0.315,0.725 -0.705,0.725 h -3.006 c -0.389,0 -0.705,-0.324 -0.705,-0.725 V 38.91 h -6.858 v 3.915 c 0,0.401 -0.315,0.725 -0.704,0.725 h -3.007 c -0.389,0 -0.704,-0.324 -0.704,-0.725 V 38.91 h -6.858 v 3.915 c 0,0.401 -0.316,0.725 -0.705,0.725 h -3.006 c -0.389,0 -0.705,-0.324 -0.705,-0.725 V 38.91 h -3.053 c -0.389,0 -0.705,-0.324 -0.705,-0.724 v -27.84 c 0,-0.401 0.316,-0.726 0.705,-0.726 h 18.989 c 0.446,-2.95 1.863,-5.657 4.032,-7.68 2.344,-2.186 5.379,-3.389 8.545,-3.389 7.019,0 12.729,5.875 12.729,13.097 0,6.379 -4.481,11.816 -10.521,12.902" /></g><g
           transform="translate(42.0518,16.6792)"
           id="g30"><path
             id="path32"
             style="fill:#000000;fill-opacity:1;fill-rule:nonzero;stroke:none"
             d="m 0,0 c -0.131,0.377 -0.534,0.573 -0.9,0.439 -0.368,-0.134 -0.558,-0.549 -0.428,-0.926 0.344,-0.992 0.518,-2.033 0.518,-3.094 0,-0.4 0.316,-0.725 0.705,-0.725 0.389,0 0.705,0.325 0.705,0.725 C 0.6,-2.354 0.397,-1.148 0,0" /></g><g
           transform="translate(40.8086,19.1684)"
           id="g34"><path
             id="path36"
             style="fill:#000000;fill-opacity:1;fill-rule:nonzero;stroke:none"
             d="M 0,0 C -1.376,2.043 -3.406,3.538 -5.717,4.21 -6.092,4.32 -6.48,4.096 -6.586,3.71 -6.692,3.325 -6.475,2.924 -6.101,2.815 c 1.997,-0.581 3.752,-1.874 4.943,-3.641 0.137,-0.203 0.356,-0.313 0.58,-0.313 0.138,0 0.278,0.042 0.4,0.13 0.32,0.228 0.4,0.68 0.178,1.009" /></g><g
           transform="translate(32.2705,6.3335)"
           id="g38"><path
             id="path40"
             style="fill:#000000;fill-opacity:1;fill-rule:nonzero;stroke:none"
             d="m 0,0 c -3.625,0 -6.574,3.034 -6.574,6.765 0,3.73 2.949,6.764 6.574,6.764 3.625,0 6.574,-3.034 6.574,-6.764 C 6.574,3.034 3.625,0 0,0 m 0,14.979 c -4.402,0 -7.983,-3.684 -7.983,-8.214 0,-4.53 3.581,-8.215 7.983,-8.215 4.402,0 7.983,3.685 7.983,8.215 0,4.53 -3.581,8.214 -7.983,8.214" /></g><g
           transform="translate(36.4043,13.2934)"
           id="g42"><path
             id="path44"
             style="fill:#000000;fill-opacity:1;fill-rule:nonzero;stroke:none"
             d="m 0,0 h -3.43 v 3.528 c 0,0.401 -0.315,0.725 -0.704,0.725 -0.389,0 -0.705,-0.324 -0.705,-0.725 v -4.254 c 0,-0.4 0.316,-0.724 0.705,-0.724 H 0 c 0.389,0 0.704,0.324 0.704,0.724 C 0.704,-0.324 0.389,0 0,0" /></g></g></g></g></svg>