<?xml version="1.0" encoding="UTF-8" standalone="no"?>
<svg
   xmlns:dc="http://purl.org/dc/elements/1.1/"
   xmlns:cc="http://creativecommons.org/ns#"
   xmlns:rdf="http://www.w3.org/1999/02/22-rdf-syntax-ns#"
   xmlns:svg="http://www.w3.org/2000/svg"
   xmlns="http://www.w3.org/2000/svg"
   viewBox="0 0 682.66669 556.15198"
   height="556.15198"
   width="682.66669"
   xml:space="preserve"
   id="svg2"
   version="1.1"><metadata
     id="metadata8"><rdf:RDF><cc:Work
         rdf:about=""><dc:format>image/svg+xml</dc:format><dc:type
           rdf:resource="http://purl.org/dc/dcmitype/StillImage" /></cc:Work></rdf:RDF></metadata><defs
     id="defs6"><clipPath
       id="clipPath18"
       clipPathUnits="userSpaceOnUse"><path
         id="path16"
         d="M 0,417.114 H 512 V 0 H 0 Z" /></clipPath></defs><g
     transform="matrix(1.3333333,0,0,-1.3333333,0,556.152)"
     id="g10"><g
       id="g12"><g
         clip-path="url(#clipPath18)"
         id="g14"><g
           transform="translate(233.0084,111.4807)"
           id="g20"><path
             id="path22"
             style="fill:#000000;fill-opacity:1;fill-rule:nonzero;stroke:none"
             d="m 0,0 c -1.368,-2.934 -3.796,-5.157 -6.837,-6.265 -3.039,-1.106 -6.329,-0.964 -9.265,0.404 -2.933,1.368 -5.157,3.796 -6.264,6.836 l -4.14,11.375 22.77,8.287 L 0.403,9.263 C 1.51,6.223 1.367,2.934 0,0 M 9.585,27.897 C 8.422,31.094 6.083,33.646 3,35.084 c -3.082,1.438 -6.541,1.587 -9.736,0.426 l -27.027,-9.838 c -3.196,-1.163 -5.75,-3.502 -7.188,-6.586 -1.438,-3.083 -1.588,-6.541 -0.425,-9.734 l 4.914,-13.505 c 2.479,-6.806 7.458,-12.24 14.022,-15.301 3.645,-1.699 7.537,-2.555 11.442,-2.555 3.128,0 6.266,0.548 9.292,1.65 6.806,2.477 12.239,7.456 15.302,14.021 3.061,6.564 3.382,13.928 0.904,20.733 z m 33.884,26.84 c -3.892,-1.417 -5.9,-5.721 -4.483,-9.613 l 3.975,-10.92 c 1.108,-3.046 3.984,-4.936 7.049,-4.936 0.853,0 1.718,0.146 2.565,0.454 3.891,1.417 5.898,5.72 4.481,9.613 l -3.974,10.92 c -1.416,3.891 -5.722,5.897 -9.613,4.482 M -25.225,98.468 -60.073,85.784 c -3.892,-1.417 -5.899,-5.721 -4.482,-9.613 1.108,-3.045 3.984,-4.937 7.049,-4.937 0.852,0 1.718,0.148 2.564,0.454 l 34.849,12.685 c 3.892,1.417 5.899,5.721 4.482,9.613 -1.416,3.89 -5.72,5.897 -9.614,4.482 m 221.394,-9.102 c 3.072,0 6.133,-0.673 8.999,-2.01 5.164,-2.406 9.079,-6.68 11.026,-12.033 v -10e-4 c 1.948,-5.351 1.696,-11.142 -0.711,-16.304 -2.407,-5.163 -6.681,-9.079 -12.034,-11.027 -11.047,-4.02 -23.31,1.696 -27.331,12.745 -4.023,11.049 1.694,23.31 12.745,27.332 2.38,0.866 4.846,1.298 7.306,1.298 M 169.086,35.483 c -11.049,-4.02 -23.31,1.697 -27.332,12.746 -1.948,5.353 -1.696,11.143 0.711,16.305 2.408,5.163 6.682,9.078 12.034,11.027 2.097,0.762 4.249,1.171 6.407,1.263 -1.756,-6.974 -1.398,-14.309 1.116,-21.219 2.573,-7.068 7.138,-12.837 12.818,-16.946 -1.721,-1.329 -3.644,-2.407 -5.754,-3.176 m -0.863,55.781 c -6.28,1.126 -12.807,0.594 -18.853,-1.608 -9.119,-3.318 -16.399,-9.988 -20.499,-18.783 -4.101,-8.794 -4.531,-18.658 -1.213,-27.775 5.363,-14.735 19.328,-23.904 34.171,-23.903 4.116,0 8.301,0.705 12.388,2.193 6.064,2.207 11.415,6.006 15.505,10.922 2.123,-0.386 4.284,-0.609 6.472,-0.609 4.116,0 8.301,0.705 12.388,2.193 9.117,3.319 16.396,9.989 20.498,18.783 4.099,8.794 4.53,18.658 1.211,27.774 -3.318,9.118 -9.988,16.398 -18.782,20.499 -8.795,4.1 -18.657,4.531 -27.775,1.212 -6.145,-2.234 -11.446,-5.995 -15.511,-10.898 m 7.863,43.144 -41.587,-15.137 c -4.584,-1.669 -9.543,-1.45 -13.962,0.61 -4.421,2.061 -7.773,5.721 -9.441,10.304 L 104.72,147.7 c -3.443,9.462 1.452,19.961 10.914,23.405 l 41.588,15.136 c 2.055,0.748 4.157,1.102 6.227,1.102 7.461,0 14.48,-4.609 17.177,-12.016 l 6.375,-17.516 c 3.443,-9.46 -1.453,-19.96 -10.915,-23.403 m 18.636,46.05 c -6.272,17.234 -25.398,26.15 -42.632,19.878 L 110.502,185.2 C 93.269,178.927 84.352,159.803 90.624,142.568 l 6.375,-17.514 c 3.039,-8.348 9.147,-15.013 17.198,-18.769 4.472,-2.085 9.245,-3.134 14.036,-3.134 3.837,0 7.685,0.673 11.396,2.023 l 41.587,15.137 c 17.234,6.272 26.151,25.397 19.88,42.631 z M -138.505,41.753 c 0.852,0 1.718,0.146 2.564,0.454 l 34.849,12.685 c 3.892,1.417 5.9,5.72 4.482,9.612 -1.417,3.892 -5.72,5.897 -9.613,4.482 l -34.849,-12.684 c -3.892,-1.417 -5.899,-5.721 -4.482,-9.613 1.108,-3.044 3.984,-4.936 7.049,-4.936 m -18.333,94.097 118.57,43.157 c 0.551,0.2 1.113,0.295 1.667,0.295 1.998,0 3.879,-1.234 4.601,-3.218 l 2.487,-6.834 c 0.001,-0.003 0.002,-0.006 0.004,-0.009 0.001,-0.002 0.002,-0.003 0.002,-0.005 l 2.488,-6.838 c 0.922,-2.532 -0.389,-5.344 -2.921,-6.267 h -10e-4 l -118.571,-43.156 c -2.534,-0.923 -5.346,0.389 -6.268,2.922 l -2.489,6.835 -0.002,0.009 c -0.001,0.003 -0.002,0.006 -0.004,0.008 l -2.489,6.835 c -0.92,2.533 0.391,5.344 2.926,6.266 M 276.634,71.198 200.659,279.939 c -7.365,20.232 -29.817,30.7 -50.048,23.338 L -207.313,173.003 c -20.232,-7.364 -30.703,-29.816 -23.338,-50.049 l 8.652,-23.771 0.001,-0.002 10e-4,-10e-4 47.984,-131.834 c 1.416,-3.892 5.72,-5.896 9.613,-4.482 3.892,1.417 5.9,5.721 4.483,9.614 l -45.419,124.786 36.543,13.3 c 2.992,-7.947 10.571,-12.886 18.628,-12.886 2.255,0 4.546,0.386 6.783,1.2 l 118.571,43.157 h -0.001 c 10.238,3.725 15.558,15.032 11.954,25.285 l 139.126,50.638 c 3.893,1.417 5.899,5.721 4.482,9.613 -1.417,3.892 -5.722,5.898 -9.613,4.482 L -17.989,181.415 c -3.829,10.17 -15.173,15.413 -25.409,11.688 l -118.571,-43.157 c -10.237,-3.725 -15.557,-15.032 -11.953,-25.284 l -36.546,-13.302 -6.087,16.726 c -2.197,6.035 -1.912,12.565 0.803,18.387 2.715,5.822 7.533,10.238 13.569,12.436 l 357.925,130.272 c 12.457,4.537 26.287,-1.912 30.821,-14.373 l 6.087,-16.725 -33.423,-12.166 c -3.894,-1.417 -5.899,-5.721 -4.482,-9.613 1.108,-3.046 3.984,-4.937 7.049,-4.937 0.852,0 1.718,0.146 2.564,0.454 l 33.423,12.166 64.758,-177.919 c 2.197,-6.035 1.912,-12.565 -0.804,-18.387 -2.715,-5.822 -7.532,-10.239 -13.569,-12.435 L -109.758,-95.027 c -12.458,-4.538 -26.287,1.913 -30.821,14.372 l -5.383,14.789 c -1.416,3.892 -5.72,5.897 -9.614,4.481 -3.893,-1.417 -5.899,-5.72 -4.482,-9.613 l 5.384,-14.788 c 5.766,-15.839 20.775,-25.694 36.731,-25.694 4.424,0.001 8.923,0.758 13.316,2.356 L 253.297,21.149 c 20.232,7.366 30.702,29.817 23.337,50.049 M 65.386,123.467 c -1.417,3.892 -5.72,5.896 -9.612,4.482 L 20.925,115.265 c -3.892,-1.417 -5.9,-5.722 -4.483,-9.614 1.109,-3.045 3.985,-4.937 7.05,-4.937 0.852,0 1.717,0.146 2.564,0.454 l 34.849,12.685 c 3.891,1.418 5.899,5.722 4.481,9.614 M -78.043,-17.342 c 0.852,0 1.717,0.147 2.564,0.454 3.892,1.417 5.898,5.722 4.481,9.614 l -3.975,10.92 c -1.416,3.892 -5.72,5.898 -9.613,4.482 -3.892,-1.417 -5.899,-5.721 -4.482,-9.613 l 3.975,-10.92 c 1.108,-3.044 3.984,-4.937 7.05,-4.937" /></g></g></g></g></svg>