<?xml version="1.0" encoding="UTF-8" standalone="no"?>
<svg
   xmlns:dc="http://purl.org/dc/elements/1.1/"
   xmlns:cc="http://creativecommons.org/ns#"
   xmlns:rdf="http://www.w3.org/1999/02/22-rdf-syntax-ns#"
   xmlns:svg="http://www.w3.org/2000/svg"
   xmlns="http://www.w3.org/2000/svg"
   viewBox="0 0 684.90265 676.62665"
   height="676.62665"
   width="684.90265"
   xml:space="preserve"
   id="svg2"
   version="1.1"><metadata
     id="metadata8"><rdf:RDF><cc:Work
         rdf:about=""><dc:format>image/svg+xml</dc:format><dc:type
           rdf:resource="http://purl.org/dc/dcmitype/StillImage" /></cc:Work></rdf:RDF></metadata><defs
     id="defs6"><clipPath
       id="clipPath18"
       clipPathUnits="userSpaceOnUse"><path
         id="path16"
         d="M 0,507.47 H 513.677 V 0 H 0 Z" /></clipPath><clipPath
       id="clipPath66"
       clipPathUnits="userSpaceOnUse"><path
         id="path64"
         d="M 0,507.47 H 513.677 V 0 H 0 Z" /></clipPath></defs><g
     transform="matrix(1.3333333,0,0,-1.3333333,0,676.62667)"
     id="g10"><g
       id="g12"><g
         clip-path="url(#clipPath18)"
         id="g14"><g
           transform="translate(496.8239,98.663)"
           id="g20"><path
             id="path22"
             style="fill:#000000;fill-opacity:1;fill-rule:nonzero;stroke:none"
             d="m 0,0 c 0,-10.085 -1.936,-35.818 -19.887,-56.877 -17.332,-20.327 -44.375,-30.632 -80.386,-30.632 -36.012,0 -63.061,10.305 -80.387,30.632 -17.952,21.059 -19.893,46.792 -19.893,56.877 v 167.778 c 0,10.085 1.941,35.819 19.893,56.877 17.326,20.327 44.375,30.631 80.387,30.631 36.011,0 63.054,-10.304 80.386,-30.631 C -1.936,203.597 0,177.863 0,167.778 Z m -100.273,271.714 c -86.141,0 -116.708,-55.989 -116.708,-103.936 V 0 c 0,-47.947 30.567,-103.937 116.708,-103.937 86.14,0 116.701,55.99 116.701,103.937 v 167.778 c 0,47.947 -30.561,103.936 -116.701,103.936" /></g><g
           transform="translate(496.8239,98.663)"
           id="g24"><path
             id="path26"
             style="fill:none;stroke:#1e0e00;stroke-width:3;stroke-linecap:butt;stroke-linejoin:miter;stroke-miterlimit:10;stroke-dasharray:none;stroke-opacity:1"
             d="m 0,0 c 0,-10.085 -1.936,-35.818 -19.887,-56.877 -17.332,-20.327 -44.375,-30.632 -80.386,-30.632 -36.012,0 -63.061,10.305 -80.387,30.632 -17.952,21.059 -19.893,46.792 -19.893,56.877 v 167.778 c 0,10.085 1.941,35.819 19.893,56.877 17.326,20.327 44.375,30.631 80.387,30.631 36.011,0 63.054,-10.304 80.386,-30.631 C -1.936,203.597 0,177.863 0,167.778 Z m -100.273,271.714 c -86.141,0 -116.708,-55.989 -116.708,-103.936 V 0 c 0,-47.947 30.567,-103.937 116.708,-103.937 86.14,0 116.701,55.99 116.701,103.937 v 167.778 c 0,47.947 -30.561,103.936 -116.701,103.936 z" /></g><g
           transform="translate(14.4279,393.6132)"
           id="g28"><path
             id="path30"
             style="fill:#000000;fill-opacity:1;fill-rule:nonzero;stroke:none"
             d="m 0,0 c 0,54.824 44.605,99.429 99.429,99.429 54.824,0 99.429,-44.605 99.429,-99.429 0,-54.824 -44.605,-99.429 -99.429,-99.429 C 44.605,-99.429 0,-54.824 0,0 m 311.448,99.429 c 34.438,0 62.46,-28.022 62.46,-62.46 V 1.406 c 0,-4.534 3.675,-8.214 8.215,-8.214 4.535,0 8.213,3.68 8.213,8.214 v 35.563 c 0,43.497 -35.391,78.888 -78.888,78.888 -43.497,0 -78.889,-35.204 -78.889,-78.471 v -218.714 c 0,-34.209 -28.017,-62.038 -62.455,-62.038 -34.444,0 -62.461,28.015 -62.461,62.456 v 65.352 c 60.065,4.225 107.644,54.44 107.644,115.558 0,63.883 -51.975,115.857 -115.858,115.857 C 35.546,115.857 -16.428,63.883 -16.428,0 c 0,-61.123 47.578,-111.333 107.643,-115.563 v -65.347 c 0,-43.499 35.386,-78.889 78.889,-78.889 43.497,0 78.883,35.202 78.883,78.465 v 218.72 c 0,34.209 28.022,62.043 62.461,62.043" /></g><g
           transform="translate(14.4279,393.6132)"
           id="g32"><path
             id="path34"
             style="fill:none;stroke:#1e0e00;stroke-width:3;stroke-linecap:butt;stroke-linejoin:miter;stroke-miterlimit:10;stroke-dasharray:none;stroke-opacity:1"
             d="m 0,0 c 0,54.824 44.605,99.429 99.429,99.429 54.824,0 99.429,-44.605 99.429,-99.429 0,-54.824 -44.605,-99.429 -99.429,-99.429 C 44.605,-99.429 0,-54.824 0,0 Z m 311.448,99.429 c 34.438,0 62.46,-28.022 62.46,-62.46 V 1.406 c 0,-4.534 3.675,-8.214 8.215,-8.214 4.535,0 8.213,3.68 8.213,8.214 v 35.563 c 0,43.497 -35.391,78.888 -78.888,78.888 -43.497,0 -78.889,-35.204 -78.889,-78.471 v -218.714 c 0,-34.209 -28.017,-62.038 -62.455,-62.038 -34.444,0 -62.461,28.015 -62.461,62.456 v 65.352 c 60.065,4.225 107.644,54.44 107.644,115.558 0,63.883 -51.975,115.857 -115.858,115.857 C 35.546,115.857 -16.428,63.883 -16.428,0 c 0,-61.123 47.578,-111.333 107.643,-115.563 v -65.347 c 0,-43.499 35.386,-78.889 78.889,-78.889 43.497,0 78.883,35.202 78.883,78.465 v 218.72 c 0,34.209 28.022,62.043 62.461,62.043 z" /></g><g
           transform="translate(113.8297,370.0678)"
           id="g36"><path
             id="path38"
             style="fill:#000000;fill-opacity:1;fill-rule:nonzero;stroke:none"
             d="m 0,0 c -3.412,0 -6.181,2.77 -6.181,6.183 0,4.534 -3.68,8.213 -8.214,8.213 -4.541,0 -8.214,-3.679 -8.214,-8.213 0,-9.569 5.979,-17.749 14.395,-21.045 v -3.524 c 0,-4.534 3.674,-8.214 8.214,-8.214 4.536,0 8.214,3.675 8.214,8.214 v 3.519 c 8.412,3.301 14.396,11.476 14.396,21.05 0,15.839 -12.898,21.887 -19.096,24.796 -7.572,3.556 -9.647,5.689 -9.647,9.931 0,3.406 2.775,6.181 6.186,6.181 3.408,0 6.183,-2.775 6.183,-6.181 0,-4.541 3.68,-8.214 8.214,-8.214 4.535,0 8.214,3.673 8.214,8.214 0,9.567 -5.984,17.743 -14.396,21.043 v 3.518 c 0,4.54 -3.679,8.214 -8.215,8.214 -4.539,0 -8.214,-3.674 -8.214,-8.208 v -3.524 c -8.416,-3.3 -14.4,-11.476 -14.4,-21.049 0,-15.841 12.898,-21.888 19.096,-24.797 C 4.107,12.551 6.183,10.417 6.183,6.183 6.183,2.775 3.408,0 0,0" /></g><g
           transform="translate(113.8297,370.0678)"
           id="g40"><path
             id="path42"
             style="fill:none;stroke:#1e0e00;stroke-width:3;stroke-linecap:butt;stroke-linejoin:miter;stroke-miterlimit:10;stroke-dasharray:none;stroke-opacity:1"
             d="m 0,0 c -3.412,0 -6.181,2.77 -6.181,6.183 0,4.534 -3.68,8.213 -8.214,8.213 -4.541,0 -8.214,-3.679 -8.214,-8.213 0,-9.569 5.979,-17.749 14.395,-21.045 v -3.524 c 0,-4.534 3.674,-8.214 8.214,-8.214 4.536,0 8.214,3.675 8.214,8.214 v 3.519 c 8.412,3.301 14.396,11.476 14.396,21.05 0,15.839 -12.898,21.887 -19.096,24.796 -7.572,3.556 -9.647,5.689 -9.647,9.931 0,3.406 2.775,6.181 6.186,6.181 3.408,0 6.183,-2.775 6.183,-6.181 0,-4.541 3.68,-8.214 8.214,-8.214 4.535,0 8.214,3.673 8.214,8.214 0,9.567 -5.984,17.743 -14.396,21.043 v 3.518 c 0,4.54 -3.679,8.214 -8.215,8.214 -4.539,0 -8.214,-3.674 -8.214,-8.208 v -3.524 c -8.416,-3.3 -14.4,-11.476 -14.4,-21.049 0,-15.841 12.898,-21.888 19.096,-24.797 C 4.107,12.551 6.183,10.417 6.183,6.183 6.183,2.775 3.408,0 0,0 Z" /></g><g
           transform="translate(196.858,393.6132)"
           id="g44"><path
             id="path46"
             style="fill:#000000;fill-opacity:1;fill-rule:nonzero;stroke:none"
             d="m 0,0 c 0,45.766 -37.235,83.001 -83.001,83.001 -18.936,0 -37.465,-6.572 -52.177,-18.509 -14.492,-11.748 -24.712,-28.177 -28.781,-46.261 -1,-4.423 1.781,-8.819 6.208,-9.813 4.429,-1.001 8.819,1.78 9.818,6.208 6.776,30.097 34.081,51.947 64.932,51.947 36.706,0 66.573,-29.866 66.573,-66.573 0,-36.706 -29.867,-66.573 -66.573,-66.573 -30.851,0 -58.156,21.85 -64.932,51.952 -0.999,4.423 -5.395,7.209 -9.818,6.21 -4.427,-1.001 -7.208,-5.397 -6.208,-9.818 4.069,-18.086 14.289,-34.515 28.776,-46.263 14.717,-11.937 33.246,-18.509 52.182,-18.509 C -37.235,-83.001 0,-45.766 0,0" /></g><g
           transform="translate(196.858,393.6132)"
           id="g48"><path
             id="path50"
             style="fill:none;stroke:#1e0e00;stroke-width:3;stroke-linecap:butt;stroke-linejoin:miter;stroke-miterlimit:10;stroke-dasharray:none;stroke-opacity:1"
             d="m 0,0 c 0,45.766 -37.235,83.001 -83.001,83.001 -18.936,0 -37.465,-6.572 -52.177,-18.509 -14.492,-11.748 -24.712,-28.177 -28.781,-46.261 -1,-4.423 1.781,-8.819 6.208,-9.813 4.429,-1.001 8.819,1.78 9.818,6.208 6.776,30.097 34.081,51.947 64.932,51.947 36.706,0 66.573,-29.866 66.573,-66.573 0,-36.706 -29.867,-66.573 -66.573,-66.573 -30.851,0 -58.156,21.85 -64.932,51.952 -0.999,4.423 -5.395,7.209 -9.818,6.21 -4.427,-1.001 -7.208,-5.397 -6.208,-9.818 4.069,-18.086 14.289,-34.515 28.776,-46.263 14.717,-11.937 33.246,-18.509 52.182,-18.509 C -37.235,-83.001 0,-45.766 0,0 Z" /></g><g
           transform="translate(383.609,247.5146)"
           id="g52"><path
             id="path54"
             style="fill:#000000;fill-opacity:1;fill-rule:nonzero;stroke:none"
             d="m 0,0 v 38.985 c 0,7.134 5.802,12.942 12.941,12.942 7.134,0 12.936,-5.808 12.936,-12.942 L 25.877,0 c 0,-7.138 -5.802,-12.94 -12.936,-12.94 C 5.802,-12.94 0,-7.138 0,0 m 21.155,-56.749 v 28.558 c 12.203,3.56 21.15,14.849 21.15,28.191 v 38.985 c 0,13.343 -8.947,24.631 -21.15,28.194 v 14.613 c 0,4.541 -3.678,8.215 -8.214,8.215 -4.539,0 -8.214,-3.674 -8.214,-8.215 V 67.179 C -7.481,63.616 -16.428,52.328 -16.428,38.985 V 0 c 0,-13.342 8.947,-24.631 21.155,-28.191 v -28.558 h -67.423 c -4.535,0 -8.214,-3.679 -8.214,-8.214 0,-4.534 3.679,-8.214 8.214,-8.214 H 88.573 c 4.541,0 8.214,3.68 8.214,8.214 0,4.535 -3.673,8.214 -8.214,8.214 z" /></g><g
           transform="translate(383.609,247.5146)"
           id="g56"><path
             id="path58"
             style="fill:none;stroke:#1e0e00;stroke-width:3;stroke-linecap:butt;stroke-linejoin:miter;stroke-miterlimit:10;stroke-dasharray:none;stroke-opacity:1"
             d="m 0,0 v 38.985 c 0,7.134 5.802,12.942 12.941,12.942 7.134,0 12.936,-5.808 12.936,-12.942 L 25.877,0 c 0,-7.138 -5.802,-12.94 -12.936,-12.94 C 5.802,-12.94 0,-7.138 0,0 Z m 21.155,-56.749 v 28.558 c 12.203,3.56 21.15,14.849 21.15,28.191 v 38.985 c 0,13.343 -8.947,24.631 -21.15,28.194 v 14.613 c 0,4.541 -3.678,8.215 -8.214,8.215 -4.539,0 -8.214,-3.674 -8.214,-8.215 V 67.179 C -7.481,63.616 -16.428,52.328 -16.428,38.985 V 0 c 0,-13.342 8.947,-24.631 21.155,-28.191 v -28.558 h -67.423 c -4.535,0 -8.214,-3.679 -8.214,-8.214 0,-4.534 3.679,-8.214 8.214,-8.214 H 88.573 c 4.541,0 8.214,3.68 8.214,8.214 0,4.535 -3.673,8.214 -8.214,8.214 z" /></g></g></g><g
       id="g60"><g
         clip-path="url(#clipPath66)"
         id="g62"><g
           transform="translate(396.8282,5.9999)"
           id="g68"><path
             id="path70"
             style="fill:none;stroke:#ffffff;stroke-width:12;stroke-linecap:round;stroke-linejoin:round;stroke-miterlimit:10;stroke-dasharray:none;stroke-opacity:1"
             d="m 0,0 v 0 c -61.221,0 -110.849,49.629 -110.849,110.849 v 137.635 c 0,61.221 49.628,110.849 110.849,110.849 v 0 c 61.22,0 110.849,-49.628 110.849,-110.849 V 110.849 C 110.849,49.629 61.22,0 0,0 Z" /></g><g
           transform="translate(396.7135,222.0253)"
           id="g72"><path
             id="path74"
             style="fill:none;stroke:#ffffff;stroke-width:12;stroke-linecap:round;stroke-linejoin:round;stroke-miterlimit:10;stroke-dasharray:none;stroke-opacity:1"
             d="M 0,0 V -35.858" /></g><g
           transform="translate(396.7135,334.8373)"
           id="g76"><path
             id="path78"
             style="fill:none;stroke:#ffffff;stroke-width:12;stroke-linecap:round;stroke-linejoin:round;stroke-miterlimit:10;stroke-dasharray:none;stroke-opacity:1"
             d="M 0,0 V -23.741" /></g><g
           transform="translate(310.8502,185.2021)"
           id="g80"><path
             id="path82"
             style="fill:none;stroke:#ffffff;stroke-width:12;stroke-linecap:round;stroke-linejoin:round;stroke-miterlimit:10;stroke-dasharray:none;stroke-opacity:1"
             d="M 0,0 H 171.721" /></g><g
           transform="translate(396.3658,222.0253)"
           id="g84"><path
             id="path86"
             style="fill:none;stroke:#ffffff;stroke-width:12;stroke-linecap:round;stroke-linejoin:round;stroke-miterlimit:10;stroke-dasharray:none;stroke-opacity:1"
             d="m 0,0 h -0.004 c -15.624,0 -28.289,12.666 -28.289,28.29 v 32.491 c 0,15.625 12.665,28.291 28.289,28.291 H 0 c 15.625,0 28.29,-12.666 28.29,-28.291 V 28.29 C 28.29,12.666 15.625,0 0,0 Z" /></g><g
           transform="translate(221.9464,393.4975)"
           id="g88"><path
             id="path90"
             style="fill:none;stroke:#ffffff;stroke-width:12;stroke-linecap:round;stroke-linejoin:round;stroke-miterlimit:10;stroke-dasharray:none;stroke-opacity:1"
             d="m 0,0 c 0,-59.632 -48.341,-107.973 -107.973,-107.973 -59.632,0 -107.973,48.341 -107.973,107.973 0,59.632 48.341,107.973 107.973,107.973 C -48.341,107.973 0,59.632 0,0 Z" /></g><g
           transform="translate(39.8678,407.6864)"
           id="g92"><path
             id="path94"
             style="fill:none;stroke:#ffffff;stroke-width:12;stroke-linecap:round;stroke-linejoin:round;stroke-miterlimit:10;stroke-dasharray:none;stroke-opacity:1"
             d="m 0,0 c 6.664,34.611 37.113,60.756 73.669,60.756 41.435,0 75.024,-33.589 75.024,-75.024 0,-41.435 -33.589,-75.024 -75.024,-75.024 -36.906,0 -67.588,26.649 -73.854,61.754" /></g><g
           transform="translate(113.7765,285.5243)"
           id="g96"><path
             id="path98"
             style="fill:none;stroke:#ffffff;stroke-width:12;stroke-linecap:round;stroke-linejoin:round;stroke-miterlimit:10;stroke-dasharray:none;stroke-opacity:1"
             d="m 0,0 v -72.379 c 0,-39.053 30.854,-70.75 69.907,-70.75 h 0.007 c 39.052,0 70.71,31.657 70.71,70.71 v -2.877 219.919 c 0,39.052 31.658,70.71 70.71,70.71 h 0.007 c 39.053,0 70.71,-31.658 70.71,-70.71 v -1.709 l -0.28,-37.984" /></g><g
           transform="translate(129.0914,411.2616)"
           id="g100"><path
             id="path102"
             style="fill:none;stroke:#ffffff;stroke-width:12;stroke-linecap:round;stroke-linejoin:round;stroke-miterlimit:10;stroke-dasharray:none;stroke-opacity:1"
             d="m 0,0 c 0,8.174 -6.626,14.8 -14.8,14.8 h -0.008 C -22.981,14.8 -29.735,8.173 -29.607,0 -29.274,-21.367 0,-16.033 0,-34.066 0,-42.24 -6.626,-48.867 -14.8,-48.867 h -0.008 c -8.173,0 -14.799,6.627 -14.799,14.801" /></g><g
           transform="translate(113.8571,361.8959)"
           id="g104"><path
             id="path106"
             style="fill:none;stroke:#ffffff;stroke-width:12;stroke-linecap:round;stroke-linejoin:round;stroke-miterlimit:10;stroke-dasharray:none;stroke-opacity:1"
             d="M 0,0 V -13.834" /></g><g
           transform="translate(113.8571,438.8949)"
           id="g108"><path
             id="path110"
             style="fill:none;stroke:#ffffff;stroke-width:12;stroke-linecap:round;stroke-linejoin:round;stroke-miterlimit:10;stroke-dasharray:none;stroke-opacity:1"
             d="M 0,0 V -12.5" /></g></g></g></g></svg>