<?xml version="1.0" encoding="UTF-8" standalone="no"?>
<svg
   xmlns:dc="http://purl.org/dc/elements/1.1/"
   xmlns:cc="http://creativecommons.org/ns#"
   xmlns:rdf="http://www.w3.org/1999/02/22-rdf-syntax-ns#"
   xmlns:svg="http://www.w3.org/2000/svg"
   xmlns="http://www.w3.org/2000/svg"
   viewBox="0 0 60 60"
   height="60"
   width="60"
   xml:space="preserve"
   id="svg2"
   version="1.1"><metadata
     id="metadata8"><rdf:RDF><cc:Work
         rdf:about=""><dc:format>image/svg+xml</dc:format><dc:type
           rdf:resource="http://purl.org/dc/dcmitype/StillImage" /></cc:Work></rdf:RDF></metadata><defs
     id="defs6"><clipPath
       id="clipPath18"
       clipPathUnits="userSpaceOnUse"><path
         id="path16"
         d="M 0,45 H 45 V 0 H 0 Z" /></clipPath></defs><g
     transform="matrix(1.3333333,0,0,-1.3333333,0,60)"
     id="g10"><g
       id="g12"><g
         clip-path="url(#clipPath18)"
         id="g14"><g
           transform="translate(22.4996,1.7925)"
           id="g20"><path
             id="path22"
             style="fill:#010101;fill-opacity:1;fill-rule:nonzero;stroke:none"
             d="m 0,0 c -11.418,0 -20.707,9.289 -20.707,20.707 0,11.418 9.289,20.708 20.707,20.708 11.418,0 20.708,-9.29 20.708,-20.708 C 20.708,9.289 11.418,0 0,0 m 15.91,36.617 c -4.25,4.25 -9.899,6.59 -15.91,6.59 -6.01,0 -11.66,-2.34 -15.909,-6.59 -4.25,-4.249 -6.591,-9.899 -6.591,-15.91 0,-6.01 2.341,-11.66 6.591,-15.909 4.249,-4.25 9.899,-6.591 15.909,-6.591 6.011,0 11.66,2.341 15.91,6.591 4.25,4.249 6.59,9.899 6.59,15.909 0,6.011 -2.34,11.661 -6.59,15.91" /></g><g
           transform="translate(31.192,9.1119)"
           id="g24"><path
             id="path26"
             style="fill:#010101;fill-opacity:1;fill-rule:nonzero;stroke:none"
             d="M 0,0 -1.386,2.4 C -1.616,2.799 -2.126,2.936 -2.524,2.705 -2.923,2.476 -3.06,1.966 -2.829,1.567 l 1.388,-2.404 C -3.386,-1.831 -5.559,-2.439 -7.858,-2.558 V 0.22 c 0,0.46 -0.373,0.833 -0.834,0.833 -0.46,0 -0.833,-0.373 -0.833,-0.833 v -2.778 c -2.3,0.119 -4.473,0.727 -6.417,1.721 l 1.387,2.404 c 0.231,0.399 0.094,0.909 -0.304,1.138 -0.399,0.231 -0.909,0.094 -1.139,-0.305 L -17.384,0 c -1.874,1.221 -3.475,2.822 -4.696,4.696 l 2.4,1.386 c 0.399,0.23 0.535,0.74 0.305,1.139 -0.229,0.398 -0.739,0.535 -1.138,0.304 l -2.404,-1.387 c -0.994,1.943 -1.603,4.117 -1.721,6.417 h 2.778 c 0.46,0 0.833,0.373 0.833,0.833 0,0.461 -0.373,0.834 -0.833,0.834 h -2.778 c 0.118,2.299 0.727,4.472 1.721,6.417 l 2.404,-1.388 c 0.131,-0.076 0.275,-0.112 0.416,-0.112 0.288,0 0.568,0.149 0.722,0.417 0.23,0.398 0.094,0.908 -0.305,1.138 l -2.4,1.386 c 1.221,1.873 2.822,3.476 4.696,4.696 l 1.386,-2.4 c 0.154,-0.268 0.435,-0.417 0.723,-0.417 0.141,0 0.284,0.036 0.416,0.111 0.398,0.231 0.535,0.741 0.304,1.139 l -1.387,2.403 c 1.943,0.995 4.117,1.604 6.417,1.722 v -2.777 c 0,-0.46 0.373,-0.833 0.833,-0.833 0.461,0 0.834,0.373 0.834,0.833 v 2.777 c 2.299,-0.118 4.472,-0.727 6.417,-1.722 l -1.388,-2.403 c -0.231,-0.398 -0.094,-0.908 0.305,-1.139 0.13,-0.075 0.274,-0.111 0.416,-0.111 0.288,0 0.568,0.149 0.722,0.417 L 0,26.776 c 1.873,-1.22 3.476,-2.823 4.696,-4.696 l -2.4,-1.386 c -0.399,-0.23 -0.535,-0.74 -0.306,-1.138 0.155,-0.268 0.435,-0.417 0.723,-0.417 0.141,0 0.285,0.036 0.416,0.112 l 2.403,1.388 C 6.527,18.694 7.135,16.521 7.254,14.222 H 4.477 c -0.46,0 -0.833,-0.373 -0.833,-0.834 0,-0.46 0.373,-0.833 0.833,-0.833 H 7.254 C 7.135,10.255 6.527,8.082 5.532,6.138 L 3.129,7.525 C 2.73,7.756 2.221,7.619 1.99,7.221 1.761,6.822 1.897,6.312 2.296,6.082 l 2.4,-1.386 C 3.476,2.823 1.873,1.221 0,0 m -8.692,31.022 c -9.724,0 -17.634,-7.91 -17.634,-17.634 0,-9.724 7.91,-17.634 17.634,-17.634 9.724,0 17.634,7.91 17.634,17.634 0,9.724 -7.91,17.634 -17.634,17.634" /></g><g
           transform="translate(22.4996,21.7007)"
           id="g28"><path
             id="path30"
             style="fill:#010101;fill-opacity:1;fill-rule:nonzero;stroke:none"
             d="M 0,0 C -0.44,0 -0.799,0.358 -0.799,0.799 -0.799,1.24 -0.44,1.598 0,1.598 0.44,1.598 0.799,1.24 0.799,0.799 0.799,0.358 0.44,0 0,0 M 0.834,3.12 V 8.467 C 0.834,8.928 0.461,9.301 0,9.301 -0.46,9.301 -0.833,8.928 -0.833,8.467 V 3.12 C -1.784,2.777 -2.465,1.866 -2.465,0.799 c 0,-0.606 0.22,-1.161 0.584,-1.591 l -1.323,-2.292 c -0.23,-0.398 -0.093,-0.908 0.306,-1.138 0.13,-0.076 0.274,-0.112 0.416,-0.112 0.288,0 0.568,0.149 0.722,0.417 l 1.323,2.29 c 0.141,-0.025 0.288,-0.039 0.437,-0.039 1.36,0 2.466,1.105 2.466,2.465 0,1.067 -0.682,1.978 -1.632,2.321" /></g><g
           transform="translate(22.4996,31.7515)"
           id="g32"><path
             id="path34"
             style="fill:#010101;fill-opacity:1;fill-rule:nonzero;stroke:none"
             d="M 0,0 C 0.461,0 0.834,0.373 0.834,0.833 V 1.167 C 0.834,1.627 0.461,2 0,2 -0.46,2 -0.833,1.627 -0.833,1.167 V 0.833 C -0.833,0.373 -0.46,0 0,0" /></g></g></g></g></svg>