<?xml version="1.0" encoding="UTF-8" standalone="no"?>
<svg
   xmlns:dc="http://purl.org/dc/elements/1.1/"
   xmlns:cc="http://creativecommons.org/ns#"
   xmlns:rdf="http://www.w3.org/1999/02/22-rdf-syntax-ns#"
   xmlns:svg="http://www.w3.org/2000/svg"
   xmlns="http://www.w3.org/2000/svg"
   viewBox="0 0 44.802666 64"
   height="64"
   width="44.802666"
   xml:space="preserve"
   id="svg2"
   version="1.1"><metadata
     id="metadata8"><rdf:RDF><cc:Work
         rdf:about=""><dc:format>image/svg+xml</dc:format><dc:type
           rdf:resource="http://purl.org/dc/dcmitype/StillImage" /></cc:Work></rdf:RDF></metadata><defs
     id="defs6"><clipPath
       id="clipPath18"
       clipPathUnits="userSpaceOnUse"><path
         id="path16"
         d="M 0,48 H 33.602 V 0 H 0 Z" /></clipPath></defs><g
     transform="matrix(1.3333333,0,0,-1.3333333,0,64)"
     id="g10"><g
       id="g12"><g
         clip-path="url(#clipPath18)"
         id="g14"><g
           transform="translate(32.0004,3.8476)"
           id="g20"><path
             id="path22"
             style="fill:#231200;fill-opacity:1;fill-rule:nonzero;stroke:none"
             d="M 0,0 C 0,-1.238 -1.009,-2.245 -2.246,-2.245 H -30.398 V 42.551 H -2.246 C -1.009,42.551 0,41.543 0,40.305 Z m -2.246,44.152 h -28.953 c -0.443,0 -0.801,-0.359 -0.801,-0.8 V -3.047 c 0,-0.441 0.358,-0.801 0.801,-0.801 h 28.953 c 2.121,0 3.848,1.728 3.848,3.848 v 40.305 c 0,2.121 -1.727,3.847 -3.848,3.847" /></g><g
           transform="translate(23.977,30.3984)"
           id="g24"><path
             id="path26"
             style="fill:#231200;fill-opacity:1;fill-rule:nonzero;stroke:none"
             d="M 0,0 C -0.086,1.887 -0.477,3.719 -1.145,5.437 -0.067,5.84 0.964,6.355 1.953,6.969 3.574,5.066 4.605,2.648 4.781,0 Z m 2.195,-8.27 c -1.012,0.657 -2.078,1.204 -3.188,1.633 0.575,1.602 0.914,3.298 0.993,5.039 H 4.781 C 4.617,-4.109 3.679,-6.414 2.195,-8.27 m -6.758,-4.233 c 1.215,1.312 2.211,2.793 2.961,4.386 0.937,-0.36 1.844,-0.809 2.703,-1.347 -1.551,-1.481 -3.496,-2.556 -5.664,-3.039 m -1.812,5.39 c 1.101,-0.055 2.183,-0.227 3.234,-0.508 -0.797,-1.645 -1.887,-3.152 -3.234,-4.449 z m 0,5.515 h 4.777 c -0.078,-1.57 -0.395,-3.093 -0.918,-4.535 -1.25,0.348 -2.543,0.559 -3.859,0.617 z m 0,5.973 c 1.261,0.059 2.503,0.25 3.707,0.579 C -2.051,3.387 -1.684,1.719 -1.598,0 h -4.777 z m 0,6.098 c 1.234,-1.187 2.257,-2.555 3.031,-4.047 -0.988,-0.25 -2,-0.399 -3.031,-0.453 z M 0.804,8.137 C -0.024,7.645 -0.895,7.234 -1.793,6.906 c -0.723,1.449 -1.653,2.793 -2.77,4 2.031,-0.452 3.867,-1.426 5.367,-2.769 M -7.977,5.973 c -1.031,0.054 -2.047,0.203 -3.035,0.453 0.777,1.492 1.797,2.86 3.035,4.047 z m 0,-5.973 h -4.777 c 0.086,1.719 0.453,3.387 1.07,4.954 1.203,-0.329 2.445,-0.52 3.707,-0.579 z m 0,-5.516 c -1.32,-0.058 -2.609,-0.269 -3.863,-0.617 -0.524,1.442 -0.836,2.965 -0.914,4.535 h 4.777 z m 0,-6.554 c -1.348,1.297 -2.438,2.8 -3.234,4.449 1.05,0.281 2.132,0.453 3.234,0.508 z m -7.477,2.606 c 0.86,0.538 1.766,0.987 2.704,1.347 0.746,-1.593 1.746,-3.074 2.961,-4.386 -2.168,0.483 -4.114,1.558 -5.665,3.039 m -1.097,1.194 c -1.481,1.856 -2.418,4.157 -2.586,6.672 h 4.781 c 0.082,-1.741 0.418,-3.437 0.996,-5.039 -1.113,-0.429 -2.179,-0.976 -3.191,-1.633 m 0.246,15.239 C -15.321,6.355 -14.286,5.84 -13.211,5.437 -13.875,3.719 -14.27,1.887 -14.356,0 h -4.781 c 0.176,2.648 1.207,5.066 2.832,6.969 m 6.516,3.937 c -1.118,-1.207 -2.047,-2.551 -2.774,-4 -0.894,0.328 -1.766,0.739 -2.594,1.231 1.5,1.343 3.332,2.317 5.368,2.769 M 2.765,8.465 C 2.742,8.497 2.707,8.516 2.679,8.543 c -2.347,2.48 -5.613,4.066 -9.25,4.227 l -0.023,0.02 -0.582,0.011 -0.586,-0.011 -0.02,-0.02 c -3.636,-0.161 -6.902,-1.747 -9.25,-4.223 -0.027,-0.031 -0.062,-0.05 -0.086,-0.086 -0.004,-0.004 -0.004,-0.012 -0.011,-0.02 -2.254,-2.429 -3.649,-5.671 -3.649,-9.237 0,-3.434 1.289,-6.567 3.395,-8.962 0.008,-0.012 0.008,-0.027 0.015,-0.038 0.036,-0.048 0.086,-0.079 0.125,-0.118 2.364,-2.606 5.715,-4.289 9.461,-4.453 l 0.02,-0.02 0.586,-0.011 0.582,0.015 0.023,0.016 c 3.766,0.168 7.133,1.867 9.496,4.496 0.028,0.027 0.063,0.043 0.086,0.075 0.008,0.011 0.012,0.026 0.02,0.038 2.105,2.395 3.39,5.528 3.39,8.962 0,3.566 -1.39,6.808 -3.648,9.237 C 2.769,8.449 2.769,8.457 2.765,8.465" /></g><g
           transform="translate(28.8012,11.9999)"
           id="g28"><path
             id="path30"
             style="fill:#231200;fill-opacity:1;fill-rule:nonzero;stroke:none"
             d="m 0,0 h -24 c -0.442,0 -0.801,-0.359 -0.801,-0.801 0,-0.441 0.359,-0.801 0.801,-0.801 H 0 c 0.44,0 0.801,0.36 0.801,0.801 C 0.801,-0.359 0.44,0 0,0" /></g><g
           transform="translate(28.8012,7.9999)"
           id="g32"><path
             id="path34"
             style="fill:#231200;fill-opacity:1;fill-rule:nonzero;stroke:none"
             d="m 0,0 h -24 c -0.442,0 -0.801,-0.359 -0.801,-0.801 0,-0.441 0.359,-0.801 0.801,-0.801 H 0 c 0.44,0 0.801,0.36 0.801,0.801 C 0.801,-0.359 0.44,0 0,0" /></g></g></g></g></svg>