<?xml version="1.0" encoding="UTF-8" standalone="no"?>
<svg
   xmlns:dc="http://purl.org/dc/elements/1.1/"
   xmlns:cc="http://creativecommons.org/ns#"
   xmlns:rdf="http://www.w3.org/1999/02/22-rdf-syntax-ns#"
   xmlns:svg="http://www.w3.org/2000/svg"
   xmlns="http://www.w3.org/2000/svg"
   viewBox="0 0 467.07599 435.948"
   height="435.948"
   width="467.07599"
   xml:space="preserve"
   id="svg2"
   version="1.1"><metadata
     id="metadata8"><rdf:RDF><cc:Work
         rdf:about=""><dc:format>image/svg+xml</dc:format><dc:type
           rdf:resource="http://purl.org/dc/dcmitype/StillImage" /></cc:Work></rdf:RDF></metadata><defs
     id="defs6"><clipPath
       id="clipPath24"
       clipPathUnits="userSpaceOnUse"><path
         id="path22"
         d="M 0,326.961 H 350.307 V 0 H 0 Z" /></clipPath></defs><g
     transform="matrix(1.3333333,0,0,-1.3333333,0,435.948)"
     id="g10"><path
       id="path12"
       style="fill:#231200;fill-opacity:1;fill-rule:nonzero;stroke:none"
       d="M 64.23,233.538 H 87.577 V 198.5 H 64.23 Z M 52.539,186.845 H 99.268 V 245.23 H 52.539 Z" /><path
       id="path14"
       style="fill:#231200;fill-opacity:1;fill-rule:nonzero;stroke:none"
       d="M 64.23,163.499 H 87.577 V 128.461 H 64.23 Z M 52.539,116.77 h 46.729 v 58.384 H 52.539 Z" /><path
       id="path16"
       style="fill:#231200;fill-opacity:1;fill-rule:nonzero;stroke:none"
       d="M 64.23,93.423 H 87.577 V 58.385 H 64.23 Z M 52.539,46.73 h 46.729 v 58.385 H 52.539 Z" /><g
       id="g18"><g
         clip-path="url(#clipPath24)"
         id="g20"><g
           transform="translate(210.1918,192.6909)"
           id="g26"><path
             id="path28"
             style="fill:#231200;fill-opacity:1;fill-rule:nonzero;stroke:none"
             d="m 0,0 c -3.226,0 -5.846,-2.627 -5.846,-5.846 v -52.538 c 0,-3.255 2.62,-5.846 5.846,-5.846 3.219,0 5.846,2.591 5.846,5.846 V -5.846 C 5.846,-2.627 3.219,0 0,0" /></g><g
           transform="translate(210.1918,116.7696)"
           id="g30"><path
             id="path32"
             style="fill:#231200;fill-opacity:1;fill-rule:nonzero;stroke:none"
             d="m 0,0 c -3.226,0 -5.846,-2.591 -5.846,-5.847 v -52.538 c 0,-3.219 2.62,-5.845 5.846,-5.845 3.219,0 5.846,2.626 5.846,5.845 V -5.847 C 5.846,-2.591 3.219,0 0,0" /></g><g
           transform="translate(180.9994,192.6909)"
           id="g34"><path
             id="path36"
             style="fill:#231200;fill-opacity:1;fill-rule:nonzero;stroke:none"
             d="m 0,0 c -3.226,0 -5.846,-2.627 -5.846,-5.846 v -5.845 c 0,-3.219 2.62,-5.846 5.846,-5.846 3.219,0 5.846,2.627 5.846,5.846 v 5.845 C 5.846,-2.627 3.219,0 0,0" /></g><g
           transform="translate(180.9994,163.4991)"
           id="g38"><path
             id="path40"
             style="fill:#231200;fill-opacity:1;fill-rule:nonzero;stroke:none"
             d="m 0,0 c -3.226,0 -5.846,-2.628 -5.846,-5.846 v -11.692 c 0,-3.218 2.62,-5.845 5.846,-5.845 3.219,0 5.846,2.627 5.846,5.845 V -5.846 C 5.846,-2.628 3.219,0 0,0" /></g><g
           transform="translate(180.9994,128.461)"
           id="g42"><path
             id="path44"
             style="fill:#231200;fill-opacity:1;fill-rule:nonzero;stroke:none"
             d="m 0,0 c -3.226,0 -5.846,-2.628 -5.846,-5.846 v -5.845 c 0,-3.219 2.62,-5.847 5.846,-5.847 3.219,0 5.846,2.628 5.846,5.847 v 5.845 C 5.846,-2.628 3.219,0 0,0" /></g><g
           transform="translate(180.9994,99.2686)"
           id="g46"><path
             id="path48"
             style="fill:#231200;fill-opacity:1;fill-rule:nonzero;stroke:none"
             d="m 0,0 c -3.226,0 -5.846,-2.628 -5.846,-5.846 v -11.692 c 0,-3.218 2.62,-5.809 5.846,-5.809 3.219,0 5.846,2.591 5.846,5.809 V -5.846 C 5.846,-2.628 3.219,0 0,0" /></g><g
           transform="translate(176.8324,62.5518)"
           id="g50"><path
             id="path52"
             style="fill:#231200;fill-opacity:1;fill-rule:nonzero;stroke:none"
             d="m 0,0 c -1.051,-1.117 -1.679,-2.656 -1.679,-4.167 0,-1.511 0.628,-3.021 1.679,-4.131 1.116,-1.058 2.656,-1.715 4.167,-1.715 1.569,0 3.021,0.657 4.131,1.715 1.058,1.11 1.715,2.562 1.715,4.131 0,1.511 -0.657,3.05 -1.715,4.167 C 6.13,2.131 2.226,2.131 0,0" /></g><g
           transform="translate(268.5765,297.7686)"
           id="g54"><path
             id="path56"
             style="fill:#231200;fill-opacity:1;fill-rule:nonzero;stroke:none"
             d="m 0,0 h -5.846 v 11.692 h -245.23 V 0 h -5.809 V 17.501 H 0 Z m -93.423,-11.691 h -10.181 c -0.51,0 -0.992,-0.081 -1.51,-0.139 V 0 h 11.691 z m 35.038,-56.874 v 20.361 c 0,7.269 -5.904,13.166 -13.173,13.166 h -32.046 c -0.824,0 -1.51,0.686 -1.51,1.481 v 8.729 c 0,0.796 0.686,1.482 1.51,1.482 h 55.393 c 0.832,0 1.482,-0.686 1.482,-1.482 v -43.737 c 0,-0.825 -0.65,-1.511 -1.482,-1.511 h -8.692 c -0.825,0 -1.482,0.686 -1.482,1.511 m -23.346,21.872 h 10.173 c 0.825,0 1.482,-0.686 1.482,-1.511 v -20.361 c 0,-0.511 0.088,-0.993 0.175,-1.511 h -11.83 z m -21.873,-23.383 c -0.824,0 -1.51,0.686 -1.51,1.511 v 22.011 c 0.518,-0.059 1,-0.139 1.51,-0.139 h 10.181 V -70.076 Z M -46.729,0 v -11.83 c -0.483,0.058 -0.964,0.139 -1.482,0.139 H -58.385 V 0 Z M -70.076,-11.691 H -81.731 V 0 h 11.655 z M -204.347,0 H -181 v -29.192 h -23.347 z m 186.81,-273.138 c 0,-7.152 -5.787,-12.939 -12.94,-12.939 h -195.968 c -7.123,0 -12.939,5.787 -12.939,12.939 V 0 h 23.346 v -40.884 h 46.73 V 0 h 52.538 v -68.565 c 0,-7.269 5.897,-13.166 13.166,-13.166 h 55.393 c 7.269,0 13.173,5.897 13.173,13.166 V 0 h 17.501 z m 29.192,302.33 h -280.232 v -40.883 h 17.501 v -261.447 c 0,-13.567 11.064,-24.631 24.631,-24.631 h 195.968 c 13.596,0 24.631,11.064 24.631,24.631 v 261.447 h 17.501 z" /></g><g
           transform="translate(270.2836,130.1397)"
           id="g58"><path
             id="path60"
             style="fill:#231200;fill-opacity:1;fill-rule:nonzero;stroke:none"
             d="m 0,0 c 2.284,-2.284 5.992,-2.284 8.27,0 l 25.061,25.083 v -149.377 c 0,-3.255 2.591,-5.846 5.846,-5.846 3.219,0 5.808,2.591 5.808,5.846 V 25.083 L 70.077,0 c 2.277,-2.284 5.955,-2.284 8.239,0 2.277,2.276 2.277,5.984 0,8.269 l -35.008,35.03 c -0.54,0.548 -1.198,0.971 -1.912,1.255 -0.708,0.285 -1.483,0.46 -2.219,0.46 -0.774,0 -1.54,-0.175 -2.255,-0.46 C 36.206,44.27 35.55,43.847 35.038,43.299 L 0,8.269 C -2.276,5.984 -2.276,2.276 0,0" /></g></g></g></g></svg>