<?xml version="1.0" encoding="UTF-8" standalone="no"?>
<svg
   xmlns:dc="http://purl.org/dc/elements/1.1/"
   xmlns:cc="http://creativecommons.org/ns#"
   xmlns:rdf="http://www.w3.org/1999/02/22-rdf-syntax-ns#"
   xmlns:svg="http://www.w3.org/2000/svg"
   xmlns="http://www.w3.org/2000/svg"
   viewBox="0 0 64 46.931999"
   height="46.931999"
   width="64"
   xml:space="preserve"
   id="svg2"
   version="1.1"><metadata
     id="metadata8"><rdf:RDF><cc:Work
         rdf:about=""><dc:format>image/svg+xml</dc:format><dc:type
           rdf:resource="http://purl.org/dc/dcmitype/StillImage" /></cc:Work></rdf:RDF></metadata><defs
     id="defs6"><clipPath
       id="clipPath18"
       clipPathUnits="userSpaceOnUse"><path
         id="path16"
         d="M 0,35.199 H 48 V 0 H 0 Z" /></clipPath></defs><g
     transform="matrix(1.3333333,0,0,-1.3333333,0,46.932)"
     id="g10"><g
       id="g12"><g
         clip-path="url(#clipPath18)"
         id="g14"><g
           transform="translate(46.3985,3.3713)"
           id="g20"><path
             id="path22"
             style="fill:#231200;fill-opacity:1;fill-rule:nonzero;stroke:none"
             d="m 0,0 c 0,-0.978 -0.793,-1.774 -1.773,-1.774 h -41.25 c -0.981,0 -1.774,0.796 -1.774,1.774 v 28.453 c 0,0.98 0.793,1.773 1.774,1.773 h 41.25 C -0.793,30.226 0,29.433 0,28.453 Z m -1.773,31.828 h -41.25 c -1.864,0 -3.375,-1.513 -3.375,-3.375 V 0 c 0,-1.859 1.511,-3.371 3.375,-3.371 h 41.25 c 1.863,0 3.375,1.512 3.375,3.371 v 28.453 c 0,1.862 -1.512,3.375 -3.375,3.375" /></g><g
           transform="translate(12.8008,12.0002)"
           id="g24"><path
             id="path26"
             style="fill:#231200;fill-opacity:1;fill-rule:nonzero;stroke:none"
             d="M 0,0 H -7.199 C -7.645,0 -8,-0.36 -8,-0.801 c 0,-0.441 0.355,-0.802 0.801,-0.802 H 0 c 0.441,0 0.801,0.361 0.801,0.802 C 0.801,-0.36 0.441,0 0,0" /></g><g
           transform="translate(23.1992,12.0002)"
           id="g28"><path
             id="path30"
             style="fill:#231200;fill-opacity:1;fill-rule:nonzero;stroke:none"
             d="M 0,0 H -7.199 C -7.641,0 -8,-0.36 -8,-0.801 c 0,-0.441 0.359,-0.802 0.801,-0.802 H 0 c 0.441,0 0.801,0.361 0.801,0.802 C 0.801,-0.36 0.441,0 0,0" /></g><g
           transform="translate(6.3985,8.0002)"
           id="g32"><path
             id="path34"
             style="fill:#231200;fill-opacity:1;fill-rule:nonzero;stroke:none"
             d="m 0,0 h -0.797 c -0.445,0 -0.801,-0.36 -0.801,-0.801 0,-0.441 0.356,-0.802 0.801,-0.802 H 0 c 0.445,0 0.801,0.361 0.801,0.802 C 0.801,-0.36 0.445,0 0,0" /></g><g
           transform="translate(11.1992,8.0002)"
           id="g36"><path
             id="path38"
             style="fill:#231200;fill-opacity:1;fill-rule:nonzero;stroke:none"
             d="m 0,0 h -1.598 c -0.445,0 -0.8,-0.36 -0.8,-0.801 0,-0.441 0.355,-0.802 0.8,-0.802 H 0 c 0.441,0 0.801,0.361 0.801,0.802 C 0.801,-0.36 0.441,0 0,0" /></g><g
           transform="translate(15.1992,8.0002)"
           id="g40"><path
             id="path42"
             style="fill:#231200;fill-opacity:1;fill-rule:nonzero;stroke:none"
             d="m 0,0 h -0.801 c -0.441,0 -0.797,-0.36 -0.797,-0.801 0,-0.441 0.356,-0.802 0.797,-0.802 H 0 c 0.441,0 0.801,0.361 0.801,0.802 C 0.801,-0.36 0.441,0 0,0" /></g><g
           transform="translate(20,8.0002)"
           id="g44"><path
             id="path46"
             style="fill:#231200;fill-opacity:1;fill-rule:nonzero;stroke:none"
             d="m 0,0 h -1.602 c -0.441,0 -0.796,-0.36 -0.796,-0.801 0,-0.441 0.355,-0.802 0.796,-0.802 H 0 c 0.441,0 0.801,0.361 0.801,0.802 C 0.801,-0.36 0.441,0 0,0" /></g><g
           transform="translate(22.6328,7.7649)"
           id="g48"><path
             id="path50"
             style="fill:#231200;fill-opacity:1;fill-rule:nonzero;stroke:none"
             d="m 0,0 c -0.145,-0.152 -0.234,-0.359 -0.234,-0.565 0,-0.207 0.089,-0.414 0.234,-0.567 0.148,-0.145 0.359,-0.235 0.566,-0.235 0.207,0 0.418,0.09 0.571,0.235 0.14,0.153 0.23,0.36 0.23,0.567 0,0.206 -0.09,0.413 -0.23,0.565 C 0.832,0.297 0.285,0.297 0,0" /></g><g
           transform="translate(38.3985,5.5969)"
           id="g52"><path
             id="path54"
             style="fill:#231200;fill-opacity:1;fill-rule:nonzero;stroke:none"
             d="M 0,0 C -0.504,0 -0.984,0.106 -1.43,0.278 -0.544,1.271 0,2.571 0,4 0,5.434 -0.544,6.735 -1.43,7.728 -0.984,7.899 -0.504,8 0,8 2.206,8 4,6.207 4,4 4,1.797 2.206,0 0,0 m -9.598,4 c 0,2.207 1.793,4 4,4 0.504,0 0.985,-0.101 1.429,-0.272 C -5.055,6.735 -5.598,5.434 -5.598,4 -5.598,2.571 -5.055,1.271 -4.169,0.278 -4.613,0.106 -5.094,0 -5.598,0 c -2.207,0 -4,1.797 -4,4 m 8,0 C -1.598,2.887 -2.059,1.879 -2.797,1.153 -3.539,1.879 -4,2.887 -4,4 -4,5.118 -3.539,6.125 -2.797,6.853 -2.059,6.125 -1.598,5.118 -1.598,4 M 0,9.603 c -1.02,0 -1.973,-0.278 -2.797,-0.759 -0.828,0.481 -1.781,0.759 -2.801,0.759 -3.09,0 -5.601,-2.513 -5.601,-5.603 0,-3.085 2.511,-5.597 5.601,-5.597 1.02,0 1.973,0.277 2.801,0.758 C -1.973,-1.32 -1.02,-1.597 0,-1.597 3.09,-1.597 5.602,0.915 5.602,4 5.602,7.09 3.09,9.603 0,9.603" /></g><g
           transform="translate(6.6055,27.1995)"
           id="g56"><path
             id="path58"
             style="fill:#231200;fill-opacity:1;fill-rule:nonzero;stroke:none"
             d="M 0,0 H 3.016 C 3.008,-0.066 2.996,-0.134 2.996,-0.203 v -1.4 h -3.203 v 1.4 C -0.207,-0.091 -0.113,0 0,0 m 10.789,0 c 0.113,0 0.207,-0.091 0.207,-0.203 v -1.193 c 0,-0.113 -0.094,-0.207 -0.207,-0.207 h -2.79 c -0.995,0 -1.804,-0.807 -1.804,-1.799 V -7.798 C 6.195,-7.91 6.102,-8 5.992,-8 H 4.797 c -0.11,0 -0.203,0.09 -0.203,0.202 v 7.595 C 4.594,-0.091 4.687,0 4.797,0 Z m 0,-8 H 7.773 c 0.008,0.065 0.02,0.133 0.02,0.202 v 1.4 h 3.203 v -1.4 C 10.996,-7.91 10.902,-8 10.789,-8 m 0.207,3.198 H 7.793 v 1.4 c 0,0.108 0.094,0.203 0.206,0.203 h 2.79 c 0.07,0 0.137,0.011 0.207,0.018 z M -0.207,-7.798 v 1.4 h 3.203 v -1.4 c 0,-0.069 0.012,-0.137 0.02,-0.202 H 0 c -0.113,0 -0.207,0.09 -0.207,0.202 m 3.203,2.996 h -3.203 v 1.603 H 2.996 Z M 0,-9.603 h 10.789 c 0.996,0 1.805,0.814 1.805,1.805 v 7.595 c 0,0.991 -0.809,1.805 -1.805,1.805 L 0,1.602 c -0.996,0 -1.805,-0.814 -1.805,-1.805 v -7.595 c 0,-0.991 0.809,-1.805 1.805,-1.805" /></g></g></g></g></svg>