<?xml version="1.0" encoding="UTF-8" standalone="no"?>
<svg
   xmlns:dc="http://purl.org/dc/elements/1.1/"
   xmlns:cc="http://creativecommons.org/ns#"
   xmlns:rdf="http://www.w3.org/1999/02/22-rdf-syntax-ns#"
   xmlns:svg="http://www.w3.org/2000/svg"
   xmlns="http://www.w3.org/2000/svg"
   viewBox="0 0 682.66803 386.94266"
   height="386.94266"
   width="682.66803"
   xml:space="preserve"
   id="svg2"
   version="1.1"><metadata
     id="metadata8"><rdf:RDF><cc:Work
         rdf:about=""><dc:format>image/svg+xml</dc:format><dc:type
           rdf:resource="http://purl.org/dc/dcmitype/StillImage" /></cc:Work></rdf:RDF></metadata><defs
     id="defs6"><clipPath
       id="clipPath18"
       clipPathUnits="userSpaceOnUse"><path
         id="path16"
         d="M 0,290.207 H 512.001 V 0 H 0 Z" /></clipPath></defs><g
     transform="matrix(1.3333333,0,0,-1.3333333,0,386.94267)"
     id="g10"><g
       id="g12"><g
         clip-path="url(#clipPath18)"
         id="g14"><g
           transform="translate(487.2757,133.808)"
           id="g20"><path
             id="path22"
             style="fill:#000000;fill-opacity:1;fill-rule:nonzero;stroke:none"
             d="m 0,0 c -26.838,-34.411 -61.596,-62.871 -100.518,-82.303 -11.041,-5.512 -22.321,-10.263 -33.804,-14.3 29.558,26.587 48.179,65.107 48.179,107.899 0,42.814 -18.639,81.351 -48.223,107.939 11.501,-4.041 22.793,-8.82 33.849,-14.34 C -61.596,85.462 -26.838,57.002 0.001,22.591 5.186,15.94 5.186,6.651 0,0 m -362.033,-82.303 c -38.921,19.432 -73.678,47.892 -100.517,82.303 -5.188,6.651 -5.188,15.94 0,22.591 26.837,34.411 61.595,62.871 100.517,82.304 11.054,5.518 22.342,10.29 33.839,14.329 -29.578,-26.588 -48.213,-65.12 -48.213,-107.928 0,-42.811 18.636,-81.345 48.218,-107.932 -11.498,4.039 -22.79,8.814 -33.844,14.333 m 130.758,-30.705 c -68.542,0 -124.304,55.762 -124.304,124.304 0,68.542 55.762,124.304 124.304,124.304 68.542,0 124.303,-55.762 124.303,-124.304 0,-68.542 -55.761,-124.304 -124.303,-124.304 M 16.423,35.4 c -28.736,36.844 -65.956,67.318 -107.638,88.129 -42.547,21.243 -88.321,32.264 -136.103,32.843 -1.316,0.036 -6.6,0.036 -7.916,0 -47.782,-0.579 -93.556,-11.6 -136.103,-32.843 -41.682,-20.811 -78.901,-51.284 -107.636,-88.129 -11.07,-14.192 -11.07,-34.017 0,-48.21 28.735,-36.843 65.954,-67.318 107.636,-88.128 42.547,-21.244 88.321,-32.264 136.103,-32.843 1.316,-0.036 6.6,-0.036 7.916,0 47.782,0.579 93.556,11.599 136.103,32.843 41.682,20.81 78.902,51.284 107.638,88.128 11.069,14.194 11.069,34.018 0,48.21" /></g><g
           transform="translate(256.0003,112.7368)"
           id="g24"><path
             id="path26"
             style="fill:#000000;fill-opacity:1;fill-rule:nonzero;stroke:none"
             d="m 0,0 c -17.847,0 -32.368,14.519 -32.368,32.367 0,17.848 14.52,32.368 32.368,32.368 17.847,0 32.367,-14.52 32.367,-32.368 C 32.367,14.519 17.847,0 0,0 m 0,85.563 c -29.333,0 -53.195,-23.863 -53.195,-53.196 0,-29.332 23.862,-53.195 53.195,-53.195 29.332,0 53.195,23.863 53.195,53.195 C 53.195,61.7 29.332,85.563 0,85.563" /></g></g></g></g></svg>