<?xml version="1.0" encoding="UTF-8" standalone="no"?>
<svg
   xmlns:dc="http://purl.org/dc/elements/1.1/"
   xmlns:cc="http://creativecommons.org/ns#"
   xmlns:rdf="http://www.w3.org/1999/02/22-rdf-syntax-ns#"
   xmlns:svg="http://www.w3.org/2000/svg"
   xmlns="http://www.w3.org/2000/svg"
   viewBox="0 0 278.30133 185.59866"
   height="185.59866"
   width="278.30133"
   xml:space="preserve"
   id="svg2"
   version="1.1"><metadata
     id="metadata8"><rdf:RDF><cc:Work
         rdf:about=""><dc:format>image/svg+xml</dc:format><dc:type
           rdf:resource="http://purl.org/dc/dcmitype/StillImage" /><dc:title></dc:title></cc:Work></rdf:RDF></metadata><defs
     id="defs6"><clipPath
       id="clipPath18"
       clipPathUnits="userSpaceOnUse"><path
         id="path16"
         d="M 0,139.199 H 208.726 V 0 H 0 Z" /></clipPath></defs><g
     transform="matrix(1.3333333,0,0,-1.3333333,0,185.59867)"
     id="g10"><g
       style="fill:#000000"
       id="g12"><g
         style="fill:#000000"
         clip-path="url(#clipPath18)"
         id="g14"><g
           style="fill:#000000"
           transform="translate(83.2114)"
           id="g20"><path
             id="path22"
             style="fill:#000000;fill-opacity:1;fill-rule:nonzero;stroke:none"
             d="m 0,0 h 42.375 c 1.105,0 2,0.896 2,2 v 19.224 c 0,1.104 -0.895,2 -2,2 H 0 c -1.104,0 -2,-0.896 -2,-2 V 2 C -2,0.896 -1.104,0 0,0" /></g><g
           style="fill:#000000"
           transform="translate(0,137.1992)"
           id="g24"><path
             id="path26"
             style="fill:#000000;fill-opacity:1;fill-rule:nonzero;stroke:none"
             d="m 0,0 v -19.224 c 0,-1.105 0.896,-2 2,-2 h 204.727 c 1.104,0 2,0.895 2,2 V 0 c 0,1.104 -0.896,2 -2,2 H 2 C 0.896,2 0,1.104 0,0" /></g><g
           style="fill:#000000"
           transform="translate(36.7637,57.9873)"
           id="g28"><path
             id="path30"
             style="fill:#000000;fill-opacity:1;fill-rule:nonzero;stroke:none"
             d="m 0,0 h 135.199 c 1.105,0 2,0.896 2,2 v 19.225 c 0,1.104 -0.895,2 -2,2 H 0 c -1.104,0 -2,-0.896 -2,-2 V 2 C -2,0.896 -1.104,0 0,0" /></g></g></g></g></svg>