<?xml version="1.0" encoding="UTF-8" standalone="no"?>
<svg
   xmlns:dc="http://purl.org/dc/elements/1.1/"
   xmlns:cc="http://creativecommons.org/ns#"
   xmlns:rdf="http://www.w3.org/1999/02/22-rdf-syntax-ns#"
   xmlns:svg="http://www.w3.org/2000/svg"
   xmlns="http://www.w3.org/2000/svg"
   viewBox="0 0 64 63.68"
   height="63.68"
   width="64"
   xml:space="preserve"
   id="svg2"
   version="1.1"><metadata
     id="metadata8"><rdf:RDF><cc:Work
         rdf:about=""><dc:format>image/svg+xml</dc:format><dc:type
           rdf:resource="http://purl.org/dc/dcmitype/StillImage" /></cc:Work></rdf:RDF></metadata><defs
     id="defs6"><clipPath
       id="clipPath18"
       clipPathUnits="userSpaceOnUse"><path
         id="path16"
         d="M 0,0 H 48 V 47.76 H 0 Z" /></clipPath><clipPath
       id="clipPath30"
       clipPathUnits="userSpaceOnUse"><path
         id="path28"
         d="M 0,47.76 H 48 V 0 H 0 Z" /></clipPath></defs><g
     transform="matrix(1.3333333,0,0,-1.3333333,0,63.68)"
     id="g10"><g
       id="g12"><g
         clip-path="url(#clipPath18)"
         id="g14"><g
           transform="translate(46.1368,17.4504)"
           id="g20"><path
             id="path22"
             style="fill:#231200;fill-opacity:1;fill-rule:nonzero;stroke:none"
             d="m 0,0 -12.145,-9.457 -0.062,-0.056 c -0.535,-0.511 -1.157,-0.832 -1.868,-0.932 -0.292,-0.068 -0.582,-0.098 -0.863,-0.098 l -10.546,-1.595 c -1.536,-0.233 -3.102,-0.354 -4.653,-0.354 h -10.398 v 17.6 c 1.773,-0.039 6.164,-0.324 8.625,-2.178 1.07,-0.809 2.351,-1.357 3.714,-1.618 l 0.016,-0.007 0.148,-0.025 c 0.009,-0.004 0.016,-0.004 0.024,-0.004 0.266,-0.047 0.531,-0.082 0.797,-0.104 0.008,0 0.02,0 0.027,-0.004 0.27,-0.024 0.543,-0.035 0.82,-0.035 h 3.122 c 0.437,0 0.878,-0.051 1.305,-0.157 l 0.054,-0.011 c 1.258,-0.314 2.351,-1.051 3.058,-2.111 0.341,-0.503 0.47,-0.917 0.36,-1.113 -0.215,-0.37 -1.207,-0.597 -2.211,-0.64 -0.328,0.003 -0.625,0.007 -0.886,0.007 h -7.774 c -2.504,0 -4,-1.194 -4,-3.199 0,-0.44 0.356,-0.801 0.801,-0.801 0.441,0 0.796,0.361 0.796,0.801 0,0.396 0,1.599 2.403,1.599 h 7.754 c 0.184,-0.008 0.531,-0.025 0.968,-0.008 0.141,-0.004 0.282,-0.004 0.427,-0.009 3.753,-0.069 7.277,-0.051 9.128,0.935 l 6.895,4.218 C -0.867,2.375 -0.535,1.909 0.129,0.987 0.352,0.68 0.293,0.25 0,0 m -42.137,-14.892 h -2.398 V 7.53 h 2.398 z m 14.535,17.724 c -1.589,1.039 -2.535,2.776 -2.535,4.68 0,3.086 2.512,5.596 5.602,5.596 3.086,0 5.598,-2.51 5.598,-5.596 0,-2.072 -1.114,-3.93 -2.922,-4.914 -0.098,0.018 -0.2,0.031 -0.301,0.046 -0.098,0.011 -0.195,0.032 -0.297,0.043 -0.262,0.028 -0.523,0.046 -0.785,0.046 h -3.122 c -0.402,0 -0.816,0.032 -1.238,0.099 M 1.429,1.922 C 0.027,3.875 -1.395,3.905 -4.953,2.034 l -6.899,-4.219 c -1.023,-0.543 -3.121,-0.707 -5.156,-0.742 0.36,0.755 0.199,1.653 -0.484,2.673 -0.633,0.944 -1.492,1.694 -2.492,2.207 1.656,1.348 2.648,3.352 2.648,5.559 0,3.967 -3.23,7.199 -7.199,7.199 -3.973,0 -7.204,-3.232 -7.204,-7.199 0,-1.189 0.298,-2.318 0.825,-3.329 -0.012,0.007 -0.023,0.015 -0.032,0.024 -2.87,2.164 -7.671,2.473 -9.589,2.504 v 2.422 h -5.602 v -25.621 h 5.602 v 2.397 h 10.398 c 1.633,0 3.278,0.125 4.895,0.371 l 10.367,1.574 c 0.379,0.008 0.761,0.051 1.102,0.129 0.957,0.133 1.866,0.59 2.64,1.322 l 12.129,9.441 0.015,0.016 c 0.946,0.781 1.13,2.171 0.418,3.16" /></g></g></g><g
       id="g24"><g
         clip-path="url(#clipPath30)"
         id="g26"><g
           transform="translate(21.6017,22.5588)"
           id="g32"><path
             id="path34"
             style="fill:#231200;fill-opacity:1;fill-rule:nonzero;stroke:none"
             d="m 0,0 c -1.324,0 -2.402,1.078 -2.402,2.403 0,1.321 1.078,2.398 2.402,2.398 1.32,0 2.398,-1.077 2.398,-2.398 C 2.398,1.078 1.32,0 0,0 m 4,2.403 c 0,2.203 -1.797,4 -4,4 -2.207,0 -4,-1.797 -4,-4 0,-2.207 1.793,-4 4,-4 2.203,0 4,1.793 4,4" /></g><g
           transform="translate(33.6017,45.758)"
           id="g36"><path
             id="path38"
             style="fill:#231200;fill-opacity:1;fill-rule:nonzero;stroke:none"
             d="m 0,0 c 3.086,0 5.598,-2.511 5.598,-5.597 0,-3.09 -2.512,-5.602 -5.598,-5.602 -3.09,0 -5.602,2.512 -5.602,5.602 C -5.602,-2.511 -3.09,0 0,0 m 0,-12.796 c 3.969,0 7.199,3.23 7.199,7.199 0,3.969 -3.23,7.199 -7.199,7.199 -3.973,0 -7.204,-3.23 -7.204,-7.199 0,-3.969 3.231,-7.199 7.204,-7.199" /></g><g
           transform="translate(33.6017,42.5588)"
           id="g40"><path
             id="path42"
             style="fill:#231200;fill-opacity:1;fill-rule:nonzero;stroke:none"
             d="M 0,0 C 1.32,0 2.398,-1.074 2.398,-2.397 2.398,-3.722 1.32,-4.801 0,-4.801 c -1.324,0 -2.402,1.079 -2.402,2.404 C -2.402,-1.074 -1.324,0 0,0 m 0,-6.397 c 2.203,0 4,1.793 4,4 0,2.203 -1.797,4 -4,4 -2.207,0 -4,-1.797 -4,-4 0,-2.207 1.793,-4 4,-4" /></g></g></g></g></svg>