<?xml version="1.0" encoding="UTF-8" standalone="no"?>
<svg
   xmlns:dc="http://purl.org/dc/elements/1.1/"
   xmlns:cc="http://creativecommons.org/ns#"
   xmlns:rdf="http://www.w3.org/1999/02/22-rdf-syntax-ns#"
   xmlns:svg="http://www.w3.org/2000/svg"
   xmlns="http://www.w3.org/2000/svg"
   viewBox="0 0 82.939201 59.821468"
   height="59.821468"
   width="82.939201"
   xml:space="preserve"
   id="svg2"
   version="1.1"><metadata
     id="metadata8"><rdf:RDF><cc:Work
         rdf:about=""><dc:format>image/svg+xml</dc:format><dc:type
           rdf:resource="http://purl.org/dc/dcmitype/StillImage" /></cc:Work></rdf:RDF></metadata><defs
     id="defs6"><clipPath
       id="clipPath18"
       clipPathUnits="userSpaceOnUse"><path
         id="path16"
         d="M 0,44.866 H 62.204 V 0 H 0 Z" /></clipPath></defs><g
     transform="matrix(1.3333333,0,0,-1.3333333,0,59.821467)"
     id="g10"><g
       id="g12"><g
         clip-path="url(#clipPath18)"
         id="g14"><g
           transform="translate(44.5805,14.302)"
           id="g20"><path
             id="path22"
             style="fill:#010101;fill-opacity:1;fill-rule:nonzero;stroke:none"
             d="m 0,0 c -0.291,-0.291 -0.678,-0.451 -1.089,-0.451 -0.411,0 -0.798,0.16 -1.089,0.451 l -2.524,2.524 c -0.475,0.475 -1.244,0.475 -1.719,0 -0.475,-0.474 -0.475,-1.244 0,-1.718 l 2.525,-2.525 0.007,-0.008 c 0.626,-0.627 0.648,-1.628 0.049,-2.281 -0.301,-0.328 -0.712,-0.516 -1.157,-0.532 -0.444,-0.017 -0.868,0.144 -1.191,0.45 l -2.431,2.301 c -0.487,0.462 -1.257,0.44 -1.719,-0.047 -0.461,-0.487 -0.44,-1.257 0.048,-1.718 l 2.646,-2.506 c 0.262,-0.248 0.41,-0.584 0.415,-0.944 0.004,-0.361 -0.133,-0.7 -0.388,-0.955 -0.517,-0.517 -1.358,-0.517 -1.874,0 l -1.228,1.228 c -0.474,0.474 -1.244,0.474 -1.719,0 -0.237,-0.238 -0.355,-0.549 -0.355,-0.86 0,-0.311 0.118,-0.622 0.355,-0.859 l 1.276,-1.277 c 0.238,-0.237 0.368,-0.552 0.368,-0.887 0,-0.336 -0.13,-0.652 -0.368,-0.889 -0.237,-0.237 -0.553,-0.368 -0.888,-0.368 -0.336,0 -0.651,0.131 -0.888,0.368 l -1.487,1.486 c 0.31,0.581 0.486,1.244 0.486,1.947 0,2.285 -1.856,4.145 -4.139,4.153 v 0.006 c 0,2.29 -1.863,4.153 -4.154,4.153 h -0.015 v 0.001 c 0,2.29 -1.863,4.153 -4.154,4.153 -0.704,0 -1.369,-0.176 -1.951,-0.487 l -3.797,3.799 10.744,10.745 1.871,-1.871 c 0.228,-0.228 0.537,-0.356 0.859,-0.356 h 1.573 l -4.796,-4.797 c -0.735,-0.734 -1.138,-1.709 -1.138,-2.746 0,-1.037 0.403,-2.013 1.138,-2.746 0.733,-0.734 1.708,-1.138 2.745,-1.138 1.038,0 2.012,0.404 2.746,1.138 l 4.069,4.069 4.455,-0.049 7.875,-7.771 C 0.287,1.895 0.449,1.507 0.451,1.094 0.453,0.681 0.293,0.292 0,0 m -19.816,-8.07 c 0,0.44 0.167,0.841 0.439,1.145 0.05,0.047 0.098,0.095 0.145,0.145 0.304,0.268 0.702,0.433 1.139,0.433 0.949,0 1.723,-0.773 1.723,-1.723 0,-0.466 -0.187,-0.889 -0.488,-1.2 -0.006,-0.005 -0.012,-0.009 -0.017,-0.015 -0.006,-0.006 -0.012,-0.013 -0.018,-0.019 -0.31,-0.302 -0.733,-0.49 -1.2,-0.49 -0.951,0 -1.723,0.773 -1.723,1.724 m -2.415,2.435 c -0.951,0 -1.724,0.774 -1.724,1.724 0,0.95 0.773,1.723 1.724,1.723 0.95,0 1.722,-0.773 1.722,-1.723 0,-0.441 -0.167,-0.841 -0.439,-1.147 -0.05,-0.046 -0.098,-0.094 -0.145,-0.143 -0.304,-0.269 -0.702,-0.434 -1.138,-0.434 m -5.893,5.878 c 0,0.95 0.772,1.723 1.723,1.723 0.951,0 1.723,-0.773 1.723,-1.723 0,-0.95 -0.772,-1.723 -1.723,-1.723 -0.951,0 -1.723,0.773 -1.723,1.723 m 20.343,15.983 c 0.322,0 0.631,0.128 0.859,0.356 l 1.619,1.619 9.991,-9.991 -3.809,-3.483 -7.404,7.305 -0.011,0.011 c -0.274,0.27 -0.643,0.383 -0.996,0.341 l -5.29,0.057 c -0.328,0.003 -0.642,-0.124 -0.873,-0.355 l -4.43,-4.431 c -0.274,-0.274 -0.64,-0.426 -1.027,-0.426 -0.389,0 -0.753,0.152 -1.028,0.426 -0.274,0.275 -0.425,0.64 -0.425,1.028 0,0.387 0.151,0.753 0.425,1.027 l 6.516,6.516 z M 17.268,15.656 5.754,27.17 c -0.475,0.475 -1.244,0.475 -1.719,0 -0.474,-0.475 -0.474,-1.244 0,-1.719 L 14.689,14.797 8.46,8.567 c -0.19,-0.19 -0.501,-0.19 -0.691,0 L -4.532,20.868 c -0.192,0.192 -0.192,0.502 0,0.693 l 4.18,4.18 c 0.475,0.475 0.475,1.244 0,1.719 -0.474,0.475 -1.244,0.475 -1.718,0 L -6.252,23.279 C -7.117,22.413 -7.323,21.135 -6.871,20.07 l -1.414,-1.414 h -5.452 -0.43 -4.004 l -1.783,1.784 c 0.068,0.25 0.104,0.511 0.104,0.777 0,0.78 -0.303,1.513 -0.855,2.064 l -4.067,4.069 c -0.475,0.474 -1.245,0.474 -1.719,0 -0.475,-0.475 -0.475,-1.245 0,-1.719 l 4.067,-4.069 c 0.125,-0.124 0.144,-0.269 0.144,-0.345 0,-0.075 -0.019,-0.221 -0.144,-0.346 L -22.763,20.532 -34.729,8.569 c -0.003,-0.004 -0.007,-0.008 -0.011,-0.012 -0.121,-0.113 -0.258,-0.13 -0.331,-0.13 -0.075,0 -0.221,0.018 -0.346,0.142 l -6.229,6.23 10.797,10.798 c 0.475,0.474 0.475,1.244 0,1.718 -0.474,0.475 -1.244,0.475 -1.718,0 L -44.225,15.658 c -0.474,-0.474 -0.474,-1.244 0,-1.719 l 7.089,-7.088 c 0.57,-0.569 1.318,-0.854 2.065,-0.854 0.343,0 0.686,0.064 1.011,0.183 l 3.991,-3.99 c -0.31,-0.582 -0.486,-1.244 -0.486,-1.947 0,-2.291 1.864,-4.154 4.154,-4.154 h 0.015 c 0,-2.286 1.856,-4.146 4.139,-4.154 V -8.07 c 0,-2.291 1.863,-4.155 4.154,-4.155 0.704,0 1.368,0.177 1.95,0.489 l 1.486,-1.486 c 0.696,-0.697 1.623,-1.08 2.607,-1.08 0.986,0 1.911,0.383 2.608,1.08 0.659,0.659 1.038,1.525 1.076,2.451 0.898,0.044 1.783,0.409 2.468,1.093 0.723,0.723 1.113,1.685 1.099,2.707 v 0.007 c 1.058,0.066 2.03,0.528 2.749,1.313 0.724,0.787 1.081,1.78 1.078,2.771 1.017,0.029 1.969,0.439 2.691,1.161 0.754,0.753 1.167,1.755 1.163,2.821 C 2.88,1.729 2.732,2.333 2.458,2.877 l 3.986,3.644 c 0.5,-0.349 1.084,-0.526 1.67,-0.526 0.748,0 1.496,0.284 2.066,0.854 l 7.088,7.089 c 0.474,0.474 0.474,1.244 0,1.718" /></g><g
           transform="translate(53.2553,29.7522)"
           id="g24"><path
             id="path26"
             style="fill:#010101;fill-opacity:1;fill-rule:nonzero;stroke:none"
             d="m 0,0 c 0.669,0 1.213,-0.543 1.213,-1.213 0,-0.67 -0.544,-1.213 -1.213,-1.213 -0.67,0 -1.214,0.543 -1.214,1.213 C -1.214,-0.543 -0.67,0 0,0" /></g><g
           transform="translate(8.8256,29.6302)"
           id="g28"><path
             id="path30"
             style="fill:#010101;fill-opacity:1;fill-rule:nonzero;stroke:none"
             d="M 0,0 C 0.67,0 1.213,-0.543 1.213,-1.213 1.213,-1.882 0.67,-2.426 0,-2.426 c -0.67,0 -1.213,0.544 -1.213,1.213 C -1.213,-0.543 -0.67,0 0,0" /></g><g
           transform="translate(15.9233,44.7688)"
           id="g32"><path
             id="path34"
             style="fill:#010101;fill-opacity:1;fill-rule:nonzero;stroke:none"
             d="m 0,0 c 0.67,0 1.213,-0.543 1.213,-1.213 0,-0.67 -0.543,-1.213 -1.213,-1.213 -0.67,0 -1.213,0.543 -1.213,1.213 C -1.213,-0.543 -0.67,0 0,0" /></g><g
           transform="translate(46.2592,44.8665)"
           id="g36"><path
             id="path38"
             style="fill:#010101;fill-opacity:1;fill-rule:nonzero;stroke:none"
             d="m 0,0 c 0.67,0 1.213,-0.543 1.213,-1.213 0,-0.67 -0.543,-1.213 -1.213,-1.213 -0.67,0 -1.213,0.543 -1.213,1.213 C -1.213,-0.543 -0.67,0 0,0" /></g></g></g></g></svg>