<?xml version="1.0" encoding="UTF-8" standalone="no"?>
<svg
   xmlns:dc="http://purl.org/dc/elements/1.1/"
   xmlns:cc="http://creativecommons.org/ns#"
   xmlns:rdf="http://www.w3.org/1999/02/22-rdf-syntax-ns#"
   xmlns:svg="http://www.w3.org/2000/svg"
   xmlns="http://www.w3.org/2000/svg"
   viewBox="0 0 61.863998 60.802666"
   height="60.802666"
   width="61.863998"
   xml:space="preserve"
   id="svg2"
   version="1.1"><metadata
     id="metadata8"><rdf:RDF><cc:Work
         rdf:about=""><dc:format>image/svg+xml</dc:format><dc:type
           rdf:resource="http://purl.org/dc/dcmitype/StillImage" /></cc:Work></rdf:RDF></metadata><defs
     id="defs6"><clipPath
       id="clipPath18"
       clipPathUnits="userSpaceOnUse"><path
         id="path16"
         d="M 0,45.602 H 46.398 V 0 H 0 Z" /></clipPath></defs><g
     transform="matrix(1.3333333,0,0,-1.3333333,0,60.802667)"
     id="g10"><g
       id="g12"><g
         clip-path="url(#clipPath18)"
         id="g14"><path
           id="path20"
           style="fill:#231200;fill-opacity:1;fill-rule:nonzero;stroke:none"
           d="M 44.801,1.602 H 1.602 V 32 H 44.801 Z M 34.32,42.403 c -0.375,1.824 -1.988,3.199 -3.922,3.199 -0.441,0 -0.796,-0.359 -0.796,-0.801 0,-0.441 0.355,-0.801 0.796,-0.801 1.325,0 2.403,-1.074 2.403,-2.398 0,-1.324 -1.078,-2.398 -2.403,-2.398 -0.441,0 -0.796,-0.36 -0.796,-0.801 0,-0.442 0.355,-0.801 0.796,-0.801 1.934,0 3.547,1.375 3.922,3.199 H 44.801 V 33.602 H 1.602 v 7.199 h 13.597 c 0.442,0 0.801,0.36 0.801,0.801 0,0.441 -0.359,0.801 -0.801,0.801 H 13.746 C 14.078,43.332 14.957,44 16,44 c 1.324,0 2.398,-1.074 2.398,-2.398 0,-1.324 -1.074,-2.398 -2.398,-2.398 -0.441,0 -0.801,-0.36 -0.801,-0.801 0,-0.442 0.36,-0.801 0.801,-0.801 2.207,0 4,1.793 4,4 0,2.207 -1.793,4 -4,4 -1.93,0 -3.547,-1.375 -3.918,-3.199 L 0,42.403 V 0 h 46.398 v 42.403 z" /><g
           transform="translate(20.8008,43.9999)"
           id="g22"><path
             id="path24"
             style="fill:#231200;fill-opacity:1;fill-rule:nonzero;stroke:none"
             d="m 0,0 c 1.324,0 2.398,-1.074 2.398,-2.398 0,-1.324 -1.074,-2.398 -2.398,-2.398 -0.442,0 -0.801,-0.36 -0.801,-0.801 0,-0.442 0.359,-0.801 0.801,-0.801 2.203,0 4,1.793 4,4 0,2.207 -1.797,4 -4,4 -0.442,0 -0.801,-0.359 -0.801,-0.801 C -0.801,0.36 -0.442,0 0,0" /></g><g
           transform="translate(25.6016,43.9999)"
           id="g26"><path
             id="path28"
             style="fill:#231200;fill-opacity:1;fill-rule:nonzero;stroke:none"
             d="M 0,0 C 1.32,0 2.398,-1.074 2.398,-2.398 2.398,-3.722 1.32,-4.796 0,-4.796 c -0.441,0 -0.801,-0.36 -0.801,-0.801 0,-0.442 0.36,-0.801 0.801,-0.801 2.203,0 4,1.793 4,4 0,2.207 -1.797,4 -4,4 -0.441,0 -0.801,-0.359 -0.801,-0.801 C -0.801,0.36 -0.441,0 0,0" /></g><g
           transform="translate(7.1992,25.602)"
           id="g30"><path
             id="path32"
             style="fill:#231200;fill-opacity:1;fill-rule:nonzero;stroke:none"
             d="m 0,0 h 17.602 c 0.441,0 0.8,0.359 0.8,0.801 0,0.441 -0.359,0.801 -0.8,0.801 H 0 c -0.441,0 -0.801,-0.36 -0.801,-0.801 C -0.801,0.359 -0.441,0 0,0" /></g><g
           transform="translate(39.1992,14.4028)"
           id="g34"><path
             id="path36"
             style="fill:#231200;fill-opacity:1;fill-rule:nonzero;stroke:none"
             d="m 0,0 h -12 c -0.441,0 -0.801,-0.359 -0.801,-0.801 0,-0.441 0.36,-0.801 0.801,-0.801 H 0 c 0.441,0 0.801,0.36 0.801,0.801 C 0.801,-0.359 0.441,0 0,0" /></g><g
           transform="translate(7.1992,19.2036)"
           id="g38"><path
             id="path40"
             style="fill:#231200;fill-opacity:1;fill-rule:nonzero;stroke:none"
             d="M 0,0 H 8 C 8.442,0 8.801,0.355 8.801,0.797 8.801,1.242 8.442,1.598 8,1.598 H 0 C -0.441,1.598 -0.801,1.242 -0.801,0.797 -0.801,0.355 -0.441,0 0,0" /></g><g
           transform="translate(39.1992,8.0004)"
           id="g42"><path
             id="path44"
             style="fill:#231200;fill-opacity:1;fill-rule:nonzero;stroke:none"
             d="m 0,0 h -8 c -0.441,0 -0.801,-0.355 -0.801,-0.797 0,-0.445 0.36,-0.801 0.801,-0.801 h 8 c 0.441,0 0.801,0.356 0.801,0.801 C 0.801,-0.355 0.441,0 0,0" /></g><g
           transform="translate(22.3979,20.0004)"
           id="g46"><path
             id="path48"
             style="fill:#231200;fill-opacity:1;fill-rule:nonzero;stroke:none"
             d="m 0,0 c 0,-0.441 0.36,-0.797 0.801,-0.797 h 12 c 0.442,0 0.801,0.356 0.801,0.797 0,0.445 -0.359,0.801 -0.801,0.801 h -12 C 0.36,0.801 0,0.445 0,0" /></g><g
           transform="translate(19.77,19.434)"
           id="g50"><path
             id="path52"
             style="fill:#231200;fill-opacity:1;fill-rule:nonzero;stroke:none"
             d="m 0,0 c 0.14,0.152 0.23,0.359 0.23,0.566 0,0.211 -0.09,0.418 -0.23,0.571 -0.297,0.297 -0.84,0.297 -1.137,0 -0.145,-0.153 -0.235,-0.36 -0.235,-0.571 0,-0.207 0.09,-0.414 0.235,-0.566 0.152,-0.152 0.359,-0.23 0.566,-0.23 0.207,0 0.418,0.078 0.571,0.23" /></g><g
           transform="translate(10.3979,13.602)"
           id="g54"><path
             id="path56"
             style="fill:#231200;fill-opacity:1;fill-rule:nonzero;stroke:none"
             d="m 0,0 c 0,-0.441 0.36,-0.801 0.801,-0.801 h 12 c 0.442,0 0.801,0.36 0.801,0.801 0,0.441 -0.359,0.801 -0.801,0.801 h -12 C 0.36,0.801 0,0.441 0,0" /></g><g
           transform="translate(7.1992,12.8012)"
           id="g58"><path
             id="path60"
             style="fill:#231200;fill-opacity:1;fill-rule:nonzero;stroke:none"
             d="m 0,0 c 0.207,0 0.418,0.09 0.571,0.234 0.14,0.153 0.23,0.36 0.23,0.567 0,0.207 -0.09,0.418 -0.23,0.558 -0.297,0.305 -0.84,0.305 -1.137,0.008 -0.145,-0.148 -0.235,-0.359 -0.235,-0.566 0,-0.207 0.09,-0.414 0.235,-0.567 C -0.414,0.09 -0.215,0 0,0" /></g><g
           transform="translate(39.1992,19.2036)"
           id="g62"><path
             id="path64"
             style="fill:#231200;fill-opacity:1;fill-rule:nonzero;stroke:none"
             d="m 0,0 c 0.207,0 0.418,0.078 0.57,0.23 0.153,0.153 0.231,0.36 0.231,0.567 0,0.211 -0.078,0.418 -0.231,0.57 -0.304,0.297 -0.84,0.297 -1.136,0 -0.145,-0.152 -0.235,-0.359 -0.235,-0.57 0,-0.207 0.09,-0.414 0.235,-0.567 C -0.414,0.078 -0.207,0 0,0" /></g><g
           transform="translate(27.1992,8.0004)"
           id="g66"><path
             id="path68"
             style="fill:#231200;fill-opacity:1;fill-rule:nonzero;stroke:none"
             d="m 0,0 h -20 c -0.441,0 -0.801,-0.355 -0.801,-0.797 0,-0.445 0.36,-0.801 0.801,-0.801 H 0 c 0.441,0 0.801,0.356 0.801,0.801 C 0.801,-0.355 0.441,0 0,0" /></g></g></g></g></svg>