<?xml version="1.0" encoding="UTF-8" standalone="no"?>
<svg
   xmlns:dc="http://purl.org/dc/elements/1.1/"
   xmlns:cc="http://creativecommons.org/ns#"
   xmlns:rdf="http://www.w3.org/1999/02/22-rdf-syntax-ns#"
   xmlns:svg="http://www.w3.org/2000/svg"
   xmlns="http://www.w3.org/2000/svg"
   viewBox="0 0 57.007599 64.070801"
   height="64.070801"
   width="57.007599"
   xml:space="preserve"
   id="svg2"
   version="1.1"><metadata
     id="metadata8"><rdf:RDF><cc:Work
         rdf:about=""><dc:format>image/svg+xml</dc:format><dc:type
           rdf:resource="http://purl.org/dc/dcmitype/StillImage" /></cc:Work></rdf:RDF></metadata><defs
     id="defs6"><clipPath
       id="clipPath18"
       clipPathUnits="userSpaceOnUse"><path
         id="path16"
         d="M 0,48.053 H 42.756 V 0 H 0 Z" /></clipPath><clipPath
       id="clipPath30"
       clipPathUnits="userSpaceOnUse"><path
         id="path28"
         d="M 0,0 H 42.755 V 48.053 H 0 Z" /></clipPath><clipPath
       id="clipPath46"
       clipPathUnits="userSpaceOnUse"><path
         id="path44"
         d="M 0,48.053 H 42.756 V 0 H 0 Z" /></clipPath></defs><g
     transform="matrix(1.3333333,0,0,-1.3333333,0,64.0708)"
     id="g10"><g
       id="g12"><g
         clip-path="url(#clipPath18)"
         id="g14"><g
           transform="translate(26.0725,32.04)"
           id="g20"><path
             id="path22"
             style="fill:#231200;fill-opacity:1;fill-rule:nonzero;stroke:none"
             d="m 0,0 c 3.147,-0.812 5.529,-3.408 6.067,-6.612 0.062,-0.367 0.379,-0.626 0.739,-0.626 0.042,0 0.083,0.003 0.125,0.01 0.409,0.069 0.684,0.456 0.616,0.864 C 6.91,-2.576 4.096,0.492 0.374,1.452 -0.027,1.556 -0.437,1.314 -0.54,0.913 -0.643,0.513 -0.401,0.104 0,0" /></g></g></g><g
       id="g24"><g
         clip-path="url(#clipPath30)"
         id="g26"><g
           transform="translate(11.5627,9.4872)"
           id="g32"><path
             id="path34"
             style="fill:#231200;fill-opacity:1;fill-rule:nonzero;stroke:none"
             d="m 0,0 -7.501,-7.501 c -0.586,-0.585 -1.537,-0.584 -2.122,0 -0.283,0.283 -0.44,0.66 -0.44,1.061 0,0.401 0.157,0.778 0.44,1.061 l 7.501,7.501 c 0.283,0.283 0.66,0.44 1.06,0.44 C -0.66,2.562 -0.284,2.405 0,2.122 0.283,1.839 0.438,1.462 0.438,1.061 0.438,0.66 0.283,0.283 0,0 m 12.44,25.814 c 6.205,0 11.252,-5.047 11.252,-11.251 0,-6.205 -5.047,-11.251 -11.252,-11.251 -6.204,0 -11.251,5.046 -11.251,11.251 0,6.204 5.047,11.251 11.251,11.251 M 1.061,-1.061 c 0.566,0.567 0.877,1.321 0.877,2.122 0,0.544 -0.144,1.068 -0.414,1.525 l 2.451,2.45 C 6.228,3.031 9.194,1.811 12.44,1.811 c 7.032,0 12.752,5.72 12.752,12.752 0,7.031 -5.72,12.751 -12.752,12.751 -7.031,0 -12.752,-5.72 -12.752,-12.751 0,-3.247 1.221,-6.212 3.226,-8.466 L 0.463,3.646 c -0.457,0.271 -0.98,0.416 -1.525,0.416 -0.801,0 -1.554,-0.313 -2.121,-0.879 l -7.501,-7.501 c -0.567,-0.567 -0.879,-1.321 -0.879,-2.122 0,-0.801 0.312,-1.555 0.879,-2.122 0.585,-0.584 1.353,-0.876 2.121,-0.876 0.769,0 1.538,0.292 2.123,0.876 z" /></g><g
           transform="translate(42.7522,37.6259)"
           id="g36"><path
             id="path38"
             style="fill:#231200;fill-opacity:1;fill-rule:nonzero;stroke:none"
             d="M 0,0 C -0.002,0.011 -0.003,0.021 -0.005,0.031 L -0.011,0.072 C -0.014,0.085 -0.018,0.097 -0.02,0.108 -0.023,0.121 -0.025,0.132 -0.029,0.144 L -0.041,0.179 C -0.045,0.19 -0.049,0.202 -0.054,0.213 l -0.014,0.032 c -0.006,0.012 -0.011,0.024 -0.017,0.034 -0.006,0.011 -0.012,0.02 -0.018,0.031 -0.006,0.01 -0.012,0.022 -0.02,0.033 -0.007,0.011 -0.015,0.02 -0.023,0.03 -0.006,0.01 -0.013,0.02 -0.021,0.028 -0.014,0.018 -0.029,0.035 -0.045,0.051 -0.002,0.001 -0.003,0.003 -0.004,0.004 l -9.752,9.751 c 0,10e-4 0,10e-4 -10e-4,10e-4 -0.022,0.023 -0.048,0.045 -0.075,0.065 -0.006,0.004 -0.012,0.009 -0.018,0.014 -0.026,0.019 -0.054,0.036 -0.084,0.052 0,10e-4 -0.003,0.002 -0.005,0.003 -0.028,0.014 -0.056,0.026 -0.085,0.038 -0.006,0.002 -0.013,0.004 -0.019,0.006 -0.031,0.011 -0.063,0.02 -0.097,0.026 -10e-4,10e-4 -10e-4,10e-4 -0.002,10e-4 -0.031,0.006 -0.062,0.01 -0.093,0.012 -0.008,10e-4 -0.017,10e-4 -0.026,0.002 h -0.025 -24.753 c -1.241,0 -2.25,-1.009 -2.25,-2.25 v -32.254 c 0,-0.414 0.335,-0.75 0.749,-0.75 0.415,0 0.751,0.336 0.751,0.75 V 8.177 c 0,0.414 0.336,0.75 0.75,0.75 h 24.003 V 1.426 c 0,-1.24 1.01,-2.25 2.25,-2.25 h 4.501 c 0.414,0 0.75,0.336 0.75,0.75 0,0.414 -0.336,0.75 -0.75,0.75 h -4.501 c -0.413,0 -0.75,0.337 -0.75,0.75 v 6.44 l 8.251,-8.251 v -34.943 c 0,-0.414 -0.336,-0.751 -0.75,-0.751 h -32.254 c -0.414,0 -0.75,-0.335 -0.75,-0.75 0,-0.414 0.336,-0.75 0.75,-0.75 h 32.254 c 1.241,0 2.251,1.01 2.251,2.251 V -0.074 C 0.004,-0.05 0.002,-0.025 0,0" /></g></g></g><g
       id="g40"><g
         clip-path="url(#clipPath46)"
         id="g42"><g
           transform="translate(30.7541,24.0497)"
           id="g48"><path
             id="path50"
             style="fill:#231200;fill-opacity:1;fill-rule:nonzero;stroke:none"
             d="m 0,0 c 0,0.414 -0.336,0.751 -0.75,0.751 h -15.002 c -0.414,0 -0.75,-0.337 -0.75,-0.751 0,-0.414 0.336,-0.75 0.75,-0.75 H -0.75 C -0.336,-0.75 0,-0.414 0,0" /></g><g
           transform="translate(31.5041,21.0497)"
           id="g52"><path
             id="path54"
             style="fill:#231200;fill-opacity:1;fill-rule:nonzero;stroke:none"
             d="m 0,0 h -14.252 c -0.414,0 -0.75,-0.336 -0.75,-0.75 0,-0.415 0.336,-0.75 0.75,-0.75 H 0 c 0.414,0 0.75,0.335 0.75,0.75 C 0.75,-0.336 0.414,0 0,0" /></g><g
           transform="translate(17.2522,27.0507)"
           id="g56"><path
             id="path58"
             style="fill:#231200;fill-opacity:1;fill-rule:nonzero;stroke:none"
             d="m 0,0 h 11.251 c 0.415,0 0.751,0.335 0.751,0.75 0,0.414 -0.336,0.75 -0.751,0.75 H 0 C -0.414,1.5 -0.75,1.164 -0.75,0.75 -0.75,0.335 -0.414,0 0,0" /></g></g></g></g></svg>