<?xml version="1.0" encoding="UTF-8" standalone="no"?>
<svg
   xmlns:dc="http://purl.org/dc/elements/1.1/"
   xmlns:cc="http://creativecommons.org/ns#"
   xmlns:rdf="http://www.w3.org/1999/02/22-rdf-syntax-ns#"
   xmlns:svg="http://www.w3.org/2000/svg"
   xmlns="http://www.w3.org/2000/svg"
   viewBox="0 0 58.140533 60.0616"
   height="60.0616"
   width="58.140533"
   xml:space="preserve"
   id="svg2"
   version="1.1"><metadata
     id="metadata8"><rdf:RDF><cc:Work
         rdf:about=""><dc:format>image/svg+xml</dc:format><dc:type
           rdf:resource="http://purl.org/dc/dcmitype/StillImage" /></cc:Work></rdf:RDF></metadata><defs
     id="defs6"><clipPath
       id="clipPath18"
       clipPathUnits="userSpaceOnUse"><path
         id="path16"
         d="M 0,45.046 H 43.605 V 0 H 0 Z" /></clipPath></defs><g
     transform="matrix(1.3333333,0,0,-1.3333333,0,60.0616)"
     id="g10"><g
       id="g12"><g
         clip-path="url(#clipPath18)"
         id="g14"><g
           transform="translate(1.8811,1.8597)"
           id="g20"><path
             id="path22"
             style="fill:#231200;fill-opacity:1;fill-rule:nonzero;stroke:none"
             d="M 0,0 C 0.486,10.566 9.236,19.013 19.922,19.013 30.606,19.013 39.356,10.566 39.844,0 Z m 9.694,31.1 c 0,5.639 4.588,10.227 10.228,10.227 5.64,0 10.226,-4.588 10.226,-10.227 0,-5.639 -4.586,-10.228 -10.226,-10.228 -5.64,0 -10.228,4.589 -10.228,10.228 M 35.338,14.486 c -2.842,2.842 -6.329,4.802 -10.132,5.745 4.023,1.964 6.803,6.098 6.803,10.869 0,6.665 -5.423,12.087 -12.088,12.087 -6.664,0 -12.086,-5.422 -12.086,-12.087 0,-4.771 2.778,-8.905 6.803,-10.869 C 10.835,19.288 7.347,17.328 4.505,14.486 0.387,10.369 -1.881,4.894 -1.881,-0.93 c 0,-0.513 0.416,-0.929 0.93,-0.929 h 41.746 c 0.513,0 0.93,0.416 0.93,0.929 0,5.824 -2.269,11.299 -6.387,15.416" /></g><g
           transform="translate(13.7678,16.2229)"
           id="g24"><path
             id="path26"
             style="fill:#231200;fill-opacity:1;fill-rule:nonzero;stroke:none"
             d="m 0,0 c -0.263,0.441 -0.834,0.585 -1.274,0.321 -4.183,-2.499 -7.232,-6.636 -8.365,-11.352 -0.12,-0.5 0.187,-1.002 0.687,-1.122 0.072,-0.018 0.145,-0.026 0.218,-0.026 0.42,0 0.8,0.286 0.903,0.712 1.017,4.234 3.755,7.948 7.51,10.192 C 0.12,-1.012 0.264,-0.441 0,0" /></g><g
           transform="translate(21.802,19.1067)"
           id="g28"><path
             id="path30"
             style="fill:#231200;fill-opacity:1;fill-rule:nonzero;stroke:none"
             d="m 0,0 c -1.422,0 -2.84,-0.166 -4.212,-0.491 -0.499,-0.119 -0.809,-0.62 -0.689,-1.119 0.101,-0.428 0.482,-0.716 0.903,-0.716 0.071,0 0.144,0.009 0.216,0.025 1.231,0.292 2.504,0.441 3.782,0.441 0.515,0 0.931,0.416 0.931,0.929 C 0.931,-0.417 0.515,0 0,0" /></g></g></g></g></svg>