<?xml version="1.0" encoding="UTF-8" standalone="no"?>
<svg
   xmlns:dc="http://purl.org/dc/elements/1.1/"
   xmlns:cc="http://creativecommons.org/ns#"
   xmlns:rdf="http://www.w3.org/1999/02/22-rdf-syntax-ns#"
   xmlns:svg="http://www.w3.org/2000/svg"
   xmlns="http://www.w3.org/2000/svg"
   viewBox="0 0 25.598667 21.333332"
   height="21.333332"
   width="25.598667"
   xml:space="preserve"
   id="svg2"
   version="1.1"><metadata
     id="metadata8"><rdf:RDF><cc:Work
         rdf:about=""><dc:format>image/svg+xml</dc:format><dc:type
           rdf:resource="http://purl.org/dc/dcmitype/StillImage" /><dc:title></dc:title></cc:Work></rdf:RDF></metadata><defs
     id="defs6"><clipPath
       id="clipPath18"
       clipPathUnits="userSpaceOnUse"><path
         id="path16"
         d="M 0,16 H 19.199 V 0 H 0 Z" /></clipPath></defs><g
     transform="matrix(1.3333333,0,0,-1.3333333,0,21.333333)"
     id="g10"><g
       style="fill:#000000"
       id="g12"><g
         style="fill:#000000"
         clip-path="url(#clipPath18)"
         id="g14"><g
           style="fill:#000000"
           transform="translate(19.1992,15.1992)"
           id="g20"><path
             id="path22"
             style="fill:#000000;fill-opacity:1;fill-rule:nonzero;stroke:none"
             d="m 0,0 c 0,0.481 -0.32,0.801 -0.801,0.801 h -17.597 c -0.481,0 -0.801,-0.32 -0.801,-0.801 v -1.597 c 0,-0.481 0.32,-0.801 0.801,-0.801 h 17.597 c 0.481,0 0.801,0.32 0.801,0.801 z" /></g><g
           style="fill:#000000"
           transform="translate(19.1992,8.8008)"
           id="g24"><path
             id="path26"
             style="fill:#000000;fill-opacity:1;fill-rule:nonzero;stroke:none"
             d="m 0,0 c 0,0.48 -0.32,0.801 -0.801,0.801 h -17.597 c -0.481,0 -0.801,-0.321 -0.801,-0.801 v -1.602 c 0,-0.48 0.32,-0.8 0.801,-0.8 h 17.597 c 0.481,0 0.801,0.32 0.801,0.8 z" /></g><g
           style="fill:#000000"
           transform="translate(19.1992,2.3984)"
           id="g28"><path
             id="path30"
             style="fill:#000000;fill-opacity:1;fill-rule:nonzero;stroke:none"
             d="m 0,0 c 0,0.48 -0.32,0.801 -0.801,0.801 h -17.597 c -0.481,0 -0.801,-0.321 -0.801,-0.801 v -1.598 c 0,-0.48 0.32,-0.8 0.801,-0.8 h 17.597 c 0.481,0 0.801,0.32 0.801,0.8 z" /></g></g></g></g></svg>