<?xml version="1.0" encoding="UTF-8" standalone="no"?>
<svg
   xmlns:dc="http://purl.org/dc/elements/1.1/"
   xmlns:cc="http://creativecommons.org/ns#"
   xmlns:rdf="http://www.w3.org/1999/02/22-rdf-syntax-ns#"
   xmlns:svg="http://www.w3.org/2000/svg"
   xmlns="http://www.w3.org/2000/svg"
   xmlns:sodipodi="http://sodipodi.sourceforge.net/DTD/sodipodi-0.dtd"
   xmlns:inkscape="http://www.inkscape.org/namespaces/inkscape"
   viewBox="0 0 672 671.56268"
   height="671.56268"
   width="672"
   xml:space="preserve"
   id="svg2"
   version="1.1"
   sodipodi:docname="money.svg"
   inkscape:version="0.92.1 r15371"><sodipodi:namedview
     pagecolor="#ffffff"
     bordercolor="#666666"
     borderopacity="1"
     objecttolerance="10"
     gridtolerance="10"
     guidetolerance="10"
     inkscape:pageopacity="0"
     inkscape:pageshadow="2"
     inkscape:window-width="1440"
     inkscape:window-height="838"
     id="namedview54"
     showgrid="false"
     inkscape:zoom="0.35141917"
     inkscape:cx="336"
     inkscape:cy="335.78134"
     inkscape:window-x="-8"
     inkscape:window-y="-8"
     inkscape:window-maximized="1"
     inkscape:current-layer="svg2" /><metadata
     id="metadata8"><rdf:RDF><cc:Work
         rdf:about=""><dc:format>image/svg+xml</dc:format><dc:type
           rdf:resource="http://purl.org/dc/dcmitype/StillImage" /></cc:Work></rdf:RDF></metadata><defs
     id="defs6"><clipPath
       id="clipPath18"
       clipPathUnits="userSpaceOnUse"><path
         id="path16"
         d="M 0,503.672 H 504 V 0 H 0 Z" /></clipPath><clipPath
       id="clipPath42"
       clipPathUnits="userSpaceOnUse"><path
         id="path40"
         d="M 0,503.672 H 504 V 0 H 0 Z" /></clipPath></defs><g
     transform="matrix(1.3333333,0,0,-1.3333333,0,671.56267)"
     id="g10"
     style="stroke:none"><g
       id="g12"
       style="stroke:none"><g
         clip-path="url(#clipPath18)"
         id="g14"
         style="stroke:none"><g
           transform="translate(250.3613,143.291)"
           id="g20"
           style="stroke:none" /><g
           transform="translate(323.5552,191.3623)"
           id="g24"
           style="stroke:none" /><g
           transform="translate(458.7412,17.1924)"
           id="g28"
           style="stroke:none" /><g
           transform="translate(54.7529,158.793)"
           id="g32"
           style="stroke:none"><g
             id="g4538"
             style="fill:#000000"><path
               d="m 0,0 c -3.309,0 -6,2.69 -6,6 0,3.309 2.691,5.999 6,5.999 C 3.309,11.999 6,9.309 6,6 6,2.69 3.309,0 0,0 M 0,31.999 C -14.336,31.999 -26,20.336 -26,6 -26,-8.337 -14.336,-20 0,-20 14.335,-20 25.999,-8.337 25.999,6 25.999,20.336 14.336,31.999 0,31.999"
               style="stroke:none;fill:#000000;fill-opacity:1;fill-rule:nonzero"
               id="path22"
               transform="translate(195.6084,-15.502001)" /><path
               d="M 0,0 C 2.63,0 5.209,1.069 7.069,2.93 8.93,4.789 10,7.369 10,10 10,12.63 8.93,15.21 7.069,17.068 5.209,18.929 2.63,20 0,20 -2.63,20 -5.21,18.93 -7.07,17.068 -8.94,15.21 -10,12.63 -10,10 -10,7.369 -8.94,4.789 -7.07,2.93 -5.21,1.069 -2.63,0 0,0"
               style="stroke:none;fill:#000000;fill-opacity:1;fill-rule:nonzero"
               id="path26"
               transform="translate(268.8023,32.569302)" /><path
               d="M 0,0 H -14.018 C -7.731,8.36 -4,18.746 -4,29.987 v 40.176 h 6 c 10.443,0 20.111,3.363 27.999,9.049 V 29.999 C 29.999,13.458 16.542,0 0,0 m -441.987,29.987 v 240.259 c 6.403,-3.954 13.937,-6.241 21.999,-6.241 h 365.989 c 16.542,0 29.999,-13.458 29.999,-30 v -39.846 h -72.304 c -5.523,0 -10,-4.477 -10,-9.999 0,-5.522 4.477,-10 10,-10 H 6.298 c 8.732,0 16.868,2.585 23.701,7.015 v -63.013 c 0,-15.438 -12.561,-28 -27.999,-28 h -209.994 c -23.158,0 -41.999,18.841 -41.999,41.999 0,23.158 18.841,41.999 41.999,41.999 h 30.306 c 5.523,0 10,4.478 10,10 0,5.522 -4.477,9.999 -10,9.999 h -30.306 c -34.186,0 -61.998,-27.811 -61.998,-61.998 0,-34.185 27.812,-61.998 61.998,-61.998 H -24 V 29.987 C -24,13.601 -37.208,0.237 -53.537,-0.012 h -340.452 v 112.611 c 0,5.522 -4.476,10 -9.999,10 -5.523,0 -10,-4.478 -10,-10 V 0.063 c -15.612,1.033 -27.999,14.056 -27.999,29.924 m 21.999,298.015 h 19.15 l -11.79,-43.998 h -7.36 c -12.131,0 -21.999,9.869 -21.999,21.999 0,12.131 9.869,21.999 21.999,21.999 m 77.833,141.736 123.711,-33.148 -10.561,-10.561 -64.631,17.317 c -2.563,0.687 -5.291,0.327 -7.587,-0.999 -2.298,-1.326 -3.973,-3.51 -4.659,-6.072 -1.436,-5.356 -4.871,-9.832 -9.673,-12.605 -4.803,-2.773 -10.398,-3.509 -15.755,-2.074 -5.333,1.43 -10.817,-1.736 -12.246,-7.071 l -34.975,-130.521 h -13.392 z m 183.248,-1.894 130.767,-130.766 -52.751,-52.75 h -18.295 l 23.929,23.929 c 3.905,3.905 3.905,10.237 0,14.142 -8.095,8.095 -8.095,21.265 0,29.36 3.905,3.905 3.905,10.237 0,14.142 l -54.827,54.828 c -3.905,3.905 -10.237,3.905 -14.143,0 -8.095,-8.096 -21.266,-8.096 -29.36,0 -3.905,3.905 -10.238,3.905 -14.142,0 l -136.4,-136.401 h -18.293 l 150.367,150.367 c 0.001,0.001 0.002,0.003 0.003,0.004 z m -151.739,-123.456 -42.346,-42.346 26.482,98.833 c 7.261,-0.117 14.484,1.737 20.954,5.474 6.47,3.735 11.676,9.046 15.216,15.409 l 45.005,-12.059 z m 63.38,-60.06 c 4.058,10.276 14.082,17.57 25.784,17.57 11.702,0 21.726,-7.294 25.785,-17.57 z m 151.674,31.877 -31.878,-31.877 h -47.394 c -4.665,21.451 -23.79,37.57 -46.619,37.57 -22.828,0 -41.954,-16.119 -46.619,-37.57 h -27.745 l 116.066,116.066 c 12.811,-7.636 28.937,-7.636 41.748,0 l 42.441,-42.441 c -7.635,-12.81 -7.635,-28.938 0,-41.748 M 29.999,298.003 V 217.86 c 0,-13.068 -10.633,-23.701 -23.702,-23.701 H -4 v 39.846 c 0,27.222 -21.87,49.415 -48.958,49.973 l 44.024,44.024 H 0 c 16.542,0 29.999,-13.457 29.999,-29.999 M 0,348.002 h -10.781 l -141.055,141.055 c -3.905,3.905 -10.238,3.905 -14.142,0 l -36.136,-36.137 -144.524,38.725 c -5.335,1.431 -10.819,-1.736 -12.248,-7.071 l -36.593,-136.572 h -24.509 c -23.158,0 -41.999,-18.84 -41.999,-41.999 0,-0.555 0.021,-1.106 0.042,-1.656 -0.023,-0.275 -0.042,-0.551 -0.042,-0.832 V 29.987 c 0,-27.569 22.43,-49.999 49.999,-49.999 h 357.989 c 0.155,0 0.307,0.011 0.462,0.013 H 0 c 27.569,0 49.998,22.429 49.998,49.998 V 298.003 C 49.999,325.574 27.569,348.002 0,348.002"
               style="stroke:none;fill:#000000;fill-opacity:1;fill-rule:nonzero"
               id="path30"
               transform="translate(403.9883,-141.6006)" /><path
               d="M 0,0 C 2.63,0 5.21,1.07 7.07,2.931 8.93,4.79 10,7.37 10,10 10,12.63 8.93,15.21 7.07,17.07 5.21,18.929 2.63,20 0,20 -2.63,20 -5.21,18.93 -7.07,17.07 -8.93,15.21 -10,12.63 -10,10 -10,7.37 -8.93,4.79 -7.07,2.931 -5.21,1.07 -2.63,0 0,0"
               style="fill:#000000;fill-opacity:1;fill-rule:nonzero;stroke:none"
               id="path34" /></g></g></g></g><g
       id="g36"
       style="stroke:none"><g
         clip-path="url(#clipPath42)"
         id="g38"
         style="stroke:none"><g
           transform="translate(55.5513,291.624)"
           id="g44"
           style="stroke:none"><path
             id="path46"
             style="fill:none;stroke:none;stroke-width:12;stroke-linecap:round;stroke-linejoin:round;stroke-miterlimit:10;stroke-dasharray:none;stroke-opacity:1"
             d="m 0,0 52.057,198.582 c 1.4,5.342 6.866,8.538 12.209,7.137 l 142.39,-37.326" /></g><g
           transform="translate(90.561,291.624)"
           id="g48"
           style="stroke:none"><path
             id="path50"
             style="fill:none;stroke:none;stroke-width:12;stroke-linecap:round;stroke-linejoin:round;stroke-miterlimit:10;stroke-dasharray:none;stroke-opacity:1"
             d="m 0,0 35.73,136.3 5.797,-0.373 c 14.674,-0.945 27.936,8.708 31.547,22.962 v 0.004 l 70.572,-18.5" /></g><g
           transform="translate(138.4722,291.6201)"
           id="g52"
           style="stroke:none"><path
             id="path54"
             style="fill:none;stroke:none;stroke-width:12;stroke-linecap:round;stroke-linejoin:round;stroke-miterlimit:10;stroke-dasharray:none;stroke-opacity:1"
             d="m 0,0 139.493,139.352 4.814,-3.25 c 12.187,-8.228 28.509,-6.597 38.826,3.881 l 0.002,0.002 52.634,-52.701 -0.001,-0.001 C 225.676,72.26 226.063,52.527 236.737,37.911 l 0.259,-0.354 -37.593,-37.552" /></g><g
           transform="translate(94.0952,291.9053)"
           id="g56"
           style="stroke:none"><path
             id="path58"
             style="fill:none;stroke:none;stroke-width:12;stroke-linecap:round;stroke-linejoin:round;stroke-miterlimit:10;stroke-dasharray:none;stroke-opacity:1"
             d="m 0,0 200.45,200.45 c 3.897,3.897 10.212,3.906 14.121,0.021 L 353.905,61.973 291.652,-0.28" /></g><g
           transform="translate(448.0005,353.8779)"
           id="g60"
           style="stroke:none"><path
             id="path62"
             style="fill:none;stroke:none;stroke-width:12;stroke-linecap:round;stroke-linejoin:round;stroke-miterlimit:10;stroke-dasharray:none;stroke-opacity:1"
             d="m 0,0 h 20 c 16.568,0 30,-13.432 30,-30 v -287.878 c 0,-16.568 -13.432,-30 -30,-30 h -432 c -16.569,0 -30,13.432 -30,30 V -30 c 0,16.568 13.431,30 30,30 h 35.871" /></g><g
           transform="translate(444,99)"
           id="g64"
           style="stroke:none"><path
             id="path66"
             style="fill:none;stroke:none;stroke-width:12;stroke-linecap:round;stroke-linejoin:round;stroke-miterlimit:10;stroke-dasharray:none;stroke-opacity:1"
             d="m 0,0 v -63 c 0,-16.568 -13.432,-30 -30,-30 h -378 c -16.568,0 -30,13.432 -30,30 v 215.75" /></g><g
           transform="translate(52.25,291.625)"
           id="g68"
           style="stroke:none"><path
             id="path70"
             style="fill:none;stroke:none;stroke-width:12;stroke-linecap:round;stroke-linejoin:round;stroke-miterlimit:10;stroke-dasharray:none;stroke-opacity:1"
             d="m 0,0 h 361.75 c 16.568,0 30,-13.432 30,-30 v -60.763" /></g><g
           transform="translate(498,152.167)"
           id="g72"
           style="stroke:none"><path
             id="path74"
             style="fill:none;stroke:none;stroke-width:12;stroke-linecap:round;stroke-linejoin:round;stroke-miterlimit:10;stroke-dasharray:none;stroke-opacity:1"
             d="m 0,0 v -23.167 c 0,-16.568 -13.432,-30 -30,-30 h -216.82 c -28.266,0 -51.18,22.914 -51.18,51.18 v 0.003 c 0,28.265 22.914,51.179 51.18,51.179 h 38.745" /></g><g
           transform="translate(352.4624,201.3623)"
           id="g76"
           style="stroke:none"><path
             id="path78"
             style="fill:none;stroke:none;stroke-width:12;stroke-linecap:round;stroke-linejoin:round;stroke-miterlimit:10;stroke-dasharray:none;stroke-opacity:1"
             d="M 0,0 H 104.371" /></g><g
           transform="translate(498,267.125)"
           id="g80"
           style="stroke:none"><path
             id="path82"
             style="fill:none;stroke:none;stroke-width:12;stroke-linecap:round;stroke-linejoin:round;stroke-miterlimit:10;stroke-dasharray:none;stroke-opacity:1"
             d="m 0,0 v -35.722 c 0,-16.568 -13.432,-30 -30,-30 h -35" /></g><g
           transform="translate(6.0093,321.3457)"
           id="g84"
           style="stroke:none"><path
             id="path86"
             style="fill:none;stroke:none;stroke-width:12;stroke-linecap:round;stroke-linejoin:round;stroke-miterlimit:10;stroke-dasharray:none;stroke-opacity:1"
             d="M 0,0 V 0.279 C 0,-16.29 13.378,-29.722 29.88,-29.722 h 34.86" /></g><g
           transform="translate(54.7529,139.791)"
           id="g88"
           style="stroke:none"><path
             id="path90"
             style="fill:none;stroke:none;stroke-width:12;stroke-linecap:round;stroke-linejoin:round;stroke-miterlimit:10;stroke-dasharray:none;stroke-opacity:1"
             d="M 0,0 V -133.791" /></g><g
           transform="translate(268.5,149)"
           id="g92"
           style="stroke:none"><path
             id="path94"
             style="fill:none;stroke:none;stroke-width:12;stroke-linecap:round;stroke-linejoin:round;stroke-miterlimit:10;stroke-dasharray:none;stroke-opacity:1"
             d="m 0,0 c 0,-9.941 -8.059,-18 -18,-18 -9.941,0 -18,8.059 -18,18 0,9.941 8.059,18 18,18 C -8.059,18 0,9.941 0,0 Z" /></g><g
           transform="translate(54.7529,169.293)"
           id="g96"
           style="stroke:none"><path
             id="path98"
             style="fill:none;stroke:none;stroke-width:12;stroke-linecap:round;stroke-linejoin:round;stroke-miterlimit:10;stroke-dasharray:none;stroke-opacity:1"
             d="M 0,0 V -1" /></g><g
           transform="translate(323.5552,201.8623)"
           id="g100"
           style="stroke:none"><path
             id="path102"
             style="fill:none;stroke:none;stroke-width:12;stroke-linecap:round;stroke-linejoin:round;stroke-miterlimit:10;stroke-dasharray:none;stroke-opacity:1"
             d="M 0,0 V -1" /></g><g
           transform="translate(199.8525,294.127)"
           id="g104"
           style="stroke:none"><path
             id="path106"
             style="fill:none;stroke:none;stroke-width:12;stroke-linecap:round;stroke-linejoin:round;stroke-miterlimit:10;stroke-dasharray:none;stroke-opacity:1"
             d="M 0,0 C 1.399,19.832 17.932,35.486 38.12,35.486 58.308,35.486 74.84,19.832 76.24,0" /></g></g></g></g></svg>