<?xml version="1.0" encoding="UTF-8" standalone="no"?>
<svg
   xmlns:dc="http://purl.org/dc/elements/1.1/"
   xmlns:cc="http://creativecommons.org/ns#"
   xmlns:rdf="http://www.w3.org/1999/02/22-rdf-syntax-ns#"
   xmlns:svg="http://www.w3.org/2000/svg"
   xmlns="http://www.w3.org/2000/svg"
   viewBox="0 0 60 60"
   height="60"
   width="60"
   xml:space="preserve"
   id="svg2"
   version="1.1"><metadata
     id="metadata8"><rdf:RDF><cc:Work
         rdf:about=""><dc:format>image/svg+xml</dc:format><dc:type
           rdf:resource="http://purl.org/dc/dcmitype/StillImage" /></cc:Work></rdf:RDF></metadata><defs
     id="defs6"><clipPath
       id="clipPath18"
       clipPathUnits="userSpaceOnUse"><path
         id="path16"
         d="M 0,45 H 45 V 0 H 0 Z" /></clipPath></defs><g
     transform="matrix(1.3333333,0,0,-1.3333333,0,60)"
     id="g10"><g
       id="g12"><g
         clip-path="url(#clipPath18)"
         id="g14"><g
           transform="translate(13.6993,41.0632)"
           id="g20"><path
             id="path22"
             style="fill:#010101;fill-opacity:1;fill-rule:nonzero;stroke:none"
             d="m 0,0 c -0.747,0 -1.45,-0.445 -1.755,-1.148 l -0.973,-2.245 c -0.43,-0.991 -1.27,-1.738 -2.304,-2.05 l -2.322,-0.701 c -0.861,-0.258 -1.417,-1.065 -1.352,-1.96 l 0.176,-2.469 c 0.076,-1.072 -0.32,-2.118 -1.084,-2.871 l -1.754,-1.729 c -0.637,-0.627 -0.755,-1.597 -0.286,-2.358 l 1.297,-2.109 c 0.561,-0.913 0.696,-2.021 0.368,-3.042 l -0.76,-2.361 c -0.273,-0.852 0.072,-1.767 0.843,-2.224 l 2.101,-1.248 c 0.927,-0.549 1.562,-1.473 1.743,-2.535 l 0.414,-2.428 c 0.151,-0.887 0.884,-1.54 1.785,-1.584 l 2.408,-0.12 c 1.082,-0.053 2.079,-0.579 2.735,-1.442 l 1.468,-1.933 c 0.54,-0.709 1.518,-0.95 2.325,-0.573 l 2.177,1.017 c 0.985,0.46 2.116,0.46 3.102,0 l 2.176,-1.017 c 0.808,-0.377 1.785,-0.136 2.326,0.574 l 1.467,1.932 c 0.656,0.863 1.653,1.389 2.736,1.442 l 2.408,0.12 c 0.9,0.044 1.634,0.697 1.785,1.584 l 0.414,2.428 c 0.181,1.062 0.815,1.986 1.741,2.535 l 2.103,1.248 c 0.769,0.457 1.116,1.372 0.842,2.225 l -0.759,2.36 c -0.328,1.021 -0.194,2.129 0.368,3.042 l 1.297,2.109 c 0.469,0.761 0.35,1.731 -0.286,2.358 l -1.754,1.729 c -0.765,0.753 -1.16,1.799 -1.084,2.871 l 0.176,2.469 c 0.064,0.895 -0.493,1.702 -1.352,1.96 l -2.323,0.701 c -1.034,0.312 -1.874,1.06 -2.304,2.051 l -0.973,2.244 c -0.353,0.816 -1.244,1.284 -2.117,1.113 L 14.883,-0.498 C 13.816,-0.707 12.72,-0.436 11.875,0.247 L 9.998,1.762 c -0.693,0.56 -1.701,0.56 -2.395,0 L 5.727,0.246 C 4.881,-0.437 3.785,-0.707 2.719,-0.498 L 0.361,-0.036 C 0.241,-0.012 0.12,0 0,0 m 4.279,-41.063 c -1.121,0 -2.222,0.511 -2.93,1.443 l -1.468,1.932 c -0.342,0.45 -0.86,0.723 -1.424,0.75 l -2.408,0.121 c -1.729,0.086 -3.139,1.338 -3.43,3.044 l -0.414,2.427 c -0.095,0.553 -0.425,1.034 -0.906,1.32 l -2.103,1.249 c -1.479,0.878 -2.144,2.634 -1.618,4.272 l 0.759,2.36 c 0.171,0.532 0.101,1.109 -0.191,1.584 l -1.297,2.109 c -0.9,1.462 -0.674,3.326 0.549,4.531 l 1.754,1.729 c 0.399,0.391 0.604,0.936 0.564,1.494 l -0.176,2.469 c -0.122,1.72 0.946,3.27 2.598,3.768 l 2.323,0.7 c 0.538,0.162 0.975,0.552 1.198,1.068 l 0.974,2.244 c 0.679,1.568 2.39,2.468 4.067,2.138 L 3.058,1.227 C 3.612,1.118 4.183,1.259 4.623,1.614 l 1.876,1.515 c 1.334,1.077 3.27,1.077 4.604,0 l 1.876,-1.515 c 0.44,-0.355 1.01,-0.497 1.565,-0.387 l 2.357,0.462 c 1.677,0.33 3.388,-0.57 4.068,-2.138 l 0.972,-2.244 c 0.224,-0.516 0.661,-0.905 1.2,-1.068 l 2.323,-0.7 c 1.651,-0.498 2.72,-2.048 2.597,-3.769 l -0.176,-2.468 c -0.039,-0.558 0.166,-1.103 0.564,-1.494 l 1.754,-1.729 c 1.224,-1.205 1.449,-3.069 0.55,-4.531 l -1.298,-2.109 c -0.292,-0.475 -0.361,-1.052 -0.19,-1.584 l 0.758,-2.36 c 0.527,-1.638 -0.138,-3.394 -1.618,-4.273 l -2.102,-1.248 c -0.482,-0.286 -0.813,-0.767 -0.907,-1.32 l -0.414,-2.427 c -0.291,-1.706 -1.701,-2.958 -3.429,-3.044 l -2.409,-0.121 c -0.564,-0.027 -1.082,-0.301 -1.424,-0.75 l -1.468,-1.932 c -1.036,-1.364 -2.915,-1.828 -4.468,-1.103 l -2.177,1.017 c -0.512,0.239 -1.1,0.239 -1.613,0 l -2.177,-1.017 c -0.492,-0.23 -1.017,-0.34 -1.538,-0.34" /></g><g
           transform="translate(11.3155,32.8074)"
           id="g24"><path
             id="path26"
             style="fill:#010101;fill-opacity:1;fill-rule:nonzero;stroke:none"
             d="m 0,0 c -0.227,0 -0.452,0.087 -0.624,0.261 -0.342,0.344 -0.339,0.901 0.006,1.243 l 0.013,0.013 C -0.261,1.857 0.296,1.855 0.638,1.51 0.979,1.165 0.976,0.608 0.631,0.268 L 0.618,0.255 C 0.447,0.085 0.224,0 0,0" /></g><g
           transform="translate(37.0684,15.4519)"
           id="g28"><path
             id="path30"
             style="fill:#010101;fill-opacity:1;fill-rule:nonzero;stroke:none"
             d="m 0,0 c -0.114,0 -0.23,0.022 -0.342,0.069 -0.447,0.19 -0.656,0.705 -0.467,1.152 2.383,5.633 1.128,12.067 -3.196,16.392 -4.837,4.837 -12.315,5.778 -18.187,2.288 -0.417,-0.248 -0.956,-0.111 -1.204,0.307 -0.249,0.417 -0.111,0.956 0.306,1.204 6.564,3.901 14.922,2.85 20.327,-2.557 2.397,-2.396 3.991,-5.417 4.608,-8.739 C 2.448,6.875 2.09,3.563 0.81,0.536 0.668,0.201 0.343,0 0,0" /></g><g
           transform="translate(33.6719,10.4236)"
           id="g32"><path
             id="path34"
             style="fill:#010101;fill-opacity:1;fill-rule:nonzero;stroke:none"
             d="m 0,0 c -0.227,0 -0.453,0.087 -0.625,0.261 -0.341,0.344 -0.339,0.901 0.007,1.242 l 0.013,0.013 C -0.261,1.857 0.296,1.854 0.637,1.51 0.979,1.165 0.976,0.608 0.631,0.267 L 0.618,0.254 C 0.446,0.085 0.223,0 0,0" /></g><g
           transform="translate(22.5079,5.7947)"
           id="g36"><path
             id="path38"
             style="fill:#010101;fill-opacity:1;fill-rule:nonzero;stroke:none"
             d="m 0,0 c -4.317,0 -8.591,1.676 -11.813,4.899 -2.397,2.397 -3.991,5.418 -4.608,8.74 -0.603,3.241 -0.245,6.553 1.035,9.58 0.189,0.447 0.704,0.656 1.152,0.467 0.447,-0.19 0.656,-0.706 0.466,-1.152 C -16.15,16.901 -14.896,10.467 -10.571,6.142 -7.687,3.258 -3.862,1.759 0,1.759 2.614,1.758 5.246,2.445 7.616,3.854 8.033,4.102 8.572,3.965 8.82,3.547 9.068,3.13 8.931,2.591 8.514,2.343 5.864,0.769 2.922,0 0,0" /></g><g
           transform="translate(17.5528,13.6179)"
           id="g40"><path
             id="path42"
             style="fill:#010101;fill-opacity:1;fill-rule:nonzero;stroke:none"
             d="m 0,0 c -0.146,0 -0.295,0.037 -0.432,0.114 -0.422,0.239 -0.572,0.775 -0.333,1.198 l 8.147,14.431 c 0.238,0.423 0.774,0.572 1.197,0.334 0.423,-0.239 0.571,-0.775 0.333,-1.198 L 0.766,0.447 C 0.604,0.161 0.307,0 0,0" /></g><g
           transform="translate(27.794,18.5945)"
           id="g44"><path
             id="path46"
             style="fill:#010101;fill-opacity:1;fill-rule:nonzero;stroke:none"
             d="m 0,0 c -1.066,0 -1.934,-0.867 -1.934,-1.933 0,-1.066 0.868,-1.933 1.934,-1.933 1.066,0 1.934,0.867 1.934,1.933 C 1.934,-0.867 1.066,0 0,0 m 0,-5.624 c -2.035,0 -3.69,1.655 -3.69,3.691 0,2.036 1.655,3.691 3.69,3.691 2.035,0 3.69,-1.655 3.69,-3.691 0,-2.036 -1.655,-3.691 -3.69,-3.691" /></g><g
           transform="translate(17.2061,30.2732)"
           id="g48"><path
             id="path50"
             style="fill:#010101;fill-opacity:1;fill-rule:nonzero;stroke:none"
             d="m 0,0 c -1.066,0 -1.934,-0.867 -1.934,-1.933 0,-1.066 0.868,-1.933 1.934,-1.933 1.065,0 1.934,0.867 1.934,1.933 C 1.934,-0.867 1.065,0 0,0 m 0,-5.624 c -2.035,0 -3.69,1.655 -3.69,3.691 0,2.036 1.655,3.691 3.69,3.691 2.035,0 3.69,-1.655 3.69,-3.691 0,-2.036 -1.655,-3.691 -3.69,-3.691" /></g></g></g></g></svg>