<?xml version="1.0" encoding="UTF-8" standalone="no"?>
<svg
   xmlns:dc="http://purl.org/dc/elements/1.1/"
   xmlns:cc="http://creativecommons.org/ns#"
   xmlns:rdf="http://www.w3.org/1999/02/22-rdf-syntax-ns#"
   xmlns:svg="http://www.w3.org/2000/svg"
   xmlns="http://www.w3.org/2000/svg"
   viewBox="0 0 60 60"
   height="60"
   width="60"
   xml:space="preserve"
   id="svg2"
   version="1.1"><metadata
     id="metadata8"><rdf:RDF><cc:Work
         rdf:about=""><dc:format>image/svg+xml</dc:format><dc:type
           rdf:resource="http://purl.org/dc/dcmitype/StillImage" /></cc:Work></rdf:RDF></metadata><defs
     id="defs6"><clipPath
       id="clipPath18"
       clipPathUnits="userSpaceOnUse"><path
         id="path16"
         d="M 0,45 H 45 V 0 H 0 Z" /></clipPath></defs><g
     transform="matrix(1.3333333,0,0,-1.3333333,0,60)"
     id="g10"><g
       id="g12"><g
         clip-path="url(#clipPath18)"
         id="g14"><g
           transform="translate(23.5587,34.412)"
           id="g20"><path
             id="path22"
             style="fill:#231200;fill-opacity:1;fill-rule:nonzero;stroke:none"
             d="m 0,0 c -1.588,0.529 -3.44,0 -4.765,-1.06 -1.323,-1.058 -2.117,-2.646 -2.117,-4.5 0,-0.794 0.529,-1.323 1.323,-1.323 0.794,0 1.325,0.529 1.325,1.323 0,0.795 0.263,1.854 1.057,2.383 0.794,0.53 1.589,0.795 2.648,0.53 1.324,-0.265 2.118,-1.324 2.383,-2.382 0.264,-1.325 0,-2.383 -1.059,-3.177 -2.118,-1.588 -3.178,-3.972 -3.178,-6.354 0,-0.794 0.53,-1.323 1.324,-1.323 0.794,0 1.324,0.529 1.059,1.323 0,1.589 1.059,3.177 2.383,4.236 C 4.235,-8.736 5.03,-6.618 4.5,-4.5 3.971,-2.118 2.118,-0.53 0,0" /></g><g
           transform="translate(21.4415,12.9706)"
           id="g24"><path
             id="path26"
             style="fill:#231200;fill-opacity:1;fill-rule:nonzero;stroke:none"
             d="m 0,0 c -0.266,-0.265 -0.266,-0.794 -0.266,-1.059 0,-0.264 0,-0.53 0.266,-0.794 0.265,-0.264 0.794,-0.53 1.059,-0.53 0.264,0 0.794,0.266 0.794,0.53 0.264,0 0.529,0.53 0.529,0.794 0,0.53 -0.265,0.794 -0.529,1.059 C 1.323,0.529 0.529,0.529 0,0" /></g><g
           transform="translate(22.5001,2.6474)"
           id="g28"><path
             id="path30"
             style="fill:#231200;fill-opacity:1;fill-rule:nonzero;stroke:none"
             d="m 0,0 c -10.853,0 -19.853,9 -19.853,19.853 0,10.852 9,19.852 19.853,19.852 10.853,0 19.853,-9 19.853,-19.852 C 19.853,9 10.853,0 0,0 m 0,42.353 c -12.441,0 -22.5,-10.059 -22.5,-22.5 0,-12.442 10.059,-22.5 22.5,-22.5 12.441,0 22.5,10.058 22.5,22.5 0,12.441 -10.059,22.5 -22.5,22.5" /></g></g></g></g></svg>