<?xml version="1.0" encoding="UTF-8" standalone="no"?>
<svg
   xmlns:dc="http://purl.org/dc/elements/1.1/"
   xmlns:cc="http://creativecommons.org/ns#"
   xmlns:rdf="http://www.w3.org/1999/02/22-rdf-syntax-ns#"
   xmlns:svg="http://www.w3.org/2000/svg"
   xmlns="http://www.w3.org/2000/svg"
   xmlns:sodipodi="http://sodipodi.sourceforge.net/DTD/sodipodi-0.dtd"
   xmlns:inkscape="http://www.inkscape.org/namespaces/inkscape"
   viewBox="0 0 60 61.25"
   height="61.25"
   width="60"
   xml:space="preserve"
   version="1.1"
   id="svg2"
   sodipodi:docname="summ.svg"
   inkscape:version="0.92.1 r15371"><sodipodi:namedview
     pagecolor="#ffffff"
     bordercolor="#666666"
     borderopacity="1"
     objecttolerance="10"
     gridtolerance="10"
     guidetolerance="10"
     inkscape:pageopacity="0"
     inkscape:pageshadow="2"
     inkscape:window-width="640"
     inkscape:window-height="480"
     id="namedview22"
     showgrid="false"
     inkscape:zoom="3.8530612"
     inkscape:cx="30"
     inkscape:cy="30.625"
     inkscape:window-x="0"
     inkscape:window-y="0"
     inkscape:window-maximized="0"
     inkscape:current-layer="svg2" /><metadata
     id="metadata8"><rdf:RDF><cc:Work
         rdf:about=""><dc:format>image/svg+xml</dc:format><dc:type
           rdf:resource="http://purl.org/dc/dcmitype/StillImage" /></cc:Work></rdf:RDF></metadata><defs
     id="defs6"><clipPath
       id="clipPath16"
       clipPathUnits="userSpaceOnUse"><path
         id="path18"
         d="M 0,49 48,49 48,0 0,0 0,49 Z" /></clipPath><clipPath
       id="clipPath32"
       clipPathUnits="userSpaceOnUse"><path
         id="path34"
         d="M 0,0 48,0 48,49 0,49 0,0 Z" /></clipPath></defs><g
     transform="matrix(1.25,0,0,-1.25,0,61.25)"
     id="g10"
     style="fill:#000000"><g
       id="g12"
       style="fill:#000000"><g
         clip-path="url(#clipPath16)"
         id="g14"
         style="fill:#000000"><g
           transform="translate(11.2538,45.5004)"
           id="g20"
           style="fill:#000000"><path
             id="path22"
             style="fill:#000000;fill-opacity:1;fill-rule:nonzero;stroke:none"
             d="m 0,0 c 0.031,0.148 0.129,0.418 0.477,0.53 0.742,0.247 1.437,0.372 2.079,0.372 0.987,0 1.85,-0.293 2.577,-0.875 0.875,-0.704 2.097,-0.699 2.972,0 1.204,0.961 2.766,1.128 4.658,0.503 C 13.109,0.418 13.207,0.148 13.238,0 13.289,-0.277 13.188,-0.555 12.961,-0.746 11.738,-1.781 10.648,-4.41 10.441,-5.004 10.34,-5.302 10.07,-5.5 9.77,-5.5 l -5.942,0 c -0.301,0 -0.57,0.198 -0.672,0.496 C 2.82,-4.035 1.336,-1.648 0.277,-0.746 0.051,-0.555 -0.055,-0.277 0,0 m 1.642,-5.523 c 0.327,-0.942 1.202,-1.575 2.182,-1.575 l 5.946,0 c 0.98,0 1.859,0.633 2.183,1.575 0.314,0.902 1.285,2.914 2.043,3.553 0.664,0.564 0.978,1.435 0.813,2.275 C 14.648,1.133 14.07,1.785 13.267,2.051 10.863,2.848 8.734,2.578 7.105,1.277 6.816,1.043 6.422,1.043 6.133,1.277 4.504,2.578 2.375,2.848 -0.026,2.051 -0.832,1.785 -1.41,1.133 -1.569,0.305 c -0.164,-0.84 0.147,-1.711 0.811,-2.275 0.857,-0.721 2.168,-2.882 2.4,-3.553" /></g><g
           transform="translate(24.8524,36.8011)"
           id="g24"
           style="fill:#000000"><path
             id="path26"
             style="fill:#000000;fill-opacity:1;fill-rule:nonzero;stroke:none"
             d="M 0,0 C 0,0.44 -0.36,0.801 -0.802,0.801 -0.95,0.801 -1.079,0.746 -1.2,0.676 -1.317,0.75 -1.45,0.801 -1.599,0.801 l -9.601,0 C -11.642,0.801 -12,0.44 -12,0 c 0,-0.441 0.358,-0.801 0.8,-0.801 l 9.601,0 0,-0.802 -8.8,0 c -0.442,0 -0.801,-0.354 -0.801,-0.795 0,-0.446 0.359,-0.801 0.801,-0.801 l 9.539,0 c 0.718,-0.598 1.601,-0.938 2.543,-0.938 1.07,0 2.074,0.414 2.828,1.172 0.312,0.313 0.312,0.817 0,1.129 -0.313,0.313 -0.817,0.313 -1.129,0 C 2.476,-2.738 0.909,-2.742 0,-1.848 L 0,0 Z" /></g></g></g><g
       id="g28"
       style="fill:#000000"><g
         clip-path="url(#clipPath32)"
         id="g30"
         style="fill:#000000"><g
           transform="translate(16.8524,27.1986)"
           id="g36"
           style="fill:#000000"><path
             id="path38"
             style="fill:#000000;fill-opacity:1;fill-rule:nonzero;stroke:none"
             d="m 0,0 c -5.13,0 -11.2,-6.503 -11.2,-12 0,-0.44 0.359,-0.796 0.801,-0.796 0.442,0 0.8,0.356 0.8,0.796 0,4.571 5.383,10.403 9.599,10.403 0.44,0 0.8,0.356 0.8,0.801 C 0.8,-0.354 0.44,0 0,0" /></g><g
           transform="translate(39.2538,13.6019)"
           id="g40"
           style="fill:#000000"><path
             id="path42"
             style="fill:#000000;fill-opacity:1;fill-rule:nonzero;stroke:none"
             d="m 0,0 c -3.766,0 -6.187,1.152 -6.398,1.594 0,0.914 0.003,1.839 0.003,2.609 0.02,-0.008 0.043,-0.016 0.063,-0.024 0.191,-0.082 0.391,-0.159 0.605,-0.23 L -5.691,3.938 C -5.477,3.867 -5.246,3.804 -5.012,3.746 -4.934,3.727 -4.855,3.711 -4.776,3.691 -4.605,3.652 -4.434,3.613 -4.258,3.582 -4.172,3.566 -4.086,3.547 -4,3.535 -3.805,3.5 -3.608,3.469 -3.41,3.441 -3.348,3.429 -3.289,3.422 -3.227,3.41 -2.969,3.379 -2.707,3.347 -2.453,3.32 -2.387,3.316 -2.324,3.313 -2.258,3.304 -2.063,3.289 -1.867,3.273 -1.672,3.258 -1.59,3.254 -1.508,3.25 -1.426,3.242 c 0.18,-0.008 0.357,-0.015 0.528,-0.023 0.074,-0.004 0.144,-0.004 0.218,-0.008 0.236,-0.008 0.461,-0.012 0.676,-0.012 0.219,0 0.445,0.004 0.68,0.012 C 0.75,3.215 0.824,3.215 0.895,3.219 1.066,3.227 1.242,3.234 1.418,3.242 1.504,3.25 1.586,3.254 1.672,3.258 1.863,3.273 2.059,3.289 2.258,3.304 2.32,3.313 2.383,3.316 2.449,3.324 2.707,3.347 2.965,3.379 3.224,3.414 3.285,3.422 3.349,3.433 3.41,3.441 3.609,3.469 3.806,3.5 3.996,3.535 4.086,3.551 4.168,3.566 4.254,3.582 4.431,3.617 4.605,3.652 4.777,3.695 4.855,3.711 4.935,3.73 5.013,3.75 5.25,3.808 5.484,3.871 5.703,3.945 l 0.035,0.012 c 0.207,0.066 0.407,0.145 0.594,0.222 0.023,0.012 0.047,0.02 0.07,0.028 L 6.406,1.656 C 6.203,1.16 3.773,0 0,0 m 0,-9.602 c -1.52,0 -3.031,0.204 -4.273,0.567 l 0,0.004 c 0.079,0.258 0.136,0.527 0.179,0.796 0.012,0.067 0.025,0.13 0.032,0.196 0.036,0.277 0.062,0.554 0.062,0.84 0,0.207 -0.012,0.41 -0.031,0.613 -0.008,0.074 -0.02,0.149 -0.031,0.219 -0.012,0.105 -0.024,0.207 -0.043,0.308 1.214,-0.222 2.625,-0.344 4.105,-0.344 1.91,0 4.676,0.247 6.402,1.008 L 6.406,-7.946 C 6.203,-8.438 3.773,-9.602 0,-9.602 M -10.401,-12 c -2.63,0 -4.767,2.121 -4.798,4.742 0,0.062 0.005,0.125 0.005,0.187 0.003,0.086 0.006,0.176 0.014,0.262 0.004,0.074 0.012,0.145 0.024,0.219 0.008,0.074 0.019,0.149 0.031,0.223 0.039,0.207 0.082,0.41 0.148,0.609 0.004,0.023 0.016,0.043 0.02,0.062 0.07,0.204 0.148,0.399 0.242,0.591 0.012,0.015 0.021,0.034 0.027,0.05 0.43,0.848 1.114,1.563 1.938,2.035 0.004,0 0.004,0.004 0.008,0.004 0.187,0.11 0.384,0.195 0.586,0.278 0.051,0.019 0.105,0.039 0.156,0.058 0.176,0.063 0.359,0.117 0.543,0.157 0.027,0.007 0.051,0.015 0.078,0.019 0.231,0.047 0.461,0.074 0.691,0.086 0.047,0.004 0.09,0.008 0.133,0.008 0.24,0.007 0.473,0 0.703,-0.028 0.016,0 0.028,-0.004 0.039,-0.004 0.248,-0.031 0.489,-0.081 0.727,-0.148 0.004,0 0.008,-0.004 0.012,-0.004 0.246,-0.07 0.484,-0.164 0.722,-0.273 0.215,-0.102 0.426,-0.219 0.622,-0.348 l 0.031,-0.023 c 0.027,-0.02 0.054,-0.043 0.082,-0.059 0.134,-0.098 0.259,-0.199 0.384,-0.305 0.026,-0.027 0.057,-0.054 0.085,-0.082 0.122,-0.113 0.238,-0.23 0.347,-0.355 0.012,-0.012 0.025,-0.023 0.035,-0.035 0.254,-0.297 0.473,-0.625 0.649,-0.977 0.043,-0.078 0.082,-0.16 0.117,-0.242 0.063,-0.141 0.117,-0.281 0.164,-0.426 0,-0.008 0.008,-0.019 0.008,-0.031 0.047,-0.145 0.086,-0.289 0.117,-0.437 0.004,-0.012 0.008,-0.024 0.008,-0.036 0.031,-0.148 0.055,-0.297 0.07,-0.445 0.004,-0.016 0.004,-0.028 0.008,-0.039 0.017,-0.164 0.023,-0.328 0.023,-0.492 0,-0.172 -0.006,-0.34 -0.027,-0.508 0,-0.023 -0.008,-0.047 -0.008,-0.074 -0.019,-0.145 -0.039,-0.29 -0.07,-0.43 -0.004,-0.016 -0.012,-0.031 -0.012,-0.047 -0.035,-0.152 -0.078,-0.301 -0.125,-0.453 L -5.852,-8.727 C -5.906,-8.883 -5.965,-9.035 -6.035,-9.188 -6.793,-10.844 -8.465,-12 -10.401,-12 m -6.029,2.398 -14.527,0 c -0.184,0 -0.367,0.008 -0.551,0.02 -1.57,0.105 -3.234,1.734 -4.68,4.586 -2.984,5.886 -1.3,13.184 3.981,17.336 l 5.66,4.125 c 0.93,0.73 2.094,1.132 3.274,1.132 l 6.222,0 c 1.293,0 2.469,-0.691 3.262,-1.296 l 5.763,-3.914 C -6.598,11.289 -5.401,9.945 -4.473,8.383 -5.483,8.176 -6.465,7.855 -7.137,7.39 L -7.191,7.352 C -7.293,7.277 -7.387,7.199 -7.473,7.117 -7.508,7.086 -7.539,7.051 -7.569,7.012 -7.637,6.945 -7.694,6.875 -7.746,6.797 -7.785,6.738 -7.815,6.672 -7.848,6.605 -7.879,6.547 -7.91,6.488 -7.93,6.426 -7.977,6.289 -8.004,6.148 -8.004,6 l 0,-7.273 c -0.269,0.109 -0.547,0.199 -0.832,0.269 -0.039,0.012 -0.078,0.019 -0.113,0.031 -0.281,0.067 -0.567,0.113 -0.86,0.141 -0.031,0.004 -0.066,0.004 -0.097,0.004 -0.163,0.016 -0.327,0.027 -0.495,0.027 -0.091,0 -0.173,-0.011 -0.263,-0.015 -0.066,0 -0.133,-0.005 -0.203,-0.008 -0.284,-0.024 -0.567,-0.055 -0.84,-0.11 -0.004,-0.003 -0.008,-0.003 -0.016,-0.003 -0.019,-0.005 -0.043,-0.016 -0.062,-0.02 -0.25,-0.055 -0.496,-0.129 -0.735,-0.211 -0.085,-0.031 -0.171,-0.062 -0.256,-0.094 -0.236,-0.098 -0.47,-0.203 -0.693,-0.324 -0.082,-0.047 -0.164,-0.098 -0.242,-0.149 -0.156,-0.093 -0.309,-0.195 -0.457,-0.304 -0.086,-0.063 -0.172,-0.125 -0.258,-0.191 -0.187,-0.153 -0.367,-0.313 -0.535,-0.489 -0.074,-0.074 -0.141,-0.152 -0.211,-0.234 -0.121,-0.133 -0.234,-0.274 -0.344,-0.418 -0.058,-0.078 -0.121,-0.152 -0.175,-0.231 -0.141,-0.207 -0.266,-0.421 -0.383,-0.644 -0.043,-0.086 -0.086,-0.176 -0.125,-0.266 -0.094,-0.195 -0.176,-0.394 -0.245,-0.601 -0.021,-0.059 -0.048,-0.117 -0.064,-0.176 -0.086,-0.262 -0.143,-0.535 -0.191,-0.809 -0.008,-0.035 -0.02,-0.07 -0.028,-0.105 -0.003,-0.043 -0.003,-0.09 -0.01,-0.133 -0.025,-0.187 -0.039,-0.379 -0.048,-0.57 -0.004,-0.071 -0.012,-0.137 -0.012,-0.207 0,-0.032 -0.004,-0.059 -0.004,-0.09 0,-0.125 0.012,-0.25 0.02,-0.375 0.031,-0.692 0.14,-1.387 0.351,-2.024 m 10.568,9.028 c 0.073,-0.031 0.147,-0.059 0.221,-0.09 0.141,-0.055 0.283,-0.106 0.43,-0.157 0.078,-0.027 0.152,-0.05 0.234,-0.077 0.168,-0.051 0.34,-0.102 0.52,-0.149 0.062,-0.015 0.121,-0.035 0.184,-0.051 0.242,-0.058 0.492,-0.117 0.747,-0.164 0.049,-0.011 0.108,-0.019 0.159,-0.031 0.203,-0.035 0.41,-0.07 0.621,-0.102 0.09,-0.015 0.181,-0.027 0.269,-0.039 0.18,-0.023 0.365,-0.046 0.543,-0.062 0.098,-0.012 0.197,-0.02 0.289,-0.032 0.188,-0.015 0.379,-0.027 0.571,-0.038 0.082,-0.005 0.168,-0.012 0.255,-0.016 0.272,-0.012 0.546,-0.02 0.815,-0.02 0.274,0 0.547,0.008 0.82,0.02 0.086,0.004 0.172,0.011 0.258,0.016 0.189,0.011 0.379,0.023 0.564,0.038 0.1,0.008 0.198,0.02 0.297,0.032 0.178,0.016 0.358,0.039 0.534,0.062 0.094,0.012 0.187,0.024 0.277,0.039 0.207,0.028 0.41,0.063 0.609,0.102 0.059,0.012 0.119,0.02 0.172,0.031 0.254,0.051 0.5,0.106 0.743,0.164 0.066,0.016 0.128,0.036 0.195,0.055 0.177,0.047 0.344,0.094 0.512,0.145 0.079,0.027 0.156,0.054 0.234,0.077 0.148,0.051 0.289,0.102 0.431,0.157 0.073,0.031 0.147,0.059 0.217,0.09 0.145,0.058 0.283,0.125 0.414,0.191 0.043,0.02 0.09,0.035 0.129,0.059 L 6.406,-3.145 C 6.219,-3.598 4.152,-4.613 0.892,-4.778 0.599,-4.785 0.312,-4.801 -0.004,-4.801 c -1.762,0 -3.5,0.27 -4.832,0.746 -0.004,0.008 -0.008,0.016 -0.016,0.024 -0.092,0.164 -0.191,0.324 -0.299,0.48 -0.017,0.023 -0.036,0.047 -0.052,0.066 -0.102,0.141 -0.203,0.278 -0.317,0.411 -0.031,0.039 -0.066,0.074 -0.101,0.113 -0.098,0.113 -0.198,0.223 -0.305,0.324 -0.054,0.055 -0.113,0.102 -0.168,0.157 -0.093,0.082 -0.182,0.167 -0.281,0.245 -0.008,0.008 -0.02,0.02 -0.026,0.024 l 0,1.883 c 0.043,-0.02 0.089,-0.039 0.131,-0.059 0.133,-0.066 0.266,-0.129 0.408,-0.187 M 6.336,6.008 C 6.32,5.988 6.309,5.972 6.285,5.953 6.254,5.929 6.215,5.902 6.172,5.875 6.121,5.844 6.056,5.808 5.988,5.773 5.931,5.742 5.871,5.715 5.801,5.683 5.719,5.645 5.621,5.609 5.52,5.57 5.437,5.539 5.355,5.508 5.262,5.477 5.145,5.441 5.008,5.402 4.875,5.363 4.77,5.336 4.664,5.304 4.547,5.273 4.395,5.238 4.227,5.203 4.056,5.168 3.926,5.14 3.806,5.113 3.664,5.09 3.474,5.054 3.258,5.027 3.047,5 2.902,4.98 2.767,4.957 2.609,4.937 2.359,4.91 2.082,4.89 1.806,4.871 1.664,4.859 1.535,4.844 1.392,4.836 0.953,4.812 0.488,4.797 -0.004,4.797 -0.496,4.797 -0.961,4.812 -1.398,4.836 -1.543,4.844 -1.672,4.859 -1.812,4.871 -2.09,4.89 -2.367,4.91 -2.617,4.937 -2.773,4.957 -2.91,4.98 -3.055,5 -3.266,5.027 -3.48,5.054 -3.672,5.09 c -0.141,0.023 -0.262,0.05 -0.39,0.078 -0.171,0.035 -0.339,0.07 -0.493,0.105 -0.117,0.031 -0.221,0.059 -0.328,0.09 -0.133,0.039 -0.268,0.078 -0.387,0.114 -0.092,0.031 -0.174,0.062 -0.256,0.093 -0.103,0.039 -0.201,0.075 -0.283,0.113 -0.07,0.032 -0.128,0.059 -0.187,0.09 -0.066,0.035 -0.133,0.071 -0.184,0.102 -0.043,0.027 -0.082,0.054 -0.113,0.078 -0.019,0.019 -0.031,0.031 -0.047,0.051 0.008,0.008 0.016,0.016 0.028,0.023 0.027,0.024 0.07,0.051 0.113,0.078 0.062,0.043 0.144,0.09 0.238,0.137 0.055,0.028 0.106,0.051 0.164,0.078 0.064,0.027 0.137,0.055 0.211,0.086 0.086,0.031 0.18,0.066 0.281,0.102 0.072,0.023 0.141,0.046 0.219,0.07 0.18,0.055 0.375,0.109 0.59,0.16 0.101,0.024 0.215,0.047 0.324,0.07 0.129,0.028 0.266,0.055 0.406,0.079 0.158,0.027 0.322,0.054 0.493,0.082 0.902,0.136 1.98,0.23 3.269,0.23 3.777,0 5.896,-0.781 6.34,-1.191 M 0,8.801 c -0.828,0 -1.809,-0.051 -2.801,-0.164 -1.074,1.972 -2.496,3.672 -4.289,5.042 l -5.762,3.918 c -0.953,0.731 -2.457,1.602 -4.199,1.602 l -6.219,0 c -1.539,0 -3.054,-0.523 -4.242,-1.457 l -5.66,-4.125 c -5.902,-4.64 -7.769,-12.773 -4.44,-19.336 1.211,-2.386 3.233,-5.273 6,-5.461 0.214,-0.016 0.436,-0.023 0.655,-0.023 l 15.566,0 c 1.176,-1.461 2.973,-2.399 4.99,-2.399 2.319,0 4.346,1.242 5.471,3.094 1.43,-0.441 3.18,-0.695 4.93,-0.695 3.849,0 8,1.223 8,3.203 l 0,4.398 -0.065,0 C 7.974,-3.473 8,-3.34 8,-3.203 L 8,6 C 8,8.211 2.969,8.801 0,8.801" /></g></g></g></g></svg>