<?xml version="1.0" encoding="UTF-8" standalone="no"?>
<svg
   xmlns:dc="http://purl.org/dc/elements/1.1/"
   xmlns:cc="http://creativecommons.org/ns#"
   xmlns:rdf="http://www.w3.org/1999/02/22-rdf-syntax-ns#"
   xmlns:svg="http://www.w3.org/2000/svg"
   xmlns="http://www.w3.org/2000/svg"
   viewBox="0 0 830.69464 680"
   height="680"
   width="830.69464"
   xml:space="preserve"
   id="svg2"
   version="1.1"><metadata
     id="metadata8"><rdf:RDF><cc:Work
         rdf:about=""><dc:format>image/svg+xml</dc:format><dc:type
           rdf:resource="http://purl.org/dc/dcmitype/StillImage" /><dc:title></dc:title></cc:Work></rdf:RDF></metadata><defs
     id="defs6"><clipPath
       id="clipPath18"
       clipPathUnits="userSpaceOnUse"><path
         id="path16"
         d="M 0,510 H 623.021 V 0 H 0 Z" /></clipPath><clipPath
       id="clipPath218"
       clipPathUnits="userSpaceOnUse"><path
         id="path216"
         d="M 0,510 H 623.021 V 0 H 0 Z" /></clipPath></defs><g
     transform="matrix(1.3333333,0,0,-1.3333333,0,680)"
     id="g10"><g
       style="stroke:none"
       id="g12"><g
         style="stroke:none"
         clip-path="url(#clipPath18)"
         id="g14"><g
           style="stroke:none"
           transform="translate(577.6305,459.1558)"
           id="g20" /><g
           style="stroke:none"
           transform="translate(577.6305,459.1558)"
           id="g24"><path
             id="path26"
             style="fill:none;stroke:none;stroke-width:3;stroke-linecap:butt;stroke-linejoin:miter;stroke-miterlimit:10;stroke-dasharray:none;stroke-opacity:1"
             d="m 0,0 h -12.787 c -4.646,0 -8.41,3.765 -8.41,8.411 0,4.646 3.764,8.41 8.41,8.41 H 0 c 4.646,0 8.411,-3.764 8.411,-8.41 C 8.411,3.765 4.646,0 0,0 Z" /></g><g
           style="stroke:none"
           transform="translate(532.214,459.1558)"
           id="g28" /><g
           style="stroke:none"
           transform="translate(532.214,459.1558)"
           id="g32"><path
             id="path34"
             style="fill:none;stroke:none;stroke-width:3;stroke-linecap:butt;stroke-linejoin:miter;stroke-miterlimit:10;stroke-dasharray:none;stroke-opacity:1"
             d="m 0,0 h -12.787 c -4.646,0 -8.411,3.765 -8.411,8.411 0,4.646 3.765,8.41 8.411,8.41 H 0 c 4.646,0 8.411,-3.764 8.411,-8.41 C 8.411,3.765 4.646,0 0,0 Z" /></g><g
           style="stroke:none"
           transform="translate(485.6764,459.1558)"
           id="g36" /><g
           style="stroke:none"
           transform="translate(485.6764,459.1558)"
           id="g40"><path
             id="path42"
             style="fill:none;stroke:none;stroke-width:3;stroke-linecap:butt;stroke-linejoin:miter;stroke-miterlimit:10;stroke-dasharray:none;stroke-opacity:1"
             d="m 0,0 h -12.788 c -4.646,0 -8.41,3.765 -8.41,8.411 0,4.646 3.764,8.41 8.41,8.41 H 0 c 4.646,0 8.41,-3.764 8.41,-8.41 C 8.41,3.765 4.646,0 0,0 Z" /></g><path
           id="path46"
           style="fill:none;stroke:none;stroke-width:3;stroke-linecap:butt;stroke-linejoin:miter;stroke-miterlimit:10;stroke-dasharray:none;stroke-opacity:1"
           d="M 215.078,55.474 H 180.736 V 89.72 h 34.342 z m -42.752,51.067 c -4.646,0 -8.411,-3.765 -8.411,-8.411 V 47.063 c 0,-4.646 3.765,-8.411 8.411,-8.411 h 51.162 c 4.646,0 8.411,3.765 8.411,8.411 V 98.13 c 0,4.646 -3.765,8.411 -8.411,8.411 z" /><g
           style="stroke:none"
           transform="translate(410.7906,87.5967)"
           id="g48" /><g
           style="stroke:none"
           transform="translate(410.7906,87.5967)"
           id="g52"><path
             id="path54"
             style="fill:none;stroke:none;stroke-width:3;stroke-linecap:butt;stroke-linejoin:miter;stroke-miterlimit:10;stroke-dasharray:none;stroke-opacity:1"
             d="m 0,0 c 0,4.646 -3.765,8.41 -8.411,8.41 h -141.615 c -4.646,0 -8.411,-3.764 -8.411,-8.41 0,-4.646 3.765,-8.41 8.411,-8.41 H -8.411 C -3.766,-8.41 0,-4.646 0,0 Z" /></g><path
           id="path58"
           style="fill:none;stroke:none;stroke-width:3;stroke-linecap:butt;stroke-linejoin:miter;stroke-miterlimit:10;stroke-dasharray:none;stroke-opacity:1"
           d="M 608.795,443.028 H 389.42 v 49.077 h 219.375 z m -236.196,0 H 126.594 v 49.077 h 246.005 z m 244.606,65.898 H 381.009 118.183 c -4.645,0 -8.41,-3.765 -8.41,-8.411 V 434.617 6.593 c 0,-4.647 3.765,-8.41 8.41,-8.41 h 373.069 c 4.646,0 8.41,3.763 8.41,8.41 0,4.645 -3.764,8.41 -8.41,8.41 H 126.594 v 108.469 h 369.778 c -7.679,2.945 -15.285,6.385 -22.89,10.188 -2.853,1.631 -5.377,4.087 -7.971,6.632 H 126.594 V 426.207 H 381.009 608.795 V 140.292 h -56.298 c -8.422,-4.461 -16.154,-10.595 -23.547,-16.82 h 79.845 V 15.002 h -66.791 c -4.646,0 -8.411,-3.765 -8.411,-8.41 0,-4.647 3.765,-8.411 8.411,-8.411 h 75.201 c 4.646,0 8.41,3.764 8.41,8.411 v 428.025 65.898 c 0,4.645 -3.764,8.411 -8.41,8.411 z" /><g
           style="stroke:none"
           transform="translate(286.9772,475.9766)"
           id="g60" /><g
           style="stroke:none"
           transform="translate(286.9772,475.9766)"
           id="g64"><path
             id="path66"
             style="fill:none;stroke:none;stroke-width:3;stroke-linecap:butt;stroke-linejoin:miter;stroke-miterlimit:10;stroke-dasharray:none;stroke-opacity:1"
             d="m 0,0 h -129.323 c -4.646,0 -8.41,-3.765 -8.41,-8.41 0,-4.646 3.764,-8.411 8.41,-8.411 H -0.001 c 4.646,0 8.41,3.765 8.41,8.411 C 8.409,-3.764 4.645,0 0,0 Z" /></g><g
           style="stroke:none"
           transform="translate(346.7555,66.0068)"
           id="g68" /><g
           style="stroke:none"
           transform="translate(346.7555,66.0068)"
           id="g72"><path
             id="path74"
             style="fill:none;stroke:none;stroke-width:3;stroke-linecap:butt;stroke-linejoin:miter;stroke-miterlimit:10;stroke-dasharray:none;stroke-opacity:1"
             d="m 0,0 h -85.991 c -4.645,0 -8.41,-3.766 -8.41,-8.411 0,-4.645 3.765,-8.41 8.41,-8.41 H 0 c 4.645,0 8.41,3.765 8.41,8.41 C 8.411,-3.766 4.645,0 0,0 Z" /></g><path
           id="path78"
           style="fill:none;stroke:none;stroke-width:3;stroke-linecap:butt;stroke-linejoin:miter;stroke-miterlimit:10;stroke-dasharray:none;stroke-opacity:1"
           d="m 215.078,180.068 h -34.342 v 34.246 h 34.342 z m -42.752,51.068 c -4.646,0 -8.411,-3.765 -8.411,-8.411 v -51.068 c 0,-4.645 3.765,-8.41 8.411,-8.41 h 51.162 c 4.646,0 8.411,3.765 8.411,8.41 v 51.068 c 0,4.646 -3.765,8.411 -8.411,8.411 z" /><g
           style="stroke:none"
           transform="translate(410.7906,212.1914)"
           id="g80" /><g
           style="stroke:none"
           transform="translate(410.7906,212.1914)"
           id="g84"><path
             id="path86"
             style="fill:none;stroke:none;stroke-width:3;stroke-linecap:butt;stroke-linejoin:miter;stroke-miterlimit:10;stroke-dasharray:none;stroke-opacity:1"
             d="m 0,0 c 0,4.646 -3.765,8.41 -8.411,8.41 h -141.615 c -4.646,0 -8.411,-3.764 -8.411,-8.41 0,-4.646 3.765,-8.41 8.411,-8.41 H -8.411 C -3.766,-8.41 0,-4.646 0,0 Z" /></g><g
           style="stroke:none"
           transform="translate(346.7555,190.6016)"
           id="g88" /><g
           style="stroke:none"
           transform="translate(346.7555,190.6016)"
           id="g92"><path
             id="path94"
             style="fill:none;stroke:none;stroke-width:3;stroke-linecap:butt;stroke-linejoin:miter;stroke-miterlimit:10;stroke-dasharray:none;stroke-opacity:1"
             d="m 0,0 h -85.991 c -4.645,0 -8.41,-3.766 -8.41,-8.411 0,-4.645 3.765,-8.41 8.41,-8.41 H 0 c 4.645,0 8.41,3.765 8.41,8.41 C 8.411,-3.766 4.645,0 0,0 Z" /></g><g
           style="stroke:none"
           transform="translate(427.1368,264.5859)"
           id="g96" /><g
           style="stroke:none"
           transform="translate(427.1368,264.5859)"
           id="g100"><path
             id="path102"
             style="fill:none;stroke:none;stroke-width:3;stroke-linecap:butt;stroke-linejoin:miter;stroke-miterlimit:10;stroke-dasharray:none;stroke-opacity:1"
             d="M 0,0 H -308.116 V -16.821 H -0.003 Z" /></g><path
           id="path106"
           style="fill:none;stroke:none;stroke-width:3;stroke-linecap:butt;stroke-linejoin:miter;stroke-miterlimit:10;stroke-dasharray:none;stroke-opacity:1"
           d="m 215.078,304.485 h -34.342 v 34.246 h 34.342 z m -42.752,51.067 c -4.646,0 -8.411,-3.764 -8.411,-8.41 v -51.068 c 0,-4.645 3.765,-8.41 8.411,-8.41 h 51.162 c 4.646,0 8.411,3.765 8.411,8.41 v 51.068 c 0,4.646 -3.765,8.41 -8.411,8.41 z" /><g
           style="stroke:none"
           transform="translate(410.7906,336.6089)"
           id="g108" /><g
           style="stroke:none"
           transform="translate(410.7906,336.6089)"
           id="g112"><path
             id="path114"
             style="fill:none;stroke:none;stroke-width:3;stroke-linecap:butt;stroke-linejoin:miter;stroke-miterlimit:10;stroke-dasharray:none;stroke-opacity:1"
             d="m 0,0 c 0,4.646 -3.765,8.41 -8.411,8.41 h -141.615 c -4.646,0 -8.411,-3.764 -8.411,-8.41 0,-4.646 3.765,-8.411 8.411,-8.411 H -8.411 C -3.766,-8.411 0,-4.646 0,0 Z" /></g><g
           style="stroke:none"
           transform="translate(346.7555,315.0186)"
           id="g116" /><g
           style="stroke:none"
           transform="translate(346.7555,315.0186)"
           id="g120"><path
             id="path122"
             style="fill:none;stroke:none;stroke-width:3;stroke-linecap:butt;stroke-linejoin:miter;stroke-miterlimit:10;stroke-dasharray:none;stroke-opacity:1"
             d="m 0,0 h -85.991 c -4.645,0 -8.41,-3.766 -8.41,-8.411 0,-4.645 3.765,-8.41 8.41,-8.41 H 0 c 4.645,0 8.41,3.765 8.41,8.41 C 8.411,-3.766 4.645,0 0,0 Z" /></g><g
           style="stroke:none"
           transform="translate(479.2828,389.0024)"
           id="g124" /><g
           style="stroke:none"
           transform="translate(479.2828,389.0024)"
           id="g128"><path
             id="path130"
             style="fill:none;stroke:none;stroke-width:3;stroke-linecap:butt;stroke-linejoin:miter;stroke-miterlimit:10;stroke-dasharray:none;stroke-opacity:1"
             d="M 0,0 H -360.262 V -16.821 H -26.199 Z" /></g><g
           style="stroke:none"
           transform="translate(621.1876,389.0024)"
           id="g132" /><g
           style="stroke:none"
           transform="translate(621.1876,389.0024)"
           id="g136"><path
             id="path138"
             style="fill:none;stroke:none;stroke-width:3;stroke-linecap:butt;stroke-linejoin:miter;stroke-miterlimit:10;stroke-dasharray:none;stroke-opacity:1"
             d="m 0,0 h -64.056 l 14.105,-16.821 h 49.948 z" /></g><g
           style="stroke:none"
           transform="translate(75.3776,456.0479)"
           id="g140" /><g
           style="stroke:none"
           transform="translate(75.3776,456.0479)"
           id="g144"><path
             id="path146"
             style="fill:none;stroke:none;stroke-width:3;stroke-linecap:butt;stroke-linejoin:miter;stroke-miterlimit:10;stroke-dasharray:none;stroke-opacity:1"
             d="m 0,0 h -34.981 c -4.646,0 -8.411,-3.764 -8.411,-8.41 0,-4.646 3.765,-8.411 8.411,-8.411 H 0 c 4.646,0 8.41,3.765 8.41,8.411 C 8.41,-3.764 4.646,0 0,0 Z" /></g><g
           style="stroke:none"
           transform="translate(75.3776,319.1055)"
           id="g148" /><g
           style="stroke:none"
           transform="translate(75.3776,319.1055)"
           id="g152"><path
             id="path154"
             style="fill:none;stroke:none;stroke-width:3;stroke-linecap:butt;stroke-linejoin:miter;stroke-miterlimit:10;stroke-dasharray:none;stroke-opacity:1"
             d="m 0,0 h -34.981 c -4.646,0 -8.411,-3.765 -8.411,-8.411 0,-4.646 3.765,-8.41 8.411,-8.41 H 0 c 4.646,0 8.41,3.764 8.41,8.41 C 8.41,-3.765 4.646,0 0,0 Z" /></g><g
           style="stroke:none"
           transform="translate(75.3776,409.335)"
           id="g156" /><g
           style="stroke:none"
           transform="translate(75.3776,409.335)"
           id="g160"><path
             id="path162"
             style="fill:none;stroke:none;stroke-width:3;stroke-linecap:butt;stroke-linejoin:miter;stroke-miterlimit:10;stroke-dasharray:none;stroke-opacity:1"
             d="m 0,0 h -60.967 c -4.646,0 -8.41,-3.764 -8.41,-8.41 0,-4.646 3.764,-8.411 8.41,-8.411 H 0 c 4.646,0 8.41,3.765 8.41,8.411 C 8.41,-3.764 4.646,0 0,0 Z" /></g><g
           style="stroke:none"
           transform="translate(75.3776,366.583)"
           id="g164" /><g
           style="stroke:none"
           transform="translate(75.3776,366.583)"
           id="g168"><path
             id="path170"
             style="fill:none;stroke:none;stroke-width:3;stroke-linecap:butt;stroke-linejoin:miter;stroke-miterlimit:10;stroke-dasharray:none;stroke-opacity:1"
             d="m 0,0 h -60.967 c -4.646,0 -8.41,-3.765 -8.41,-8.411 0,-4.646 3.764,-8.41 8.41,-8.41 H 0 c 4.646,0 8.41,3.764 8.41,8.41 C 8.41,-3.765 4.646,0 0,0 Z" /></g><g
           style="stroke:none"
           transform="translate(586.8292,197.8613)"
           id="g172" /><g
           style="stroke:none"
           transform="translate(586.8292,197.8613)"
           id="g176"><path
             id="path178"
             style="fill:none;stroke:none;stroke-width:3;stroke-linecap:butt;stroke-linejoin:miter;stroke-miterlimit:10;stroke-dasharray:none;stroke-opacity:1"
             d="m 0,0 c 0,-7.422 -1.425,-26.36 -14.636,-41.858 -12.755,-14.96 -32.657,-22.543 -59.16,-22.543 -26.502,0 -46.409,7.583 -59.16,22.543 -13.211,15.498 -14.64,34.436 -14.64,41.858 v 123.475 c 0,7.422 1.429,26.36 14.64,41.858 12.751,14.959 32.658,22.542 59.16,22.542 26.503,0 46.405,-7.583 59.16,-22.542 C -1.425,149.835 0,130.897 0,123.475 Z m -73.796,199.966 c -63.394,0 -85.89,-41.205 -85.89,-76.491 V 0 c 0,-35.287 22.496,-76.491 85.89,-76.491 63.395,0 85.886,41.204 85.886,76.491 v 123.475 c 0,35.286 -22.491,76.491 -85.886,76.491 z" /></g><g
           style="stroke:none"
           transform="translate(503.5094,307.4077)"
           id="g180"><g
             style="fill:#000000"
             id="g5117"><path
               transform="translate(74.121099,151.7481)"
               d="m 0,0 h -12.787 c -4.646,0 -8.41,3.765 -8.41,8.411 0,4.646 3.764,8.41 8.41,8.41 H 0 c 4.646,0 8.411,-3.764 8.411,-8.41 C 8.411,3.765 4.646,0 0,0"
               style="stroke:none;fill:#000000;fill-opacity:1;fill-rule:nonzero"
               id="path22" /><path
               transform="translate(28.704601,151.7481)"
               d="m 0,0 h -12.787 c -4.646,0 -8.411,3.765 -8.411,8.411 0,4.646 3.765,8.41 8.411,8.41 H 0 c 4.646,0 8.411,-3.764 8.411,-8.41 C 8.411,3.765 4.646,0 0,0"
               style="stroke:none;fill:#000000;fill-opacity:1;fill-rule:nonzero"
               id="path30" /><path
               transform="translate(-17.832998,151.7481)"
               d="m 0,0 h -12.788 c -4.646,0 -8.41,3.765 -8.41,8.411 0,4.646 3.764,8.41 8.41,8.41 H 0 c 4.646,0 8.41,-3.764 8.41,-8.41 C 8.41,3.765 4.646,0 0,0"
               style="stroke:none;fill:#000000;fill-opacity:1;fill-rule:nonzero"
               id="path38" /><path
               transform="translate(-503.5094,-307.4077)"
               d="M 215.078,55.474 H 180.736 V 89.72 h 34.342 z m -42.752,51.067 c -4.646,0 -8.411,-3.765 -8.411,-8.411 V 47.063 c 0,-4.646 3.765,-8.411 8.411,-8.411 h 51.162 c 4.646,0 8.411,3.765 8.411,8.411 V 98.13 c 0,4.646 -3.765,8.411 -8.411,8.411 z"
               style="stroke:none;fill:#000000;fill-opacity:1;fill-rule:nonzero"
               id="path44" /><path
               transform="translate(-92.718797,-219.811)"
               d="m 0,0 c 0,4.646 -3.765,8.41 -8.411,8.41 h -141.615 c -4.646,0 -8.411,-3.764 -8.411,-8.41 0,-4.646 3.765,-8.41 8.411,-8.41 H -8.411 C -3.766,-8.41 0,-4.646 0,0"
               style="stroke:none;fill:#000000;fill-opacity:1;fill-rule:nonzero"
               id="path50" /><path
               transform="translate(-503.5094,-307.4077)"
               d="M 608.795,443.028 H 389.42 v 49.077 h 219.375 z m -236.196,0 H 126.594 v 49.077 h 246.005 z m 244.606,65.898 H 381.009 118.183 c -4.645,0 -8.41,-3.765 -8.41,-8.411 V 434.617 6.593 c 0,-4.647 3.765,-8.41 8.41,-8.41 h 373.069 c 4.646,0 8.41,3.763 8.41,8.41 0,4.645 -3.764,8.41 -8.41,8.41 H 126.594 v 108.469 h 369.778 c -7.679,2.945 -15.285,6.385 -22.89,10.188 -2.853,1.631 -5.377,4.087 -7.971,6.632 H 126.594 V 426.207 H 381.009 608.795 V 140.292 h -56.298 c -8.422,-4.461 -16.154,-10.595 -23.547,-16.82 h 79.845 V 15.002 h -66.791 c -4.646,0 -8.411,-3.765 -8.411,-8.41 0,-4.647 3.765,-8.411 8.411,-8.411 h 75.201 c 4.646,0 8.41,3.764 8.41,8.411 v 428.025 65.898 c 0,4.645 -3.764,8.411 -8.41,8.411"
               style="stroke:none;fill:#000000;fill-opacity:1;fill-rule:nonzero"
               id="path56" /><path
               transform="translate(-216.5322,168.5689)"
               d="m 0,0 h -129.323 c -4.646,0 -8.41,-3.765 -8.41,-8.41 0,-4.646 3.764,-8.411 8.41,-8.411 H -0.001 c 4.646,0 8.41,3.765 8.41,8.411 C 8.409,-3.764 4.645,0 0,0"
               style="stroke:none;fill:#000000;fill-opacity:1;fill-rule:nonzero"
               id="path62" /><path
               transform="translate(-156.7539,-241.4009)"
               d="m 0,0 h -85.991 c -4.645,0 -8.41,-3.766 -8.41,-8.411 0,-4.645 3.765,-8.41 8.41,-8.41 H 0 c 4.645,0 8.41,3.765 8.41,8.41 C 8.411,-3.766 4.645,0 0,0"
               style="stroke:none;fill:#000000;fill-opacity:1;fill-rule:nonzero"
               id="path70" /><path
               transform="translate(-503.5094,-307.4077)"
               d="m 215.078,180.068 h -34.342 v 34.246 h 34.342 z m -42.752,51.068 c -4.646,0 -8.411,-3.765 -8.411,-8.411 v -51.068 c 0,-4.645 3.765,-8.41 8.411,-8.41 h 51.162 c 4.646,0 8.411,3.765 8.411,8.41 v 51.068 c 0,4.646 -3.765,8.411 -8.411,8.411 z"
               style="stroke:none;fill:#000000;fill-opacity:1;fill-rule:nonzero"
               id="path76" /><path
               transform="translate(-92.718797,-95.2163)"
               d="m 0,0 c 0,4.646 -3.765,8.41 -8.411,8.41 h -141.615 c -4.646,0 -8.411,-3.764 -8.411,-8.41 0,-4.646 3.765,-8.41 8.411,-8.41 H -8.411 C -3.766,-8.41 0,-4.646 0,0"
               style="stroke:none;fill:#000000;fill-opacity:1;fill-rule:nonzero"
               id="path82" /><path
               transform="translate(-156.7539,-116.8061)"
               d="m 0,0 h -85.991 c -4.645,0 -8.41,-3.766 -8.41,-8.411 0,-4.645 3.765,-8.41 8.41,-8.41 H 0 c 4.645,0 8.41,3.765 8.41,8.41 C 8.411,-3.766 4.645,0 0,0"
               style="stroke:none;fill:#000000;fill-opacity:1;fill-rule:nonzero"
               id="path90" /><path
               transform="translate(-76.372599,-42.821801)"
               d="M 0,0 H -308.116 V -16.821 H -0.003 Z"
               style="stroke:none;fill:#000000;fill-opacity:1;fill-rule:nonzero"
               id="path98" /><path
               transform="translate(-503.5094,-307.4077)"
               d="m 215.078,304.485 h -34.342 v 34.246 h 34.342 z m -42.752,51.067 c -4.646,0 -8.411,-3.764 -8.411,-8.41 v -51.068 c 0,-4.645 3.765,-8.41 8.411,-8.41 h 51.162 c 4.646,0 8.411,3.765 8.411,8.41 v 51.068 c 0,4.646 -3.765,8.41 -8.411,8.41 z"
               style="stroke:none;fill:#000000;fill-opacity:1;fill-rule:nonzero"
               id="path104" /><path
               transform="translate(-92.718797,29.201203)"
               d="m 0,0 c 0,4.646 -3.765,8.41 -8.411,8.41 h -141.615 c -4.646,0 -8.411,-3.764 -8.411,-8.41 0,-4.646 3.765,-8.411 8.411,-8.411 H -8.411 C -3.766,-8.411 0,-4.646 0,0"
               style="stroke:none;fill:#000000;fill-opacity:1;fill-rule:nonzero"
               id="path110" /><path
               transform="translate(-156.7539,7.6109004)"
               d="m 0,0 h -85.991 c -4.645,0 -8.41,-3.766 -8.41,-8.411 0,-4.645 3.765,-8.41 8.41,-8.41 H 0 c 4.645,0 8.41,3.765 8.41,8.41 C 8.411,-3.766 4.645,0 0,0"
               style="stroke:none;fill:#000000;fill-opacity:1;fill-rule:nonzero"
               id="path118" /><path
               transform="translate(-24.226598,81.594697)"
               d="M 0,0 H -360.262 V -16.821 H -26.199 Z"
               style="stroke:none;fill:#000000;fill-opacity:1;fill-rule:nonzero"
               id="path126" /><path
               transform="translate(117.6782,81.594697)"
               d="m 0,0 h -64.056 l 14.105,-16.821 h 49.948 z"
               style="stroke:none;fill:#000000;fill-opacity:1;fill-rule:nonzero"
               id="path134" /><path
               transform="translate(-428.1318,148.6402)"
               d="m 0,0 h -34.981 c -4.646,0 -8.411,-3.764 -8.411,-8.41 0,-4.646 3.765,-8.411 8.411,-8.411 H 0 c 4.646,0 8.41,3.765 8.41,8.411 C 8.41,-3.764 4.646,0 0,0"
               style="stroke:none;fill:#000000;fill-opacity:1;fill-rule:nonzero"
               id="path142" /><path
               transform="translate(-428.1318,11.6978)"
               d="m 0,0 h -34.981 c -4.646,0 -8.411,-3.765 -8.411,-8.411 0,-4.646 3.765,-8.41 8.411,-8.41 H 0 c 4.646,0 8.41,3.764 8.41,8.41 C 8.41,-3.765 4.646,0 0,0"
               style="stroke:none;fill:#000000;fill-opacity:1;fill-rule:nonzero"
               id="path150" /><path
               transform="translate(-428.1318,101.9273)"
               d="m 0,0 h -60.967 c -4.646,0 -8.41,-3.764 -8.41,-8.41 0,-4.646 3.764,-8.411 8.41,-8.411 H 0 c 4.646,0 8.41,3.765 8.41,8.411 C 8.41,-3.764 4.646,0 0,0"
               style="stroke:none;fill:#000000;fill-opacity:1;fill-rule:nonzero"
               id="path158" /><path
               transform="translate(-428.1318,59.175299)"
               d="m 0,0 h -60.967 c -4.646,0 -8.41,-3.765 -8.41,-8.411 0,-4.646 3.764,-8.41 8.41,-8.41 H 0 c 4.646,0 8.41,3.764 8.41,8.41 C 8.41,-3.765 4.646,0 0,0"
               style="stroke:none;fill:#000000;fill-opacity:1;fill-rule:nonzero"
               id="path166" /><path
               transform="translate(83.319797,-109.5464)"
               d="m 0,0 c 0,-7.422 -1.425,-26.36 -14.636,-41.858 -12.755,-14.96 -32.657,-22.543 -59.16,-22.543 -26.502,0 -46.409,7.583 -59.16,22.543 -13.211,15.498 -14.64,34.436 -14.64,41.858 v 123.475 c 0,7.422 1.429,26.36 14.64,41.858 12.751,14.959 32.658,22.542 59.16,22.542 26.503,0 46.405,-7.583 59.16,-22.542 C -1.425,149.835 0,130.897 0,123.475 Z m -73.796,199.966 c -63.394,0 -85.89,-41.205 -85.89,-76.491 V 0 c 0,-35.287 22.496,-76.491 85.89,-76.491 63.395,0 85.886,41.204 85.886,76.491 v 123.475 c 0,35.286 -22.491,76.491 -85.886,76.491"
               style="stroke:none;fill:#000000;fill-opacity:1;fill-rule:nonzero"
               id="path174" /><path
               d="m 0,0 v 28.69 c 0,5.25 4.27,9.524 9.524,9.524 5.25,0 9.52,-4.274 9.52,-9.524 V 0 c 0,-5.253 -4.27,-9.524 -9.52,-9.524 C 4.27,-9.524 0,-5.253 0,0 m 15.569,-41.764 v 21.016 C 24.55,-18.127 31.134,-9.82 31.134,0 v 28.69 c 0,9.82 -6.584,18.127 -15.565,20.749 v 10.755 c 0,3.342 -2.707,6.045 -6.045,6.045 -3.341,0 -6.045,-2.703 -6.045,-6.045 V 49.439 C -5.506,46.817 -12.09,38.51 -12.09,28.69 V 0 c 0,-9.82 6.584,-18.127 15.569,-20.748 v -21.016 h -49.62 c -3.338,0 -6.045,-2.707 -6.045,-6.045 0,-3.337 2.707,-6.045 6.045,-6.045 H 65.185 c 3.341,0 6.044,2.708 6.044,6.045 0,3.338 -2.703,6.045 -6.044,6.045 z"
               style="fill:#000000;fill-opacity:1;fill-rule:nonzero;stroke:none"
               id="path182" /></g></g><g
           style="stroke:none"
           transform="translate(503.5094,307.4077)"
           id="g184"><path
             id="path186"
             style="fill:none;stroke:none;stroke-width:3;stroke-linecap:butt;stroke-linejoin:miter;stroke-miterlimit:10;stroke-dasharray:none;stroke-opacity:1"
             d="m 0,0 v 28.69 c 0,5.25 4.27,9.524 9.524,9.524 5.25,0 9.52,-4.274 9.52,-9.524 V 0 c 0,-5.253 -4.27,-9.524 -9.52,-9.524 C 4.27,-9.524 0,-5.253 0,0 Z m 15.569,-41.764 v 21.016 C 24.55,-18.127 31.134,-9.82 31.134,0 v 28.69 c 0,9.82 -6.584,18.127 -15.565,20.749 v 10.755 c 0,3.342 -2.707,6.045 -6.045,6.045 -3.341,0 -6.045,-2.703 -6.045,-6.045 V 49.439 C -5.506,46.817 -12.09,38.51 -12.09,28.69 V 0 c 0,-9.82 6.584,-18.127 15.569,-20.748 v -21.016 h -49.62 c -3.338,0 -6.045,-2.707 -6.045,-6.045 0,-3.337 2.707,-6.045 6.045,-6.045 H 65.185 c 3.341,0 6.044,2.708 6.044,6.045 0,3.338 -2.703,6.045 -6.044,6.045 z" /></g></g></g><g
       style="stroke:none"
       transform="translate(147.7823,467.5664)"
       id="g188"><path
         id="path190"
         style="fill:none;stroke:none;stroke-width:12;stroke-linecap:round;stroke-linejoin:round;stroke-miterlimit:10;stroke-dasharray:none;stroke-opacity:1"
         d="M 0,0 H 147.604" /></g><g
       style="stroke:none"
       transform="translate(453.0323,467.5664)"
       id="g192"><path
         id="path194"
         style="fill:none;stroke:none;stroke-width:12;stroke-linecap:round;stroke-linejoin:round;stroke-miterlimit:10;stroke-dasharray:none;stroke-opacity:1"
         d="M 0,0 H 32" /></g><g
       style="stroke:none"
       transform="translate(504.8204,467.5664)"
       id="g196"><path
         id="path198"
         style="fill:none;stroke:none;stroke-width:12;stroke-linecap:round;stroke-linejoin:round;stroke-miterlimit:10;stroke-dasharray:none;stroke-opacity:1"
         d="M 0,0 H 32" /></g><g
       style="stroke:none"
       transform="translate(555.2369,467.5664)"
       id="g200"><path
         id="path202"
         style="fill:none;stroke:none;stroke-width:12;stroke-linecap:round;stroke-linejoin:round;stroke-miterlimit:10;stroke-dasharray:none;stroke-opacity:1"
         d="M 0,0 H 32" /></g><g
       style="stroke:none"
       transform="translate(250.7823,336.6089)"
       id="g204"><path
         id="path206"
         style="fill:none;stroke:none;stroke-width:12;stroke-linecap:round;stroke-linejoin:round;stroke-miterlimit:10;stroke-dasharray:none;stroke-opacity:1"
         d="M 0,0 H 161.667" /></g><g
       style="stroke:none"
       transform="translate(250.7823,306.6079)"
       id="g208"><path
         id="path210"
         style="fill:none;stroke:none;stroke-width:12;stroke-linecap:round;stroke-linejoin:round;stroke-miterlimit:10;stroke-dasharray:none;stroke-opacity:1"
         d="M 0,0 H 106.334" /></g><g
       style="stroke:none"
       id="g212"><g
         style="stroke:none"
         clip-path="url(#clipPath218)"
         id="g214"><g
           style="stroke:none"
           transform="translate(221.0128,293.4541)"
           id="g220"><path
             id="path222"
             style="fill:none;stroke:none;stroke-width:12;stroke-linecap:round;stroke-linejoin:round;stroke-miterlimit:10;stroke-dasharray:none;stroke-opacity:1"
             d="m 0,0 h -46.308 c -2.761,0 -5,2.239 -5,5 v 46.308 c 0,2.761 2.239,5 5,5 H 0 c 2.762,0 5,-2.239 5,-5 V 5 C 5,2.239 2.762,0 0,0 Z" /></g><g
           style="stroke:none"
           transform="translate(221.0128,169.0371)"
           id="g224"><path
             id="path226"
             style="fill:none;stroke:none;stroke-width:12;stroke-linecap:round;stroke-linejoin:round;stroke-miterlimit:10;stroke-dasharray:none;stroke-opacity:1"
             d="m 0,0 h -46.308 c -2.761,0 -5,2.239 -5,5 v 46.308 c 0,2.761 2.239,5 5,5 H 0 c 2.762,0 5,-2.239 5,-5 V 5 C 5,2.239 2.762,0 0,0 Z" /></g><g
           style="stroke:none"
           transform="translate(221.0128,44.4424)"
           id="g228"><path
             id="path230"
             style="fill:none;stroke:none;stroke-width:12;stroke-linecap:round;stroke-linejoin:round;stroke-miterlimit:10;stroke-dasharray:none;stroke-opacity:1"
             d="m 0,0 h -46.308 c -2.761,0 -5,2.239 -5,5 v 46.308 c 0,2.761 2.239,5 5,5 H 0 c 2.762,0 5,-2.239 5,-5 V 5 C 5,2.239 2.762,0 0,0 Z" /></g><g
           style="stroke:none"
           transform="translate(250.7823,212.1914)"
           id="g232"><path
             id="path234"
             style="fill:none;stroke:none;stroke-width:12;stroke-linecap:round;stroke-linejoin:round;stroke-miterlimit:10;stroke-dasharray:none;stroke-opacity:1"
             d="M 0,0 H 161.667" /></g><g
           style="stroke:none"
           transform="translate(250.7823,182.1904)"
           id="g236"><path
             id="path238"
             style="fill:none;stroke:none;stroke-width:12;stroke-linecap:round;stroke-linejoin:round;stroke-miterlimit:10;stroke-dasharray:none;stroke-opacity:1"
             d="M 0,0 H 106.334" /></g><g
           style="stroke:none"
           transform="translate(250.7823,87.5967)"
           id="g240"><path
             id="path242"
             style="fill:none;stroke:none;stroke-width:12;stroke-linecap:round;stroke-linejoin:round;stroke-miterlimit:10;stroke-dasharray:none;stroke-opacity:1"
             d="M 0,0 H 161.667" /></g><g
           style="stroke:none"
           transform="translate(250.7823,57.5957)"
           id="g244"><path
             id="path246"
             style="fill:none;stroke:none;stroke-width:12;stroke-linecap:round;stroke-linejoin:round;stroke-miterlimit:10;stroke-dasharray:none;stroke-opacity:1"
             d="M 0,0 H 106.334" /></g><g
           style="stroke:none"
           transform="translate(499.6373,6)"
           id="g248"><path
             id="path250"
             style="fill:none;stroke:none;stroke-width:12;stroke-linecap:round;stroke-linejoin:round;stroke-miterlimit:10;stroke-dasharray:none;stroke-opacity:1"
             d="m 0,0 h -370.617 c -5.523,0 -10,4.478 -10,10 v 478 c 0,5.523 4.477,10 10,10 h 478 c 5.523,0 10,-4.477 10,-10 V 10 c 0,-5.522 -4.477,-10 -10,-10 H 33.986" /></g><g
           style="stroke:none"
           transform="translate(119.0206,435.2271)"
           id="g252"><path
             id="path254"
             style="fill:none;stroke:none;stroke-width:12;stroke-linecap:round;stroke-linejoin:round;stroke-miterlimit:10;stroke-dasharray:none;stroke-opacity:1"
             d="M 0,0 H 498" /></g><g
           style="stroke:none"
           transform="translate(119.0206,380.5923)"
           id="g256"><path
             id="path258"
             style="fill:none;stroke:none;stroke-width:12;stroke-linecap:round;stroke-linejoin:round;stroke-miterlimit:10;stroke-dasharray:none;stroke-opacity:1"
             d="M 0,0 H 318.123" /></g><g
           style="stroke:none"
           transform="translate(119.0206,131.7578)"
           id="g260"><path
             id="path262"
             style="fill:none;stroke:none;stroke-width:12;stroke-linecap:round;stroke-linejoin:round;stroke-miterlimit:10;stroke-dasharray:none;stroke-opacity:1"
             d="M 0,0 H 318.123" /></g><g
           style="stroke:none"
           transform="translate(119.0206,256.1748)"
           id="g264"><path
             id="path266"
             style="fill:none;stroke:none;stroke-width:12;stroke-linecap:round;stroke-linejoin:round;stroke-miterlimit:10;stroke-dasharray:none;stroke-opacity:1"
             d="M 0,0 H 291.77" /></g><g
           style="stroke:none"
           transform="translate(589.1598,380.5923)"
           id="g268"><path
             id="path270"
             style="fill:none;stroke:none;stroke-width:12;stroke-linecap:round;stroke-linejoin:round;stroke-miterlimit:10;stroke-dasharray:none;stroke-opacity:1"
             d="M 0,0 H 27.861" /></g><g
           style="stroke:none"
           transform="translate(589.1598,131.7578)"
           id="g272"><path
             id="path274"
             style="fill:none;stroke:none;stroke-width:12;stroke-linecap:round;stroke-linejoin:round;stroke-miterlimit:10;stroke-dasharray:none;stroke-opacity:1"
             d="M 0,0 H 27.861" /></g><g
           style="stroke:none"
           transform="translate(381.4489,504)"
           id="g276"><path
             id="path278"
             style="fill:none;stroke:none;stroke-width:12;stroke-linecap:round;stroke-linejoin:round;stroke-miterlimit:10;stroke-dasharray:none;stroke-opacity:1"
             d="M 0,0 V -68.773" /></g><g
           style="stroke:none"
           transform="translate(31.9859,447.6377)"
           id="g280"><path
             id="path282"
             style="fill:none;stroke:none;stroke-width:12;stroke-linecap:round;stroke-linejoin:round;stroke-miterlimit:10;stroke-dasharray:none;stroke-opacity:1"
             d="M 0,0 H 51.802" /></g><g
           style="stroke:none"
           transform="translate(6.0001,400.9248)"
           id="g284"><path
             id="path286"
             style="fill:none;stroke:none;stroke-width:12;stroke-linecap:round;stroke-linejoin:round;stroke-miterlimit:10;stroke-dasharray:none;stroke-opacity:1"
             d="M 0,0 H 79.455" /></g><g
           style="stroke:none"
           transform="translate(6.0001,358.1724)"
           id="g288"><path
             id="path290"
             style="fill:none;stroke:none;stroke-width:12;stroke-linecap:round;stroke-linejoin:round;stroke-miterlimit:10;stroke-dasharray:none;stroke-opacity:1"
             d="M 0,0 H 79.455" /></g><g
           style="stroke:none"
           transform="translate(30.4488,310.6948)"
           id="g292"><path
             id="path294"
             style="fill:none;stroke:none;stroke-width:12;stroke-linecap:round;stroke-linejoin:round;stroke-miterlimit:10;stroke-dasharray:none;stroke-opacity:1"
             d="M 0,0 H 55.006" /></g><g
           style="stroke:none"
           transform="translate(513.1158,127.333)"
           id="g296"><path
             id="path298"
             style="fill:none;stroke:none;stroke-width:12;stroke-linecap:round;stroke-linejoin:round;stroke-miterlimit:10;stroke-dasharray:none;stroke-opacity:1"
             d="m 0,0 v 0 c -43.999,0 -79.667,35.668 -79.667,79.667 v 106.666 c 0,44 35.668,79.667 79.667,79.667 43.999,0 79.667,-35.667 79.667,-79.667 V 79.667 C 79.667,35.668 43.999,0 0,0 Z" /></g><g
           style="stroke:none"
           transform="translate(513.0333,287.6641)"
           id="g300"><path
             id="path302"
             style="fill:none;stroke:none;stroke-width:12;stroke-linecap:round;stroke-linejoin:round;stroke-miterlimit:10;stroke-dasharray:none;stroke-opacity:1"
             d="M 0,0 V -27.331" /></g><g
           style="stroke:none"
           transform="translate(513.0333,373.647)"
           id="g304"><path
             id="path306"
             style="fill:none;stroke:none;stroke-width:12;stroke-linecap:round;stroke-linejoin:round;stroke-miterlimit:10;stroke-dasharray:none;stroke-opacity:1"
             d="M 0,0 V -18.095" /></g><g
           style="stroke:none"
           transform="translate(451.3239,259.5986)"
           id="g308"><path
             id="path310"
             style="fill:none;stroke:none;stroke-width:12;stroke-linecap:round;stroke-linejoin:round;stroke-miterlimit:10;stroke-dasharray:none;stroke-opacity:1"
             d="M 0,0 H 123.415" /></g><g
           style="stroke:none"
           transform="translate(512.7823,287.6641)"
           id="g312"><path
             id="path314"
             style="fill:none;stroke:none;stroke-width:12;stroke-linecap:round;stroke-linejoin:round;stroke-miterlimit:10;stroke-dasharray:none;stroke-opacity:1"
             d="m 0,0 v 0 c -11.23,0 -20.333,9.104 -20.333,20.333 v 27.222 c 0,11.23 9.103,20.333 20.333,20.333 11.23,0 20.333,-9.103 20.333,-20.333 V 20.333 C 20.333,9.104 11.23,0 0,0 Z" /></g></g></g></g></svg>