<?xml version="1.0" encoding="UTF-8" standalone="no"?>
<svg
   xmlns:dc="http://purl.org/dc/elements/1.1/"
   xmlns:cc="http://creativecommons.org/ns#"
   xmlns:rdf="http://www.w3.org/1999/02/22-rdf-syntax-ns#"
   xmlns:svg="http://www.w3.org/2000/svg"
   xmlns="http://www.w3.org/2000/svg"
   viewBox="0 0 138.85201 43.452"
   height="43.452"
   width="138.85201"
   xml:space="preserve"
   id="svg2"
   version="1.1"><metadata
     id="metadata8"><rdf:RDF><cc:Work
         rdf:about=""><dc:format>image/svg+xml</dc:format><dc:type
           rdf:resource="http://purl.org/dc/dcmitype/StillImage" /></cc:Work></rdf:RDF></metadata><defs
     id="defs6"><clipPath
       id="clipPath18"
       clipPathUnits="userSpaceOnUse"><path
         id="path16"
         d="M 0,32.589 H 104.139 V 0 H 0 Z" /></clipPath></defs><g
     transform="matrix(1.3333333,0,0,-1.3333333,0,43.452)"
     id="g10"><g
       id="g12"><g
         clip-path="url(#clipPath18)"
         id="g14"><g
           transform="translate(30.3601,32.589)"
           id="g20"><path
             id="path22"
             style="fill:#0095bf;fill-opacity:1;fill-rule:nonzero;stroke:none"
             d="m 0,0 -8.185,-22.097 -0.892,4.356 c -1.513,5.029 -6.258,10.494 -11.553,13.208 l 7.496,-27.959 h 8.838 L 8.839,-0.003 H 0 Z m 57.417,-19.558 c 0.169,-0.018 3.363,10.534 3.363,10.534 l 2.547,-10.534 z m 9.625,19.457 H 60.58 c -1.992,0 -3.506,-0.572 -4.367,-2.616 L 43.804,-32.524 h 8.766 l 2.416,6.453 h 9.808 l 1.252,-6.479 h 7.732 z M 37.406,-13.249 c -2.919,1.441 -4.709,2.416 -4.709,3.89 0.034,1.34 1.513,2.713 4.814,2.713 2.713,0.069 4.707,-0.569 6.221,-1.204 l 0.759,-0.338 1.134,6.804 c -1.648,0.638 -4.267,1.342 -7.497,1.342 -8.249,0 -14.058,-4.289 -14.095,-10.423 -0.067,-4.528 4.158,-7.039 7.321,-8.547 3.234,-1.546 4.334,-2.548 4.334,-3.921 -0.037,-2.109 -2.615,-3.082 -5.018,-3.082 -3.332,0 -5.124,0.5 -7.841,1.675 l -1.1,0.502 -1.167,-7.073 c 1.962,-0.871 5.572,-1.639 9.317,-1.678 8.767,0 14.473,4.225 14.544,10.762 0.027,3.586 -2.201,6.333 -7.017,8.578 M 12.206,0 6.979,-32.524 h 8.356 L 20.559,0 Z" /></g><g
           transform="translate(18.5295,28.3941)"
           id="g24"><path
             id="path26"
             style="fill:#fdc855;fill-opacity:1;fill-rule:nonzero;stroke:none"
             d="M 0,0 C -0.638,2.48 -2.671,4.153 -5.434,4.188 H -18.395 L -18.529,3.587 C -8.417,1.095 0.07,-6.576 2.822,-13.791 Z" /></g></g></g></g></svg>