<?xml version="1.0" encoding="UTF-8" standalone="no"?>
<svg
   xmlns:dc="http://purl.org/dc/elements/1.1/"
   xmlns:cc="http://creativecommons.org/ns#"
   xmlns:rdf="http://www.w3.org/1999/02/22-rdf-syntax-ns#"
   xmlns:svg="http://www.w3.org/2000/svg"
   xmlns="http://www.w3.org/2000/svg"
   viewBox="0 0 70.566399 42.340267"
   height="42.340267"
   width="70.566399"
   xml:space="preserve"
   id="svg2"
   version="1.1"><metadata
     id="metadata8"><rdf:RDF><cc:Work
         rdf:about=""><dc:format>image/svg+xml</dc:format><dc:type
           rdf:resource="http://purl.org/dc/dcmitype/StillImage" /></cc:Work></rdf:RDF></metadata><defs
     id="defs6"><clipPath
       id="clipPath18"
       clipPathUnits="userSpaceOnUse"><path
         id="path16"
         d="M 0,31.755 H 52.925 V 0 H 0 Z" /></clipPath></defs><g
     transform="matrix(1.3333333,0,0,-1.3333333,0,42.340267)"
     id="g10"><g
       id="g12"><g
         clip-path="url(#clipPath18)"
         id="g14"><g
           transform="translate(52.9143,16.4163)"
           id="g20"><path
             id="path22"
             style="fill:#ffb551;fill-opacity:1;fill-rule:nonzero;stroke:none"
             d="M 0,0 C -0.001,0.051 -0.003,0.101 -0.006,0.15 -0.012,0.304 -0.021,0.457 -0.031,0.609 -0.035,0.666 -0.04,0.723 -0.045,0.778 -0.056,0.907 -0.067,1.035 -0.081,1.162 -0.09,1.246 -0.1,1.33 -0.11,1.414 c -0.009,0.071 -0.019,0.143 -0.029,0.214 -0.728,5.339 -4.11,9.849 -8.825,12.123 -0.019,0.01 -0.039,0.02 -0.058,0.028 -0.091,0.044 -0.182,0.087 -0.274,0.128 -0.142,0.066 -0.286,0.129 -0.431,0.191 -0.827,0.349 -1.689,0.631 -2.58,0.837 -0.005,10e-4 -0.008,10e-4 -0.013,0.003 -0.122,0.027 -0.246,0.054 -0.369,0.08 -0.008,0.002 -0.015,0.003 -0.023,0.003 -0.121,0.026 -0.242,0.049 -0.364,0.071 -0.017,0.003 -0.034,0.006 -0.051,0.009 -0.112,0.019 -0.226,0.039 -0.339,0.055 -0.023,0.004 -0.047,0.007 -0.07,0.01 -0.108,0.017 -0.215,0.032 -0.322,0.046 -0.03,0.004 -0.059,0.006 -0.088,0.01 -0.103,0.012 -0.205,0.025 -0.309,0.035 -0.04,0.005 -0.081,0.008 -0.122,0.011 -0.092,0.008 -0.184,0.017 -0.276,0.025 -0.059,0.004 -0.118,0.007 -0.177,0.011 -0.075,0.005 -0.149,0.01 -0.225,0.014 -0.07,0.004 -0.141,0.005 -0.212,0.008 -0.064,0.003 -0.129,0.006 -0.193,0.008 -0.136,0.003 -0.27,0.005 -0.407,0.005 l -10e-4,-0.001 c -0.028,0 -0.055,0.001 -0.082,0.001 -8.737,0 -15.794,-7.141 -15.794,-15.878 0,-8.736 7.14,-15.877 15.877,-15.877 8.821,0 15.878,7.141 15.878,15.877 C 0.011,-0.358 0.007,-0.179 0,0" /></g><g
           transform="translate(31.6711,15.7932)"
           id="g24"><path
             id="path26"
             style="fill:#ff564a;fill-opacity:1;fill-rule:nonzero;stroke:none"
             d="m 0,0 c 0,1.177 -0.168,2.269 -0.336,3.36 h -9.745 c 0.084,0.589 0.252,1.093 0.42,1.681 h 8.736 c -0.167,0.588 -0.42,1.177 -0.671,1.681 h -7.393 c 0.252,0.587 0.589,1.091 0.925,1.679 h 5.627 c -0.335,0.588 -0.755,1.176 -1.259,1.68 h -3.109 c 0.504,0.589 1.008,1.093 1.597,1.597 -2.772,2.603 -6.638,4.284 -10.754,4.284 0,0 0.084,0 0,0 -8.652,-0.084 -15.709,-7.141 -15.709,-15.878 0,-8.736 7.057,-15.877 15.877,-15.877 4.117,0 7.814,1.596 10.669,4.116 0.588,0.504 1.093,1.093 1.597,1.68 h -3.277 c -0.42,0.505 -0.84,1.093 -1.175,1.597 h 5.627 c 0.337,0.504 0.672,1.091 0.924,1.679 h -7.476 c -0.252,0.505 -0.504,1.093 -0.672,1.681 h 8.736 C -0.336,-3.443 0,-1.764 0,0" /></g><g
           transform="translate(21.5061,11.845)"
           id="g28"><path
             id="path30"
             style="fill:#ffffff;fill-opacity:1;fill-rule:nonzero;stroke:none"
             d="M 0,0 0.252,1.429 C 0.168,1.429 0,1.345 -0.168,1.345 c -0.589,0 -0.672,0.336 -0.589,0.504 l 0.505,2.94 h 0.924 l 0.252,1.596 h -0.84 l 0.168,1.009 h -1.68 c 0,0 -1.009,-5.545 -1.009,-6.217 0,-1.008 0.589,-1.429 1.345,-1.429 0.504,0 0.924,0.168 1.092,0.252" /></g><g
           transform="translate(25.0344,16.97)"
           id="g32"><path
             id="path34"
             style="fill:#ffffff;fill-opacity:1;fill-rule:nonzero;stroke:none"
             d="M 0,0 C 0.925,0 0.756,-1.093 0.756,-1.177 H -1.093 C -1.093,-1.093 -0.924,0 0,0 m -2.94,-2.437 c 0,-2.352 1.596,-2.94 2.94,-2.94 1.26,0 1.764,0.252 1.764,0.252 L 2.1,-3.528 c 0,0 -0.924,-0.42 -1.764,-0.42 -1.849,0 -1.512,1.344 -1.512,1.344 h 3.445 c 0,0 0.252,1.091 0.252,1.511 C 2.521,0 1.933,1.344 0.084,1.344 -1.68,1.512 -2.94,-0.336 -2.94,-2.437" /></g><g
           transform="translate(35.7033,11.845)"
           id="g36"><path
             id="path38"
             style="fill:#ffffff;fill-opacity:1;fill-rule:nonzero;stroke:none"
             d="m 0,0 0.336,1.849 c 0,0 -0.84,-0.42 -1.428,-0.42 -1.177,0 -1.68,0.924 -1.68,1.932 0,2.016 1.007,3.108 2.184,3.108 0.84,0 1.512,-0.504 1.512,-0.504 l 0.252,1.764 c 0,0 -1.008,0.419 -1.932,0.419 -1.932,0 -3.864,-1.679 -3.864,-4.872 0,-2.099 1.008,-3.528 3.024,-3.528 C -0.924,-0.252 0,0 0,0" /></g><g
           transform="translate(12.6008,14.7014)"
           id="g40"><path
             id="path42"
             style="fill:#ffffff;fill-opacity:1;fill-rule:nonzero;stroke:none"
             d="m 0,0 c 0,-0.252 -0.168,-1.596 -1.176,-1.596 -0.504,0 -0.672,0.42 -0.672,0.672 0,0.42 0.252,1.008 1.512,1.008 C -0.084,0 0,0 0,0 m -0.336,3.78 c -1.176,0 -2.017,-0.336 -2.017,-0.336 L -2.604,2.017 c 0,0 0.756,0.336 1.848,0.336 0.588,0 1.092,-0.084 1.092,-0.588 0,-0.336 -0.083,-0.42 -0.083,-0.42 h -0.757 c -1.428,0 -3.024,-0.589 -3.024,-2.521 0,-1.512 1.008,-1.848 1.596,-1.848 1.176,0 1.68,0.756 1.764,0.756 L -0.252,-2.94 h 1.513 l 0.672,4.621 c 0,2.015 -1.68,2.099 -2.269,2.099" /></g><g
           transform="translate(16.1291,11.677)"
           id="g44"><path
             id="path46"
             style="fill:#ffffff;fill-opacity:1;fill-rule:nonzero;stroke:none"
             d="m 0,0 c 0.42,0 2.521,-0.084 2.521,2.185 0,2.1 -2.017,1.679 -2.017,2.52 0,0.42 0.337,0.588 0.925,0.588 0.252,0 1.175,-0.084 1.175,-0.084 l 0.252,1.512 c 0,0 -0.587,0.168 -1.595,0.168 C 0,6.889 -1.26,6.385 -1.26,4.705 c 0,-1.933 2.101,-1.765 2.101,-2.52 0,-0.504 -0.588,-0.588 -1.008,-0.588 -0.757,0 -1.513,0.252 -1.513,0.252 L -1.932,0.337 C -1.848,0.168 -1.428,0 0,0" /></g><g
           transform="translate(48.8928,15.3733)"
           id="g48"><path
             id="path50"
             style="fill:#ffffff;fill-opacity:1;fill-rule:nonzero;stroke:none"
             d="m 0,0 c 0,-0.924 -0.42,-2.1 -1.345,-2.1 -0.587,0 -0.924,0.504 -0.924,1.344 0,1.345 0.588,2.185 1.345,2.185 C -0.336,1.429 0,1.009 0,0 M 0.756,4.453 0.42,2.185 c 0,0 -0.672,0.839 -1.597,0.839 -1.511,0 -2.855,-1.847 -2.855,-4.032 0,-1.344 0.672,-2.772 2.1,-2.772 1.008,0 1.596,0.672 1.596,0.672 L -0.42,-3.696 h 1.68 l 1.261,8.065 z" /></g><g
           transform="translate(3.1081,11.761)"
           id="g52"><path
             id="path54"
             style="fill:#ffffff;fill-opacity:1;fill-rule:nonzero;stroke:none"
             d="M 0,0 1.008,6.049 1.176,0 H 2.353 L 4.536,6.049 3.612,0 H 5.377 L 6.721,8.065 H 3.949 L 2.269,3.108 2.185,8.065 H -0.251 L -1.596,0 Z" /></g><g
           transform="translate(29.1506,11.761)"
           id="g56"><path
             id="path58"
             style="fill:#ffffff;fill-opacity:1;fill-rule:nonzero;stroke:none"
             d="m 0,0 c 0.505,2.772 0.588,5.041 1.765,4.621 0.168,1.092 0.42,1.512 0.588,1.932 H 2.017 C 1.261,6.553 0.672,5.545 0.672,5.545 L 0.84,6.469 H -0.756 L -1.848,-0.084 H 0 Z" /></g><g
           transform="translate(39.9875,14.7014)"
           id="g60"><path
             id="path62"
             style="fill:#ffffff;fill-opacity:1;fill-rule:nonzero;stroke:none"
             d="m 0,0 c 0,-0.252 -0.168,-1.596 -1.176,-1.596 -0.504,0 -0.672,0.42 -0.672,0.672 0,0.42 0.252,1.008 1.512,1.008 C -0.084,0 -0.084,0 0,0 m -0.42,3.78 c -1.176,0 -2.017,-0.336 -2.017,-0.336 L -2.688,2.017 c 0,0 0.756,0.336 1.848,0.336 0.588,0 1.092,-0.084 1.092,-0.588 0,-0.336 -0.083,-0.42 -0.083,-0.42 h -0.757 c -1.428,0 -3.024,-0.589 -3.024,-2.521 0,-1.512 1.008,-1.848 1.596,-1.848 1.176,0 1.68,0.756 1.764,0.756 L -0.336,-2.94 H 1.177 L 1.849,1.681 C 1.933,3.696 0.169,3.78 -0.42,3.78" /></g><g
           transform="translate(43.2639,11.761)"
           id="g64"><path
             id="path66"
             style="fill:#ffffff;fill-opacity:1;fill-rule:nonzero;stroke:none"
             d="m 0,0 c 0.504,2.772 0.588,5.041 1.765,4.621 0.168,1.092 0.42,1.512 0.588,1.932 H 2.017 C 1.26,6.553 0.672,5.545 0.672,5.545 L 0.84,6.469 H -0.756 L -1.848,-0.084 H 0 Z" /></g></g></g></g></svg>