<?xml version="1.0" encoding="UTF-8" standalone="no"?>
<svg
   xmlns:dc="http://purl.org/dc/elements/1.1/"
   xmlns:cc="http://creativecommons.org/ns#"
   xmlns:rdf="http://www.w3.org/1999/02/22-rdf-syntax-ns#"
   xmlns:svg="http://www.w3.org/2000/svg"
   xmlns="http://www.w3.org/2000/svg"
   viewBox="0 0 262.32266 271.17068"
   height="271.17068"
   width="262.32266"
   xml:space="preserve"
   id="svg2"
   version="1.1"><metadata
     id="metadata8"><rdf:RDF><cc:Work
         rdf:about=""><dc:format>image/svg+xml</dc:format><dc:type
           rdf:resource="http://purl.org/dc/dcmitype/StillImage" /></cc:Work></rdf:RDF></metadata><defs
     id="defs6"><clipPath
       id="clipPath18"
       clipPathUnits="userSpaceOnUse"><path
         id="path16"
         d="M 0,203.378 H 196.742 V 0 H 0 Z" /></clipPath></defs><g
     transform="matrix(1.3333333,0,0,-1.3333333,0,271.17067)"
     id="g10"><g
       id="g12"><g
         clip-path="url(#clipPath18)"
         id="g14"><g
           transform="translate(136.3618,60.5124)"
           id="g20"><path
             id="path22"
             style="fill:#ffb551;fill-opacity:1;fill-rule:nonzero;stroke:none"
             d="m 0,0 c -1.818,0 -3.334,-0.634 -4.267,-1.785 -2.389,-2.944 -1.315,-8.13 2.344,-11.326 1.597,-1.395 3.897,-2.23 6.155,-2.23 2.299,0 4.217,0.863 5.401,2.427 2.129,2.853 0.904,6.897 -3.119,10.299 C 4.522,-0.93 2.209,0 0,0 m 20.054,14.8 c -1.779,0.52 -3.109,0.134 -3.765,-1.067 -0.994,-1.815 -0.26,-5.406 1.745,-8.535 2.032,-3.17 3.755,-4.777 5.127,-4.777 0.473,0 0.896,0.199 1.225,0.573 0.763,0.876 1.015,2.711 0.694,5.032 -0.322,2.372 -1.778,7.251 -5.026,8.774 m 39.728,-71.898 c 1.839,-2.278 -0.958,-4.59 -3.043,-2.743 -20.819,18.442 -38.329,23.664 -55.647,24.388 -9.191,0.385 -18.327,-0.497 -27.878,-1.341 -1.907,-0.168 -3.831,-0.335 -5.777,-0.489 -0.849,-0.069 -1.704,-0.133 -2.559,-0.196 -3.368,-0.363 -6.78,-0.556 -10.241,-0.556 -16.295,0 -31.671,3.993 -45.707,11.873 -14.086,7.901 -25.281,18.938 -33.272,32.806 -7.977,13.835 -12.02,29.125 -12.02,45.442 0,16.302 4.039,31.655 12.004,45.635 7.981,14 19.048,25.145 32.894,33.126 13.846,7.974 28.949,12.018 44.893,12.018 16.651,0 32.214,-3.995 46.257,-11.875 14.083,-7.902 25.312,-18.971 33.378,-32.907 8.051,-13.918 12.133,-29.247 12.133,-45.561 0,-6.297 -0.611,-12.448 -1.81,-18.429 -0.154,-0.867 -0.377,-1.92 -0.691,-3.146 -0.234,-0.981 -0.484,-1.959 -0.751,-2.93 L 41.87,28.059 C 40.257,22.895 37.254,15.585 31.665,6.2 31.063,5.213 30.73,5.965 30.652,6.518 28.696,20.32 22.647,30.802 11.985,37.572 11.81,37.684 11.63,37.79 11.452,37.898 9.705,38.974 7.839,39.95 5.848,40.83 c -2.541,1.119 -5.282,2.084 -8.23,2.88 -1.808,0.486 -5.838,0.277 -4.376,1.728 0.603,0.596 9.333,0.733 19.368,0.097 0.195,-0.012 0.39,-0.023 0.587,-0.037 0.185,2.105 0.281,4.261 0.281,6.475 0,17.222 -5.701,31.265 -17.43,42.927 -11.738,11.67 -25.462,17.345 -41.959,17.345 -16.893,0 -30.591,-5.681 -41.874,-17.369 -11.344,-11.746 -16.857,-25.671 -16.857,-42.569 0,-16.865 5.669,-30.731 17.332,-42.392 11.663,-11.662 25.204,-17.333 41.399,-17.333 0.777,0 1.544,0.024 2.311,0.048 -0.018,0.196 -0.031,0.392 -0.047,0.585 -0.931,11.89 -1.128,21.768 1.315,17.783 0.863,-1.409 1.722,-2.74 2.578,-4.02 3.194,-4.775 6.354,-8.704 9.5,-11.961 0.158,-0.163 0.316,-0.323 0.476,-0.483 11.512,-11.684 22.844,-14.559 34.891,-17.515 0.257,-0.066 0.513,-0.128 0.769,-0.191 1.972,-0.486 3.964,-0.977 5.98,-1.516 14.318,-3.822 29.824,-9.982 47.92,-32.41" /></g></g></g></g></svg>