<?xml version="1.0" encoding="UTF-8" standalone="no"?>
<svg
   xmlns:dc="http://purl.org/dc/elements/1.1/"
   xmlns:cc="http://creativecommons.org/ns#"
   xmlns:rdf="http://www.w3.org/1999/02/22-rdf-syntax-ns#"
   xmlns:svg="http://www.w3.org/2000/svg"
   xmlns="http://www.w3.org/2000/svg"
   viewBox="0 0 444.19067 186.388"
   height="186.388"
   width="444.19067"
   xml:space="preserve"
   id="svg2"
   version="1.1"><metadata
     id="metadata8"><rdf:RDF><cc:Work
         rdf:about=""><dc:format>image/svg+xml</dc:format><dc:type
           rdf:resource="http://purl.org/dc/dcmitype/StillImage" /></cc:Work></rdf:RDF></metadata><defs
     id="defs6"><clipPath
       id="clipPath18"
       clipPathUnits="userSpaceOnUse"><path
         id="path16"
         d="M 30.367,129.821 12.605,103.368 h 141.14 l 19.07,26.453 z" /></clipPath><linearGradient
       id="linearGradient34"
       spreadMethod="pad"
       gradientTransform="matrix(163.01331,-97.94828,-97.94828,-163.01331,44.49559,145.56499)"
       gradientUnits="userSpaceOnUse"
       y2="0"
       x2="1"
       y1="0"
       x1="0"><stop
         id="stop24"
         offset="0"
         style="stop-opacity:1;stop-color:#ffffff" /><stop
         id="stop26"
         offset="0.0154479"
         style="stop-opacity:1;stop-color:#ffffff" /><stop
         id="stop28"
         offset="0.101128"
         style="stop-opacity:1;stop-color:#0091d3" /><stop
         id="stop30"
         offset="0.259375"
         style="stop-opacity:1;stop-color:#0091d3" /><stop
         id="stop32"
         offset="1"
         style="stop-opacity:1;stop-color:#0091d3" /></linearGradient><clipPath
       id="clipPath44"
       clipPathUnits="userSpaceOnUse"><path
         id="path42"
         d="M 0,139.791 H 333.143 V 0 H 0 Z" /></clipPath><clipPath
       id="clipPath88"
       clipPathUnits="userSpaceOnUse"><path
         id="path86"
         d="M 184.692,40.645 164.438,14 h 129.306 l 16.209,26.678 z" /></clipPath><linearGradient
       id="linearGradient104"
       spreadMethod="pad"
       gradientTransform="matrix(99.503937,-55.15593,-55.15593,-99.503937,187.92448,54.650112)"
       gradientUnits="userSpaceOnUse"
       y2="0"
       x2="1"
       y1="0"
       x1="0"><stop
         id="stop94"
         offset="0"
         style="stop-opacity:1;stop-color:#0091d3" /><stop
         id="stop96"
         offset="0.740625"
         style="stop-opacity:1;stop-color:#0091d3" /><stop
         id="stop98"
         offset="0.898872"
         style="stop-opacity:1;stop-color:#0091d3" /><stop
         id="stop100"
         offset="0.984552"
         style="stop-opacity:1;stop-color:#ffffff" /><stop
         id="stop102"
         offset="1"
         style="stop-opacity:1;stop-color:#ffffff" /></linearGradient></defs><g
     transform="matrix(1.3333333,0,0,-1.3333333,0,186.388)"
     id="g10"><g
       id="g12"><g
         clip-path="url(#clipPath18)"
         id="g14"><g
           id="g20"><g
             id="g22"><path
               id="path36"
               style="fill:url(#linearGradient34);stroke:none"
               d="M 30.367,129.821 12.605,103.368 h 141.14 l 19.07,26.453 z" /></g></g></g></g><g
       id="g38"><g
         clip-path="url(#clipPath44)"
         id="g40"><g
           transform="translate(241.6504,118.088)"
           id="g46"><path
             id="path48"
             style="fill:#0091d3;fill-opacity:1;fill-rule:nonzero;stroke:none"
             d="M 0,0 C 2.071,3.02 6.594,11.747 -6.663,11.733 H -7.347 L -61.743,11.555 -74.86,-14.803 h 41.965 l -57.649,-103.285 z" /></g><g
           transform="translate(14.6167,47.0362)"
           id="g50"><path
             id="path52"
             style="fill:#1f191a;fill-opacity:1;fill-rule:nonzero;stroke:none"
             d="m 0,0 c -10.221,0.291 -17.26,11.357 -13.666,22.175 3.128,9.388 8.709,17.108 17.437,22.179 5.513,3.33 11.581,4.875 18.001,4.875 4.701,0 8.223,-1.135 9.498,-2.179 l 0.84,-0.674 -6.514,-10.749 -1.363,0.862 c -0.768,0.462 -3.04,1.279 -6.648,1.279 -3.362,0 -6.774,-1.091 -9.626,-3.073 -4.201,-2.867 -7.52,-7.617 -9.09,-13.107 -1.893,-6.567 0.531,-10.201 6.818,-10.201 2.76,0 5.708,0.509 7.881,1.334 L 15.735,13.548 13.649,2.534 C 13.649,2.534 8.944,-0.313 0,0" /></g><g
           transform="translate(260.0274,47.0362)"
           id="g54"><path
             id="path56"
             style="fill:#1f191a;fill-opacity:1;fill-rule:nonzero;stroke:none"
             d="m 0,0 c -10.228,0.291 -17.271,11.357 -13.663,22.175 3.121,9.388 8.704,17.108 17.434,22.179 5.507,3.33 11.576,4.875 17.998,4.875 4.701,0 8.218,-1.135 9.497,-2.179 l 0.836,-0.674 -6.511,-10.749 -1.359,0.862 c -0.776,0.462 -3.055,1.279 -6.652,1.279 -3.366,0 -6.778,-1.091 -9.623,-3.073 -4.208,-2.867 -7.519,-7.617 -9.094,-13.107 -1.889,-6.567 0.532,-10.201 6.819,-10.201 2.761,0 5.708,0.509 7.881,1.334 L 15.73,13.548 13.649,2.534 C 13.649,2.534 8.948,-0.313 0,0" /></g><g
           transform="translate(65.6846,85.0548)"
           id="g58"><path
             id="path60"
             style="fill:#1f191a;fill-opacity:1;fill-rule:nonzero;stroke:none"
             d="m 0,0 c -2.272,0 -4.659,-0.984 -6.907,-2.867 -4.096,-3.291 -7.618,-9.871 -9.004,-14.687 -1.227,-4.258 -1.441,-9.336 4.51,-9.336 2.094,0 4.485,0.978 6.735,2.769 3.77,3.085 7.489,9.975 8.89,14.839 C 6.903,0 1.711,0 0,0 m -15.922,-38.085 c -11.031,0 -16.097,8.117 -12.614,20.214 2.511,8.704 7.953,17.025 14.563,22.258 5.584,4.406 12.064,6.824 18.261,6.824 11.155,0 16.079,-7.954 12.548,-20.227 -2.506,-8.697 -7.849,-16.975 -14.282,-22.187 -5.667,-4.532 -12.05,-6.882 -18.476,-6.882" /></g><g
           transform="translate(98.918,47.6866)"
           id="g62"><path
             id="path64"
             style="fill:#1f191a;fill-opacity:1;fill-rule:nonzero;stroke:none"
             d="m 0,0 -0.97,18.893 c -0.098,2.982 -0.146,5.586 -0.109,8.162 -1.36,-3.026 -2.936,-6.448 -4.664,-10.115 L -13.691,0 h -11.842 l 22.611,47.84 h 13.301 l 0.875,-18.083 c 0.038,-2.289 0.038,-4.437 -0.008,-6.573 0.94,2.206 2.009,4.558 3.236,7.141 L 22.72,47.84 H 34.555 L 12.015,0 Z" /></g><g
           transform="translate(152.8697,47.6866)"
           id="g66"><path
             id="path68"
             style="fill:#1f191a;fill-opacity:1;fill-rule:nonzero;stroke:none"
             d="M 0,0 17.21,36.244 H 5.619 L 11.123,47.84 H 47.35 L 41.807,36.244 H 29.981 L 12.768,0 Z" /></g><g
           transform="translate(231.126,69.7999)"
           id="g70"><path
             id="path72"
             style="fill:#1f191a;fill-opacity:1;fill-rule:nonzero;stroke:none"
             d="M 0,0 C 0,0 2.325,10.881 2.475,11.614 1.847,10.702 -5.87,0 -5.87,0 Z m -5.011,-22.113 2.444,11.575 h -10.359 l -8.72,-11.575 h -13.881 l 37.962,47.84 h 14.31 l -8.318,-47.84 z" /></g><g
           transform="translate(285.793,47.6866)"
           id="g74"><path
             id="path76"
             style="fill:#1f191a;fill-opacity:1;fill-rule:nonzero;stroke:none"
             d="M 0,0 17.217,36.244 H 5.487 L 11.122,47.84 H 47.351 L 41.811,36.244 H 29.981 L 12.765,0 Z" /></g><g
           transform="translate(132.8614,40.6446)"
           id="g78"><path
             id="path80"
             style="fill:#0091d3;fill-opacity:1;fill-rule:nonzero;stroke:none"
             d="m 0,0 49.742,99.146 -82.627,-114.282 -0.224,-0.287 c 0,0 -2.455,-3.155 -1.974,-6.729 0.315,-2.36 2.198,-4.447 7.931,-4.427 0.476,0 0.919,-0.02 1.34,-0.066 H 23.972 L 38.332,0 Z" /></g></g></g><g
       id="g82"><g
         clip-path="url(#clipPath88)"
         id="g84"><g
           id="g90"><g
             id="g92"><path
               id="path106"
               style="fill:url(#linearGradient104);stroke:none"
               d="M 184.692,40.645 164.438,14 h 129.306 l 16.209,26.678 z" /></g></g></g></g></g></svg>