<?xml version="1.0" encoding="UTF-8" standalone="no"?>
<svg
   xmlns:dc="http://purl.org/dc/elements/1.1/"
   xmlns:cc="http://creativecommons.org/ns#"
   xmlns:rdf="http://www.w3.org/1999/02/22-rdf-syntax-ns#"
   xmlns:svg="http://www.w3.org/2000/svg"
   xmlns="http://www.w3.org/2000/svg"
   viewBox="0 0 50.560398 50.667999"
   height="50.667999"
   width="50.560398"
   xml:space="preserve"
   id="svg2"
   version="1.1"><metadata
     id="metadata8"><rdf:RDF><cc:Work
         rdf:about=""><dc:format>image/svg+xml</dc:format><dc:type
           rdf:resource="http://purl.org/dc/dcmitype/StillImage" /></cc:Work></rdf:RDF></metadata><defs
     id="defs6"><clipPath
       id="clipPath18"
       clipPathUnits="userSpaceOnUse"><path
         id="path16"
         d="M 0,38.001 H 37.92 V 0 H 0 Z" /></clipPath><clipPath
       id="clipPath30"
       clipPathUnits="userSpaceOnUse"><path
         id="path28"
         d="m 0.001,0 h 37.92 V 38 H 10e-4 Z" /></clipPath></defs><g
     transform="matrix(1.3333333,0,0,-1.3333333,0,50.668)"
     id="g10"><g
       id="g12"><g
         clip-path="url(#clipPath18)"
         id="g14"><g
           transform="translate(35.8757,3.8363)"
           id="g20"><path
             id="path22"
             style="fill:#c5ac91;fill-opacity:1;fill-rule:nonzero;stroke:none"
             d="m 0,0 h -34.168 c -0.941,0 -1.707,-0.767 -1.707,-1.711 0,-0.942 0.766,-1.707 1.707,-1.707 H 0 c 0.944,0 1.711,0.765 1.711,1.707 C 1.707,-0.767 0.944,0 0,0" /></g></g></g><g
       id="g24"><g
         clip-path="url(#clipPath30)"
         id="g26"><path
           id="path32"
           style="fill:#e1ceb9;fill-opacity:1;fill-rule:nonzero;stroke:none"
           d="m 7.688,23.652 h 5.124 V 8.277 H 7.688 Z M 21.355,8.277 H 16.23 v 15.375 h 5.125 z m 8.54,0 H 24.77 v 15.375 h 5.125 z m -26.051,0 C 2.898,8.277 2.137,7.512 2.137,6.57 2.137,5.625 2.898,4.859 3.844,4.859 h 29.894 c 0.946,0 1.711,0.766 1.711,1.711 0,0.942 -0.765,1.707 -1.711,1.707 h -0.426 v 15.375 h 0.426 c 0.474,0 0.856,0.383 0.856,0.856 0,0.468 -0.382,0.851 -0.856,0.851 H 3.844 c -0.473,0 -0.852,-0.383 -0.852,-0.851 0,-0.473 0.379,-0.856 0.852,-0.856 H 4.27 V 8.277 Z" /><g
           transform="translate(1.7078,26.8939)"
           id="g34"><path
             id="path36"
             style="fill:#c5ac91;fill-opacity:1;fill-rule:nonzero;stroke:none"
             d="m 0,0 h 34.184 c 0.945,0 1.711,0.766 1.711,1.711 0,0.75 -0.486,1.387 -1.158,1.617 l -16.953,7.629 c -0.444,0.2 -0.953,0.2 -1.397,0 L -0.699,3.27 C -1.435,2.938 -1.841,2.137 -1.669,1.352 -1.5,0.563 -0.806,0 0,0" /></g></g></g></g></svg>