<?xml version="1.0" encoding="UTF-8" standalone="no"?>
<svg
   xmlns:dc="http://purl.org/dc/elements/1.1/"
   xmlns:cc="http://creativecommons.org/ns#"
   xmlns:rdf="http://www.w3.org/1999/02/22-rdf-syntax-ns#"
   xmlns:svg="http://www.w3.org/2000/svg"
   xmlns="http://www.w3.org/2000/svg"
   viewBox="0 0 498.54132 370.86801"
   height="370.86801"
   width="498.54132"
   xml:space="preserve"
   id="svg2"
   version="1.1"><metadata
     id="metadata8"><rdf:RDF><cc:Work
         rdf:about=""><dc:format>image/svg+xml</dc:format><dc:type
           rdf:resource="http://purl.org/dc/dcmitype/StillImage" /></cc:Work></rdf:RDF></metadata><defs
     id="defs6"><clipPath
       id="clipPath18"
       clipPathUnits="userSpaceOnUse"><path
         id="path16"
         d="M 0,278.151 H 373.906 V 0 H 0 Z" /></clipPath><clipPath
       id="clipPath34"
       clipPathUnits="userSpaceOnUse"><path
         id="path32"
         d="M 188.707,164.133 H 340.341 V 16.363 H 188.707 Z" /></clipPath></defs><g
     transform="matrix(1.3333333,0,0,-1.3333333,0,370.868)"
     id="g10"><g
       id="g12"><g
         clip-path="url(#clipPath18)"
         id="g14"><g
           transform="translate(106.8456,252.5466)"
           id="g20"><path
             id="path22"
             style="fill:#ff524f;fill-opacity:1;fill-rule:nonzero;stroke:none"
             d="m 0,0 h -15.929 c -24.088,0 -47.398,-15.929 -47.398,-62.165 0,-44.68 21.365,-59.059 47.398,-59.059 l 15.929,0 z m -24.866,-146.09 -47.398,-106.456 h -34.582 l 52.067,113.843 c -24.483,12.433 -40.801,34.964 -40.801,76.538 0,58.28 36.911,87.42 80.818,87.42 h 44.68 V -252.546 H 0 v 106.456 z" /></g><g
           transform="translate(162.3891,140.1911)"
           id="g24"><path
             id="path26"
             style="fill:#ffd63f;fill-opacity:1;fill-rule:nonzero;stroke:none"
             d="M 0,0 C 0,15.618 1.309,25.528 33.651,49.67 60.426,69.658 146.25,137.959 146.25,137.959 V 23.942 h 65.267 V -140.159 H 20.386 c -11.212,0 -20.389,9.177 -20.389,20.389 z" /></g><g
           id="g28"><g
             id="g30" /><g
             id="g42"><g
               style="opacity:0.39999402"
               id="g40"
               clip-path="url(#clipPath34)"><g
                 id="g38"
                 transform="translate(308.6396,164.133)"><path
                   id="path36"
                   style="fill:#606060;fill-opacity:1;fill-rule:nonzero;stroke:none"
                   d="M 0,0 V -66.066 L -119.933,-147.77 31.701,-98.433 V 0 Z" /></g></g></g></g><g
           transform="translate(253.8329,167.55)"
           id="g44"><path
             id="path46"
             style="fill:#1e0e00;fill-opacity:1;fill-rule:nonzero;stroke:none"
             d="m 0,0 c 7.015,8.356 17.257,11.307 22.881,6.587 5.624,-4.719 4.5,-15.322 -2.514,-23.678 -7.01,-8.357 -17.256,-11.304 -22.88,-6.584 C -8.138,-18.955 -7.01,-8.356 0,0" /></g></g></g></g></svg>